M48
; DRILL file {KiCad 7.0.1} date Tue Mar 21 16:53:16 2023
; FORMAT={-:-/ absolute / inch / decimal}
; #@! TF.CreationDate,2023-03-21T16:53:16+01:00
; #@! TF.GenerationSoftware,Kicad,Pcbnew,7.0.1
; #@! TF.FileFunction,MixedPlating,1,2
FMAT,2
INCH
; #@! TA.AperFunction,Plated,PTH,ComponentDrill
T1C0.0118
; #@! TA.AperFunction,Plated,PTH,ViaDrill
T2C0.0157
; #@! TA.AperFunction,Plated,PTH,ComponentDrill
T3C0.0315
; #@! TA.AperFunction,Plated,PTH,ComponentDrill
T4C0.0394
; #@! TA.AperFunction,Plated,PTH,ComponentDrill
T5C0.0500
; #@! TA.AperFunction,Plated,PTH,ComponentDrill
T6C0.0512
; #@! TA.AperFunction,Plated,PTH,ComponentDrill
T7C0.0598
%
G90
G05
T1
X4.8382Y-2.4274
X4.8382Y-2.4874
X4.8682Y-2.3974
X4.8682Y-2.4574
X4.8682Y-2.5174
X4.8982Y-2.4274
X4.8982Y-2.4874
X4.9282Y-2.3974
X4.9282Y-2.4574
X4.9282Y-2.5174
X4.9583Y-2.4274
X4.9583Y-2.4874
T2
X3.85Y-2.49
X3.96Y-2.15
X4.12Y-3.26
X4.13Y-2.75
X4.29Y-2.31
X4.35Y-2.56
X4.5Y-2.675
X4.5Y-2.945
X4.5791Y-2.5219
X4.625Y-2.92
X4.67Y-2.77
X4.69Y-2.16
X4.75Y-2.46
X4.83Y-2.97
X4.87Y-3.39
X4.88Y-3.15
X4.9Y-2.31
X4.9Y-2.6
X4.97Y-2.93
X5.05Y-2.46
X5.17Y-2.16
X5.18Y-2.27
X5.18Y-2.32
X5.19Y-3.24
X5.21Y-2.97
X5.26Y-2.67
X5.27Y-2.57
X5.27Y-2.77
X5.335Y-2.42
X5.36Y-3.36
X5.3691Y-3.6019
X5.37Y-2.69
X5.3791Y-2.1619
X5.385Y-2.385
X5.3891Y-3.0219
X5.3891Y-3.6919
X5.4Y-2.93
X5.4Y-3.23
X5.42Y-2.44
X5.42Y-3.35
X5.5Y-2.21
X5.54Y-2.6
X5.6791Y-2.1319
X5.8791Y-2.8619
T3
X5.2525Y-3.46
X5.3313Y-3.46
X5.41Y-3.46
X5.4887Y-3.46
X5.57Y-2.1838
X5.57Y-2.2625
X5.57Y-2.3413
X5.57Y-2.42
X5.6991Y-2.1919
X5.7778Y-2.1919
X5.8565Y-2.1919
X5.9353Y-2.1919
X6.014Y-2.1919
X6.0928Y-2.1919
T4
X5.6657Y-3.2079
X6.1382Y-3.2079
T5
X3.86Y-2.67
X3.86Y-3.4
X3.96Y-2.67
X3.96Y-3.4
X4.28Y-2.67
X4.28Y-3.4
X4.38Y-2.67
X4.38Y-3.4
T6
X5.6638Y-2.7256
X5.9Y-3.2846
X6.1382Y-2.7276
T7
X5.6791Y-3.5719
X5.8791Y-3.5719
X6.0791Y-3.5719
T4
G00X4.8588Y-3.26
M15
G01X4.9612Y-3.26
M16
G05
G00X4.8667Y-3.508
M15
G01X4.9533Y-3.508
M16
G05
G00X5.099Y-3.3309
M15
G01X5.099Y-3.4175
M16
G05
T0
M30
