%TF.GenerationSoftware,KiCad,Pcbnew,7.0.1*%
%TF.CreationDate,2023-04-21T09:55:58+02:00*%
%TF.ProjectId,hond,686f6e64-2e6b-4696-9361-645f70636258,rev?*%
%TF.SameCoordinates,Original*%
%TF.FileFunction,Copper,L2,Bot*%
%TF.FilePolarity,Positive*%
%FSLAX46Y46*%
G04 Gerber Fmt 4.6, Leading zero omitted, Abs format (unit mm)*
G04 Created by KiCad (PCBNEW 7.0.1) date 2023-04-21 09:55:58*
%MOMM*%
%LPD*%
G01*
G04 APERTURE LIST*
G04 Aperture macros list*
%AMRoundRect*
0 Rectangle with rounded corners*
0 $1 Rounding radius*
0 $2 $3 $4 $5 $6 $7 $8 $9 X,Y pos of 4 corners*
0 Add a 4 corners polygon primitive as box body*
4,1,4,$2,$3,$4,$5,$6,$7,$8,$9,$2,$3,0*
0 Add four circle primitives for the rounded corners*
1,1,$1+$1,$2,$3*
1,1,$1+$1,$4,$5*
1,1,$1+$1,$6,$7*
1,1,$1+$1,$8,$9*
0 Add four rect primitives between the rounded corners*
20,1,$1+$1,$2,$3,$4,$5,0*
20,1,$1+$1,$4,$5,$6,$7,0*
20,1,$1+$1,$6,$7,$8,$9,0*
20,1,$1+$1,$8,$9,$2,$3,0*%
G04 Aperture macros list end*
%TA.AperFunction,ComponentPad*%
%ADD10R,1.700000X1.700000*%
%TD*%
%TA.AperFunction,ComponentPad*%
%ADD11O,1.700000X1.700000*%
%TD*%
%TA.AperFunction,HeatsinkPad*%
%ADD12C,0.600000*%
%TD*%
%TA.AperFunction,ComponentPad*%
%ADD13R,3.000000X3.000000*%
%TD*%
%TA.AperFunction,ComponentPad*%
%ADD14C,3.000000*%
%TD*%
%TA.AperFunction,ComponentPad*%
%ADD15C,1.440000*%
%TD*%
%TA.AperFunction,SMDPad,CuDef*%
%ADD16R,0.760000X1.600000*%
%TD*%
%TA.AperFunction,SMDPad,CuDef*%
%ADD17RoundRect,0.250000X0.450000X-0.350000X0.450000X0.350000X-0.450000X0.350000X-0.450000X-0.350000X0*%
%TD*%
%TA.AperFunction,SMDPad,CuDef*%
%ADD18RoundRect,0.250000X-0.450000X0.350000X-0.450000X-0.350000X0.450000X-0.350000X0.450000X0.350000X0*%
%TD*%
%TA.AperFunction,SMDPad,CuDef*%
%ADD19RoundRect,0.250000X-0.450000X0.325000X-0.450000X-0.325000X0.450000X-0.325000X0.450000X0.325000X0*%
%TD*%
%TA.AperFunction,SMDPad,CuDef*%
%ADD20RoundRect,0.250000X0.450000X-0.325000X0.450000X0.325000X-0.450000X0.325000X-0.450000X-0.325000X0*%
%TD*%
%TA.AperFunction,ViaPad*%
%ADD21C,0.800000*%
%TD*%
%TA.AperFunction,Conductor*%
%ADD22C,0.381000*%
%TD*%
G04 APERTURE END LIST*
D10*
%TO.P,J4,1,Pin_1*%
%TO.N,Net-(J4-Pin_1)*%
X143251000Y-85852000D03*
D11*
%TO.P,J4,2,Pin_2*%
%TO.N,GND*%
X145791000Y-85852000D03*
%TD*%
D10*
%TO.P,J3,1,Pin_1*%
%TO.N,GPIO21*%
X143764000Y-68834000D03*
D11*
%TO.P,J3,2,Pin_2*%
%TO.N,GPIO22*%
X143764000Y-71374000D03*
%TO.P,J3,3,Pin_3*%
%TO.N,GPIO4*%
X143764000Y-73914000D03*
%TO.P,J3,4,Pin_4*%
%TO.N,GPIO5*%
X143764000Y-76454000D03*
%TO.P,J3,5,Pin_5*%
%TO.N,+3.3V*%
X143764000Y-78994000D03*
%TO.P,J3,6,Pin_6*%
%TO.N,GND*%
X143764000Y-81534000D03*
%TD*%
D10*
%TO.P,J1,1,Pin_1*%
%TO.N,+3.3V*%
X143764000Y-65024000D03*
D11*
%TO.P,J1,2,Pin_2*%
%TO.N,RX0*%
X143764000Y-62484000D03*
%TO.P,J1,3,Pin_3*%
%TO.N,TX0*%
X143764000Y-59944000D03*
%TO.P,J1,4,Pin_4*%
%TO.N,GND*%
X143764000Y-57404000D03*
%TD*%
D12*
%TO.P,U1,39,GND*%
%TO.N,GND*%
X122890000Y-63179500D03*
X122890000Y-64704500D03*
X123652500Y-62417000D03*
X123652500Y-63942000D03*
X123652500Y-65467000D03*
X124415000Y-63179500D03*
X124415000Y-64704500D03*
X125177500Y-62417000D03*
X125177500Y-63942000D03*
X125177500Y-65467000D03*
X125940000Y-63179500D03*
X125940000Y-64704500D03*
%TD*%
D13*
%TO.P,J5,1,Pin_1*%
%TO.N,VDD*%
X110998000Y-82296000D03*
D14*
%TO.P,J5,2,Pin_2*%
%TO.N,GND*%
X105918000Y-82296000D03*
%TD*%
D15*
%TO.P,P1,1,1*%
%TO.N,A8*%
X108189000Y-70104000D03*
%TO.P,P1,2,2*%
%TO.N,Net-(U4-+)*%
X105649000Y-72644000D03*
%TO.P,P1,3,3*%
%TO.N,GND*%
X108189000Y-75184000D03*
%TD*%
D16*
%TO.P,SW2,1,1*%
%TO.N,GPIO0*%
X134366000Y-77597000D03*
%TO.P,SW2,2,2*%
%TO.N,GND*%
X134366000Y-85217000D03*
%TD*%
%TO.P,SW1,1,1*%
%TO.N,/EN*%
X116840000Y-77597000D03*
%TO.P,SW1,2,2*%
%TO.N,GND*%
X116840000Y-85217000D03*
%TD*%
D17*
%TO.P,R3,1*%
%TO.N,GND*%
X130302000Y-80248000D03*
%TO.P,R3,2*%
%TO.N,GPIO2*%
X130302000Y-78248000D03*
%TD*%
%TO.P,R7,1*%
%TO.N,Net-(D1-K)*%
X125222000Y-80248000D03*
%TO.P,R7,2*%
%TO.N,GND*%
X125222000Y-78248000D03*
%TD*%
D18*
%TO.P,R4,1*%
%TO.N,+3.3V*%
X120142000Y-78248000D03*
%TO.P,R4,2*%
%TO.N,Net-(D2-A)*%
X120142000Y-80248000D03*
%TD*%
D19*
%TO.P,D2,1,K*%
%TO.N,GND*%
X122682000Y-78223000D03*
%TO.P,D2,2,A*%
%TO.N,Net-(D2-A)*%
X122682000Y-80273000D03*
%TD*%
D20*
%TO.P,D1,1,K*%
%TO.N,Net-(D1-K)*%
X127762000Y-80273000D03*
%TO.P,D1,2,A*%
%TO.N,GPIO2*%
X127762000Y-78223000D03*
%TD*%
D21*
%TO.N,+3.3V*%
X117348000Y-75692000D03*
X136652000Y-84074000D03*
%TO.N,GND*%
X114554000Y-84328000D03*
X132842000Y-82042000D03*
X140970000Y-56896000D03*
X123952000Y-76962000D03*
X122936000Y-58420000D03*
X127254000Y-70104000D03*
X106426000Y-62738000D03*
X140081000Y-80137000D03*
%TO.N,GPIO2*%
X132080000Y-77978000D03*
%TO.N,TX0*%
X131572000Y-60452000D03*
X136779000Y-62103000D03*
%TO.N,/EN*%
X114300000Y-69469000D03*
%TO.N,GPIO0*%
X133096000Y-77132150D03*
%TO.N,GPIO5*%
X135382000Y-68072000D03*
%TO.N,Net-(J4-Pin_1)*%
X128016000Y-84836000D03*
%TO.N,A8*%
X114836000Y-68072000D03*
%TO.N,GPIO4*%
X134112000Y-71882000D03*
X138684000Y-71374000D03*
%TO.N,GPIO21*%
X135509000Y-62992000D03*
%TO.N,GPIO22*%
X131572000Y-59182000D03*
%TD*%
D22*
%TO.N,+3.3V*%
X121145500Y-77228500D02*
X121145500Y-77244500D01*
X121145500Y-77244500D02*
X120142000Y-78248000D01*
X122428000Y-75946000D02*
X121145500Y-77228500D01*
X135128000Y-75946000D02*
X122428000Y-75946000D01*
X138176000Y-78994000D02*
X135128000Y-75946000D01*
X138938000Y-78994000D02*
X138176000Y-78994000D01*
%TO.N,TX0*%
X138938000Y-59944000D02*
X136779000Y-62103000D01*
X143764000Y-59944000D02*
X138938000Y-59944000D01*
%TO.N,GPIO21*%
X143256000Y-68326000D02*
X143764000Y-68834000D01*
X140843000Y-68326000D02*
X143256000Y-68326000D01*
X135509000Y-62992000D02*
X140843000Y-68326000D01*
%TO.N,GPIO22*%
X141986000Y-69596000D02*
X139065000Y-69596000D01*
X143764000Y-71374000D02*
X141986000Y-69596000D01*
%TO.N,GPIO5*%
X138176000Y-70358000D02*
X135890000Y-68072000D01*
X139192000Y-70358000D02*
X138176000Y-70358000D01*
X139700000Y-70866000D02*
X139192000Y-70358000D01*
X139700000Y-73085658D02*
X139700000Y-70866000D01*
X143141342Y-76527000D02*
X139700000Y-73085658D01*
X143691000Y-76527000D02*
X143141342Y-76527000D01*
X143764000Y-76454000D02*
X143691000Y-76527000D01*
X135890000Y-68072000D02*
X135382000Y-68072000D01*
%TO.N,+3.3V*%
X143764000Y-78994000D02*
X138938000Y-78994000D01*
X136652000Y-81280000D02*
X138938000Y-78994000D01*
%TO.N,Net-(J4-Pin_1)*%
X143251000Y-85852000D02*
X141827000Y-85852000D01*
X141827000Y-85852000D02*
X141065000Y-86614000D01*
%TO.N,+3.3V*%
X120031000Y-78248000D02*
X120142000Y-78248000D01*
X117348000Y-75692000D02*
X117475000Y-75692000D01*
X136652000Y-84074000D02*
X136652000Y-81280000D01*
X117475000Y-75692000D02*
X120031000Y-78248000D01*
%TO.N,GND*%
X125222000Y-78248000D02*
X125222000Y-78232000D01*
X122682000Y-78223000D02*
X122691000Y-78223000D01*
X125222000Y-78232000D02*
X123952000Y-76962000D01*
X122691000Y-78223000D02*
X123952000Y-76962000D01*
%TO.N,Net-(D1-K)*%
X125222000Y-80248000D02*
X127737000Y-80248000D01*
X127737000Y-80248000D02*
X127762000Y-80273000D01*
%TO.N,GPIO2*%
X127787000Y-78248000D02*
X127762000Y-78223000D01*
X130302000Y-78248000D02*
X127787000Y-78248000D01*
X131810000Y-78248000D02*
X132080000Y-77978000D01*
X130302000Y-78248000D02*
X131810000Y-78248000D01*
%TO.N,Net-(D2-A)*%
X122657000Y-80248000D02*
X122682000Y-80273000D01*
X120142000Y-80248000D02*
X122657000Y-80248000D01*
%TO.N,TX0*%
X133223000Y-62103000D02*
X136779000Y-62103000D01*
X131572000Y-60452000D02*
X133223000Y-62103000D01*
%TO.N,/EN*%
X114300000Y-76327000D02*
X115570000Y-77597000D01*
X115570000Y-77597000D02*
X116840000Y-77597000D01*
X114300000Y-69469000D02*
X114300000Y-76327000D01*
%TO.N,GPIO0*%
X133096000Y-77132150D02*
X133901150Y-77132150D01*
X133901150Y-77132150D02*
X134366000Y-77597000D01*
%TO.N,Net-(J4-Pin_1)*%
X129794000Y-86614000D02*
X141065000Y-86614000D01*
X128016000Y-84836000D02*
X129794000Y-86614000D01*
%TO.N,A8*%
X108189000Y-69103000D02*
X108189000Y-70104000D01*
X114836000Y-68072000D02*
X109220000Y-68072000D01*
X109220000Y-68072000D02*
X108189000Y-69103000D01*
%TO.N,GPIO4*%
X138430000Y-71628000D02*
X138684000Y-71374000D01*
X134112000Y-71882000D02*
X134366000Y-71628000D01*
X134366000Y-71628000D02*
X138430000Y-71628000D01*
%TO.N,GPIO22*%
X130175000Y-60706000D02*
X130175000Y-59817000D01*
X130175000Y-59817000D02*
X130810000Y-59182000D01*
X130810000Y-59182000D02*
X131572000Y-59182000D01*
X139065000Y-69596000D02*
X130175000Y-60706000D01*
%TD*%
%TA.AperFunction,Conductor*%
%TO.N,GND*%
G36*
X132195666Y-76650515D02*
G01*
X132239689Y-76688115D01*
X132261844Y-76741602D01*
X132257302Y-76799317D01*
X132246349Y-76833027D01*
X132210325Y-76943897D01*
X132207953Y-76966464D01*
X132187433Y-77022841D01*
X132142847Y-77062986D01*
X132084633Y-77077500D01*
X131985352Y-77077500D01*
X131800197Y-77116855D01*
X131627269Y-77193848D01*
X131474131Y-77305109D01*
X131441384Y-77341478D01*
X131385488Y-77377086D01*
X131319236Y-77378821D01*
X131261554Y-77346185D01*
X131220657Y-77305288D01*
X131071334Y-77213186D01*
X130904797Y-77158000D01*
X130802009Y-77147500D01*
X129801991Y-77147500D01*
X129699203Y-77158000D01*
X129532665Y-77213186D01*
X129383345Y-77305286D01*
X129259286Y-77429345D01*
X129216882Y-77498096D01*
X129171775Y-77541277D01*
X129111343Y-77557000D01*
X128952657Y-77557000D01*
X128892225Y-77541277D01*
X128847118Y-77498096D01*
X128804713Y-77429345D01*
X128680654Y-77305286D01*
X128531334Y-77213186D01*
X128364797Y-77158000D01*
X128262009Y-77147500D01*
X127261991Y-77147500D01*
X127159203Y-77158000D01*
X126992665Y-77213186D01*
X126843342Y-77305288D01*
X126719288Y-77429342D01*
X126627185Y-77578667D01*
X126609441Y-77632213D01*
X126576302Y-77683896D01*
X126522432Y-77713348D01*
X126461037Y-77713347D01*
X126407168Y-77683894D01*
X126374030Y-77632210D01*
X126356357Y-77578878D01*
X126264316Y-77429654D01*
X126140345Y-77305683D01*
X125991122Y-77213642D01*
X125824696Y-77158493D01*
X125721979Y-77148000D01*
X125472000Y-77148000D01*
X125472000Y-78374000D01*
X125455387Y-78436000D01*
X125410000Y-78481387D01*
X125348000Y-78498000D01*
X125096000Y-78498000D01*
X125034000Y-78481387D01*
X124988613Y-78436000D01*
X124972000Y-78374000D01*
X124972000Y-77148001D01*
X124722021Y-77148001D01*
X124619304Y-77158493D01*
X124452877Y-77213642D01*
X124303654Y-77305683D01*
X124179683Y-77429654D01*
X124087641Y-77578879D01*
X124069704Y-77633007D01*
X124036565Y-77684690D01*
X123982695Y-77714142D01*
X123921300Y-77714141D01*
X123867430Y-77684688D01*
X123834293Y-77633004D01*
X123816357Y-77578878D01*
X123724316Y-77429654D01*
X123600345Y-77305683D01*
X123451122Y-77213642D01*
X123284696Y-77158493D01*
X123181979Y-77148000D01*
X122932000Y-77148000D01*
X122932000Y-78349000D01*
X122915387Y-78411000D01*
X122870000Y-78456387D01*
X122808000Y-78473000D01*
X122556000Y-78473000D01*
X122494000Y-78456387D01*
X122448613Y-78411000D01*
X122432000Y-78349000D01*
X122432000Y-77148001D01*
X122405290Y-77121291D01*
X122373197Y-77065703D01*
X122373197Y-77001516D01*
X122405289Y-76945931D01*
X122677901Y-76673319D01*
X122718130Y-76646439D01*
X122765583Y-76637000D01*
X132139371Y-76637000D01*
X132195666Y-76650515D01*
G37*
%TD.AperFunction*%
%TA.AperFunction,Conductor*%
G36*
X148908500Y-55068613D02*
G01*
X148953887Y-55114000D01*
X148970500Y-55176000D01*
X148970500Y-88521500D01*
X148953887Y-88583500D01*
X148908500Y-88628887D01*
X148846500Y-88645500D01*
X102867500Y-88645500D01*
X102805500Y-88628887D01*
X102760113Y-88583500D01*
X102743500Y-88521500D01*
X102743500Y-85467000D01*
X115960000Y-85467000D01*
X115960000Y-86064824D01*
X115966402Y-86124375D01*
X116016647Y-86259089D01*
X116102811Y-86374188D01*
X116217910Y-86460352D01*
X116352624Y-86510597D01*
X116412176Y-86517000D01*
X116590000Y-86517000D01*
X116590000Y-85467000D01*
X117090000Y-85467000D01*
X117090000Y-86517000D01*
X117267824Y-86517000D01*
X117327375Y-86510597D01*
X117462089Y-86460352D01*
X117577188Y-86374188D01*
X117663352Y-86259089D01*
X117713597Y-86124375D01*
X117720000Y-86064824D01*
X117720000Y-85467000D01*
X117090000Y-85467000D01*
X116590000Y-85467000D01*
X115960000Y-85467000D01*
X102743500Y-85467000D01*
X102743500Y-84967000D01*
X115960000Y-84967000D01*
X116590000Y-84967000D01*
X116590000Y-83917000D01*
X117090000Y-83917000D01*
X117090000Y-84967000D01*
X117720000Y-84967000D01*
X117720000Y-84836000D01*
X127110540Y-84836000D01*
X127130326Y-85024257D01*
X127188820Y-85204284D01*
X127283466Y-85368216D01*
X127410129Y-85508889D01*
X127563269Y-85620151D01*
X127736197Y-85697144D01*
X127908189Y-85733702D01*
X127941575Y-85746019D01*
X127970089Y-85767311D01*
X129287964Y-87085185D01*
X129293098Y-87090638D01*
X129332417Y-87135020D01*
X129381211Y-87168700D01*
X129387245Y-87173140D01*
X129424719Y-87202499D01*
X129433895Y-87209688D01*
X129442870Y-87213727D01*
X129462410Y-87224748D01*
X129470518Y-87230344D01*
X129525964Y-87251371D01*
X129532824Y-87254213D01*
X129586915Y-87278558D01*
X129596582Y-87280329D01*
X129596593Y-87280331D01*
X129618220Y-87286359D01*
X129627418Y-87289848D01*
X129686263Y-87296992D01*
X129693631Y-87298113D01*
X129751972Y-87308805D01*
X129811138Y-87305226D01*
X129818626Y-87305000D01*
X141040374Y-87305000D01*
X141047861Y-87305226D01*
X141107028Y-87308805D01*
X141107028Y-87308804D01*
X141107030Y-87308805D01*
X141165336Y-87298119D01*
X141172725Y-87296994D01*
X141231582Y-87289848D01*
X141240790Y-87286355D01*
X141262398Y-87280332D01*
X141272085Y-87278557D01*
X141326161Y-87254218D01*
X141333045Y-87251368D01*
X141388482Y-87230344D01*
X141396585Y-87224750D01*
X141416137Y-87213723D01*
X141425105Y-87209688D01*
X141471776Y-87173122D01*
X141477769Y-87168711D01*
X141526583Y-87135020D01*
X141565902Y-87090635D01*
X141571004Y-87085216D01*
X141754129Y-86902091D01*
X141806874Y-86870796D01*
X141868167Y-86868607D01*
X141923012Y-86896060D01*
X141947856Y-86931843D01*
X141957203Y-86944329D01*
X141957204Y-86944331D01*
X142043454Y-87059546D01*
X142158669Y-87145796D01*
X142293517Y-87196091D01*
X142353127Y-87202500D01*
X144148872Y-87202499D01*
X144208483Y-87196091D01*
X144343331Y-87145796D01*
X144458546Y-87059546D01*
X144544796Y-86944331D01*
X144594003Y-86812398D01*
X144628981Y-86762021D01*
X144683826Y-86734568D01*
X144745119Y-86736757D01*
X144797865Y-86768053D01*
X144919918Y-86890106D01*
X145113423Y-87025600D01*
X145327507Y-87125430D01*
X145540999Y-87182635D01*
X145541000Y-87182636D01*
X145541000Y-86102000D01*
X146041000Y-86102000D01*
X146041000Y-87182635D01*
X146254492Y-87125430D01*
X146468576Y-87025600D01*
X146662081Y-86890106D01*
X146829106Y-86723081D01*
X146964600Y-86529576D01*
X147064430Y-86315492D01*
X147121636Y-86102000D01*
X146041000Y-86102000D01*
X145541000Y-86102000D01*
X145541000Y-84521364D01*
X146041000Y-84521364D01*
X146041000Y-85602000D01*
X147121636Y-85602000D01*
X147121635Y-85601999D01*
X147064430Y-85388507D01*
X146964599Y-85174421D01*
X146829109Y-84980921D01*
X146662081Y-84813893D01*
X146468576Y-84678399D01*
X146254492Y-84578569D01*
X146041000Y-84521364D01*
X145541000Y-84521364D01*
X145540999Y-84521364D01*
X145327507Y-84578569D01*
X145113421Y-84678400D01*
X144919924Y-84813888D01*
X144797865Y-84935947D01*
X144745118Y-84967242D01*
X144683825Y-84969431D01*
X144628981Y-84941978D01*
X144594002Y-84891598D01*
X144581527Y-84858151D01*
X144544796Y-84759669D01*
X144458546Y-84644454D01*
X144343331Y-84558204D01*
X144208483Y-84507909D01*
X144148873Y-84501500D01*
X144148869Y-84501500D01*
X142353130Y-84501500D01*
X142293515Y-84507909D01*
X142158669Y-84558204D01*
X142043454Y-84644454D01*
X141957204Y-84759668D01*
X141907997Y-84891598D01*
X141906909Y-84894517D01*
X141901807Y-84941978D01*
X141900500Y-84954131D01*
X141900500Y-85032683D01*
X141887434Y-85088087D01*
X141850991Y-85131815D01*
X141798849Y-85154652D01*
X141726659Y-85167880D01*
X141719258Y-85169007D01*
X141660415Y-85176152D01*
X141651216Y-85179641D01*
X141629606Y-85185665D01*
X141619916Y-85187441D01*
X141565854Y-85211772D01*
X141558936Y-85214638D01*
X141503515Y-85235656D01*
X141495407Y-85241253D01*
X141475876Y-85252269D01*
X141466894Y-85256312D01*
X141420238Y-85292864D01*
X141414208Y-85297301D01*
X141365417Y-85330979D01*
X141326098Y-85375360D01*
X141320965Y-85380812D01*
X140815097Y-85886681D01*
X140774869Y-85913561D01*
X140727416Y-85923000D01*
X135370000Y-85923000D01*
X135308000Y-85906387D01*
X135262613Y-85861000D01*
X135246000Y-85799000D01*
X135246000Y-85467000D01*
X133486000Y-85467000D01*
X133486000Y-85799000D01*
X133469387Y-85861000D01*
X133424000Y-85906387D01*
X133362000Y-85923000D01*
X130131583Y-85923000D01*
X130084130Y-85913561D01*
X130043902Y-85886681D01*
X129124221Y-84967000D01*
X133486000Y-84967000D01*
X134116000Y-84967000D01*
X134116000Y-83917000D01*
X134616000Y-83917000D01*
X134616000Y-84967000D01*
X135246000Y-84967000D01*
X135246000Y-84369176D01*
X135239597Y-84309624D01*
X135189352Y-84174910D01*
X135103188Y-84059811D01*
X134988089Y-83973647D01*
X134853375Y-83923402D01*
X134793824Y-83917000D01*
X134616000Y-83917000D01*
X134116000Y-83917000D01*
X133938176Y-83917000D01*
X133878624Y-83923402D01*
X133743910Y-83973647D01*
X133628811Y-84059811D01*
X133542647Y-84174910D01*
X133492402Y-84309624D01*
X133486000Y-84369176D01*
X133486000Y-84967000D01*
X129124221Y-84967000D01*
X128944081Y-84786860D01*
X128919841Y-84752561D01*
X128908441Y-84712138D01*
X128901674Y-84647742D01*
X128843179Y-84467715D01*
X128748533Y-84303783D01*
X128621870Y-84163110D01*
X128468730Y-84051848D01*
X128295802Y-83974855D01*
X128110648Y-83935500D01*
X128110646Y-83935500D01*
X127921354Y-83935500D01*
X127921352Y-83935500D01*
X127736197Y-83974855D01*
X127563269Y-84051848D01*
X127410129Y-84163110D01*
X127283466Y-84303783D01*
X127188820Y-84467715D01*
X127130326Y-84647742D01*
X127110540Y-84836000D01*
X117720000Y-84836000D01*
X117720000Y-84369176D01*
X117713597Y-84309624D01*
X117663352Y-84174910D01*
X117577188Y-84059811D01*
X117462089Y-83973647D01*
X117327375Y-83923402D01*
X117267824Y-83917000D01*
X117090000Y-83917000D01*
X116590000Y-83917000D01*
X116412176Y-83917000D01*
X116352624Y-83923402D01*
X116217910Y-83973647D01*
X116102811Y-84059811D01*
X116016647Y-84174910D01*
X115966402Y-84309624D01*
X115960000Y-84369176D01*
X115960000Y-84967000D01*
X102743500Y-84967000D01*
X102743500Y-83876115D01*
X104691436Y-83876115D01*
X104833958Y-83982806D01*
X105085047Y-84119911D01*
X105353097Y-84219888D01*
X105632642Y-84280699D01*
X105918000Y-84301109D01*
X106203357Y-84280699D01*
X106482902Y-84219888D01*
X106750952Y-84119911D01*
X107002041Y-83982806D01*
X107144562Y-83876115D01*
X107112316Y-83843869D01*
X108997500Y-83843869D01*
X109003909Y-83903484D01*
X109029056Y-83970906D01*
X109054204Y-84038331D01*
X109140454Y-84153546D01*
X109255669Y-84239796D01*
X109390517Y-84290091D01*
X109450127Y-84296500D01*
X112545872Y-84296499D01*
X112605483Y-84290091D01*
X112740331Y-84239796D01*
X112855546Y-84153546D01*
X112941796Y-84038331D01*
X112992091Y-83903483D01*
X112998500Y-83843873D01*
X112998499Y-80748128D01*
X112992091Y-80688517D01*
X112941796Y-80553669D01*
X112855546Y-80438454D01*
X112740331Y-80352204D01*
X112605483Y-80301909D01*
X112545873Y-80295500D01*
X112545869Y-80295500D01*
X109450130Y-80295500D01*
X109390515Y-80301909D01*
X109255669Y-80352204D01*
X109140454Y-80438454D01*
X109054204Y-80553668D01*
X109003909Y-80688516D01*
X108997500Y-80748130D01*
X108997500Y-83843869D01*
X107112316Y-83843869D01*
X105918001Y-82649553D01*
X105918000Y-82649553D01*
X104691436Y-83876115D01*
X102743500Y-83876115D01*
X102743500Y-82295999D01*
X103912890Y-82295999D01*
X103933300Y-82581357D01*
X103994111Y-82860902D01*
X104094088Y-83128952D01*
X104231193Y-83380042D01*
X104337883Y-83522562D01*
X105564446Y-82296001D01*
X106271553Y-82296001D01*
X107498115Y-83522562D01*
X107604806Y-83380041D01*
X107741911Y-83128952D01*
X107841888Y-82860902D01*
X107902699Y-82581357D01*
X107923109Y-82295999D01*
X107902699Y-82010642D01*
X107841888Y-81731097D01*
X107741911Y-81463047D01*
X107604806Y-81211958D01*
X107498115Y-81069436D01*
X106271553Y-82296000D01*
X106271553Y-82296001D01*
X105564446Y-82296001D01*
X105564446Y-82296000D01*
X104337883Y-81069436D01*
X104337882Y-81069437D01*
X104231195Y-81211954D01*
X104094088Y-81463047D01*
X103994111Y-81731097D01*
X103933300Y-82010642D01*
X103912890Y-82295999D01*
X102743500Y-82295999D01*
X102743500Y-80715883D01*
X104691436Y-80715883D01*
X105918000Y-81942446D01*
X105918001Y-81942446D01*
X107144562Y-80715883D01*
X107002042Y-80609193D01*
X106750952Y-80472088D01*
X106482902Y-80372111D01*
X106203357Y-80311300D01*
X105918000Y-80290890D01*
X105632642Y-80311300D01*
X105353097Y-80372111D01*
X105085047Y-80472088D01*
X104833954Y-80609195D01*
X104691437Y-80715882D01*
X104691436Y-80715883D01*
X102743500Y-80715883D01*
X102743500Y-76205583D01*
X107520967Y-76205583D01*
X107576670Y-76244587D01*
X107770138Y-76334802D01*
X107976342Y-76390055D01*
X108189000Y-76408660D01*
X108401657Y-76390055D01*
X108607861Y-76334802D01*
X108801325Y-76244589D01*
X108857030Y-76205583D01*
X108189001Y-75537553D01*
X108189000Y-75537553D01*
X107520967Y-76205583D01*
X102743500Y-76205583D01*
X102743500Y-75184000D01*
X106964339Y-75184000D01*
X106982944Y-75396657D01*
X107038197Y-75602861D01*
X107128410Y-75796326D01*
X107167415Y-75852030D01*
X107167416Y-75852031D01*
X107835447Y-75184001D01*
X108542553Y-75184001D01*
X109210583Y-75852030D01*
X109249589Y-75796325D01*
X109339802Y-75602861D01*
X109395055Y-75396657D01*
X109413660Y-75184000D01*
X109395055Y-74971342D01*
X109339802Y-74765138D01*
X109249587Y-74571670D01*
X109210583Y-74515967D01*
X108542553Y-75184000D01*
X108542553Y-75184001D01*
X107835447Y-75184001D01*
X107835447Y-75184000D01*
X107167414Y-74515967D01*
X107128411Y-74571672D01*
X107038197Y-74765138D01*
X106982944Y-74971342D01*
X106964339Y-75184000D01*
X102743500Y-75184000D01*
X102743500Y-74162414D01*
X107520967Y-74162414D01*
X108189000Y-74830447D01*
X108189001Y-74830447D01*
X108857031Y-74162416D01*
X108857030Y-74162415D01*
X108801326Y-74123410D01*
X108607861Y-74033197D01*
X108401657Y-73977944D01*
X108189000Y-73959339D01*
X107976342Y-73977944D01*
X107770138Y-74033197D01*
X107576672Y-74123411D01*
X107520967Y-74162414D01*
X102743500Y-74162414D01*
X102743500Y-72643999D01*
X104423837Y-72643999D01*
X104442450Y-72856744D01*
X104497724Y-73063031D01*
X104587979Y-73256582D01*
X104710471Y-73431520D01*
X104861479Y-73582528D01*
X105036417Y-73705020D01*
X105036418Y-73705020D01*
X105036419Y-73705021D01*
X105229970Y-73795276D01*
X105436253Y-73850549D01*
X105649000Y-73869162D01*
X105861747Y-73850549D01*
X106068030Y-73795276D01*
X106261581Y-73705021D01*
X106436519Y-73582529D01*
X106587529Y-73431519D01*
X106710021Y-73256581D01*
X106800276Y-73063030D01*
X106855549Y-72856747D01*
X106874162Y-72644000D01*
X106855549Y-72431253D01*
X106800276Y-72224970D01*
X106710021Y-72031419D01*
X106605397Y-71882000D01*
X106587528Y-71856479D01*
X106436520Y-71705471D01*
X106261582Y-71582979D01*
X106068031Y-71492724D01*
X105861744Y-71437450D01*
X105649000Y-71418837D01*
X105436255Y-71437450D01*
X105229968Y-71492724D01*
X105036417Y-71582979D01*
X104861479Y-71705471D01*
X104710471Y-71856479D01*
X104587979Y-72031417D01*
X104497724Y-72224968D01*
X104442450Y-72431255D01*
X104423837Y-72643999D01*
X102743500Y-72643999D01*
X102743500Y-70104000D01*
X106963837Y-70104000D01*
X106982450Y-70316744D01*
X107037724Y-70523031D01*
X107127979Y-70716582D01*
X107250471Y-70891520D01*
X107401479Y-71042528D01*
X107576417Y-71165020D01*
X107576418Y-71165020D01*
X107576419Y-71165021D01*
X107769970Y-71255276D01*
X107976253Y-71310549D01*
X108118084Y-71322957D01*
X108188999Y-71329162D01*
X108188999Y-71329161D01*
X108189000Y-71329162D01*
X108401747Y-71310549D01*
X108608030Y-71255276D01*
X108801581Y-71165021D01*
X108976519Y-71042529D01*
X109127529Y-70891519D01*
X109250021Y-70716581D01*
X109340276Y-70523030D01*
X109395549Y-70316747D01*
X109414162Y-70104000D01*
X109395549Y-69891253D01*
X109340276Y-69684970D01*
X109250021Y-69491419D01*
X109250020Y-69491417D01*
X109121307Y-69307594D01*
X109122170Y-69306989D01*
X109095722Y-69261180D01*
X109095722Y-69196992D01*
X109127814Y-69141407D01*
X109469902Y-68799319D01*
X109510131Y-68772439D01*
X109557584Y-68763000D01*
X113453027Y-68763000D01*
X113515027Y-68779613D01*
X113560414Y-68825000D01*
X113577027Y-68887000D01*
X113560414Y-68949000D01*
X113472820Y-69100715D01*
X113414326Y-69280742D01*
X113394540Y-69468999D01*
X113414326Y-69657257D01*
X113472820Y-69837284D01*
X113567464Y-70001212D01*
X113567465Y-70001214D01*
X113567467Y-70001216D01*
X113577150Y-70011970D01*
X113600764Y-70050503D01*
X113609000Y-70094942D01*
X113609000Y-76302374D01*
X113608774Y-76309861D01*
X113605195Y-76369029D01*
X113615879Y-76427332D01*
X113617006Y-76434735D01*
X113624152Y-76493583D01*
X113627643Y-76502788D01*
X113633668Y-76524400D01*
X113635442Y-76534083D01*
X113659772Y-76588143D01*
X113662630Y-76595044D01*
X113678543Y-76637000D01*
X113683656Y-76650482D01*
X113689249Y-76658585D01*
X113700273Y-76678132D01*
X113704311Y-76687104D01*
X113740863Y-76733759D01*
X113745303Y-76739793D01*
X113778979Y-76788582D01*
X113823352Y-76827893D01*
X113828805Y-76833027D01*
X115063979Y-78068201D01*
X115069099Y-78073639D01*
X115108417Y-78118020D01*
X115134061Y-78135721D01*
X115157214Y-78151703D01*
X115163233Y-78156132D01*
X115176157Y-78166257D01*
X115209892Y-78192687D01*
X115209893Y-78192687D01*
X115209894Y-78192688D01*
X115218870Y-78196727D01*
X115238417Y-78207752D01*
X115246518Y-78213344D01*
X115301942Y-78234363D01*
X115308851Y-78237225D01*
X115362915Y-78261557D01*
X115372602Y-78263332D01*
X115394208Y-78269355D01*
X115403418Y-78272848D01*
X115462268Y-78279993D01*
X115469641Y-78281115D01*
X115527972Y-78291805D01*
X115587138Y-78288226D01*
X115594626Y-78288000D01*
X115835501Y-78288000D01*
X115897501Y-78304613D01*
X115942888Y-78350000D01*
X115959501Y-78412000D01*
X115959501Y-78444870D01*
X115965909Y-78504484D01*
X115975552Y-78530337D01*
X116016204Y-78639331D01*
X116102454Y-78754546D01*
X116217669Y-78840796D01*
X116352517Y-78891091D01*
X116412127Y-78897500D01*
X117267872Y-78897499D01*
X117327483Y-78891091D01*
X117462331Y-78840796D01*
X117577546Y-78754546D01*
X117663796Y-78639331D01*
X117714091Y-78504483D01*
X117720500Y-78444873D01*
X117720499Y-77214081D01*
X117734014Y-77157787D01*
X117771614Y-77113764D01*
X117825101Y-77091609D01*
X117882817Y-77096151D01*
X117932180Y-77126401D01*
X118905181Y-78099402D01*
X118932061Y-78139630D01*
X118941500Y-78187083D01*
X118941500Y-78648008D01*
X118952000Y-78750796D01*
X119007186Y-78917334D01*
X119099288Y-79066657D01*
X119192950Y-79160319D01*
X119225044Y-79215906D01*
X119225044Y-79280094D01*
X119192950Y-79335681D01*
X119099288Y-79429342D01*
X119007186Y-79578665D01*
X118952000Y-79745202D01*
X118941500Y-79847990D01*
X118941500Y-80648008D01*
X118952000Y-80750796D01*
X119007186Y-80917334D01*
X119099288Y-81066657D01*
X119223342Y-81190711D01*
X119257783Y-81211954D01*
X119372666Y-81282814D01*
X119484017Y-81319712D01*
X119539202Y-81337999D01*
X119549702Y-81339071D01*
X119641991Y-81348500D01*
X120642008Y-81348499D01*
X120744797Y-81337999D01*
X120911334Y-81282814D01*
X121060656Y-81190712D01*
X121184712Y-81066656D01*
X121227118Y-80997903D01*
X121272225Y-80954723D01*
X121332657Y-80939000D01*
X121491343Y-80939000D01*
X121551775Y-80954723D01*
X121596882Y-80997904D01*
X121639286Y-81066654D01*
X121763345Y-81190713D01*
X121797783Y-81211954D01*
X121912666Y-81282814D01*
X122024017Y-81319712D01*
X122079202Y-81337999D01*
X122089702Y-81339071D01*
X122181991Y-81348500D01*
X123182008Y-81348499D01*
X123284797Y-81337999D01*
X123451334Y-81282814D01*
X123600656Y-81190712D01*
X123724712Y-81066656D01*
X123816814Y-80917334D01*
X123834294Y-80864580D01*
X123867432Y-80812898D01*
X123921302Y-80783446D01*
X123982698Y-80783446D01*
X124036568Y-80812898D01*
X124069705Y-80864580D01*
X124072576Y-80873243D01*
X124087186Y-80917334D01*
X124179288Y-81066657D01*
X124303342Y-81190711D01*
X124337783Y-81211954D01*
X124452666Y-81282814D01*
X124564017Y-81319712D01*
X124619202Y-81337999D01*
X124629702Y-81339071D01*
X124721991Y-81348500D01*
X125722008Y-81348499D01*
X125824797Y-81337999D01*
X125991334Y-81282814D01*
X126140656Y-81190712D01*
X126264712Y-81066656D01*
X126307118Y-80997903D01*
X126352225Y-80954723D01*
X126412657Y-80939000D01*
X126571343Y-80939000D01*
X126631775Y-80954723D01*
X126676882Y-80997904D01*
X126719286Y-81066654D01*
X126843345Y-81190713D01*
X126877783Y-81211954D01*
X126992666Y-81282814D01*
X127104017Y-81319712D01*
X127159202Y-81337999D01*
X127169702Y-81339071D01*
X127261991Y-81348500D01*
X128262008Y-81348499D01*
X128364797Y-81337999D01*
X128531334Y-81282814D01*
X128680656Y-81190712D01*
X128804712Y-81066656D01*
X128896814Y-80917334D01*
X128914557Y-80863786D01*
X128947695Y-80812104D01*
X129001565Y-80782652D01*
X129062960Y-80782652D01*
X129116830Y-80812104D01*
X129149969Y-80863788D01*
X129167642Y-80917122D01*
X129259683Y-81066345D01*
X129383654Y-81190316D01*
X129532877Y-81282357D01*
X129699303Y-81337506D01*
X129802021Y-81348000D01*
X130052000Y-81348000D01*
X130052000Y-80498000D01*
X130552000Y-80498000D01*
X130552000Y-81347999D01*
X130801979Y-81347999D01*
X130904695Y-81337506D01*
X131071122Y-81282357D01*
X131220345Y-81190316D01*
X131344316Y-81066345D01*
X131436357Y-80917122D01*
X131491506Y-80750696D01*
X131502000Y-80647979D01*
X131502000Y-80498000D01*
X130552000Y-80498000D01*
X130052000Y-80498000D01*
X130052000Y-80122000D01*
X130068613Y-80060000D01*
X130114000Y-80014613D01*
X130176000Y-79998000D01*
X131501999Y-79998000D01*
X131501999Y-79848021D01*
X131491506Y-79745304D01*
X131436357Y-79578877D01*
X131344316Y-79429654D01*
X131250696Y-79336034D01*
X131218602Y-79280447D01*
X131218602Y-79216259D01*
X131250696Y-79160672D01*
X131271055Y-79140313D01*
X131344712Y-79066656D01*
X131387118Y-78997903D01*
X131432225Y-78954723D01*
X131492657Y-78939000D01*
X131785374Y-78939000D01*
X131792861Y-78939226D01*
X131852028Y-78942805D01*
X131852028Y-78942804D01*
X131852030Y-78942805D01*
X131910336Y-78932119D01*
X131917725Y-78930994D01*
X131976582Y-78923848D01*
X131985790Y-78920355D01*
X132007398Y-78914332D01*
X132017085Y-78912557D01*
X132068481Y-78889425D01*
X132119374Y-78878500D01*
X132174648Y-78878500D01*
X132298084Y-78852262D01*
X132359803Y-78839144D01*
X132532730Y-78762151D01*
X132685871Y-78650888D01*
X132812533Y-78510216D01*
X132907179Y-78346284D01*
X132965674Y-78166256D01*
X132968046Y-78143685D01*
X132988565Y-78087311D01*
X133033151Y-78047165D01*
X133091366Y-78032650D01*
X133190646Y-78032650D01*
X133335723Y-78001813D01*
X133390447Y-78002529D01*
X133439535Y-78026737D01*
X133473420Y-78069719D01*
X133485500Y-78123103D01*
X133485500Y-78444869D01*
X133491909Y-78504484D01*
X133501552Y-78530337D01*
X133542204Y-78639331D01*
X133628454Y-78754546D01*
X133743669Y-78840796D01*
X133878517Y-78891091D01*
X133938127Y-78897500D01*
X134793872Y-78897499D01*
X134853483Y-78891091D01*
X134988331Y-78840796D01*
X135103546Y-78754546D01*
X135189796Y-78639331D01*
X135240091Y-78504483D01*
X135246500Y-78444873D01*
X135246499Y-77341082D01*
X135260014Y-77284788D01*
X135297614Y-77240765D01*
X135351101Y-77218610D01*
X135408817Y-77223152D01*
X135458180Y-77253402D01*
X137492096Y-79287318D01*
X137524190Y-79342905D01*
X137524190Y-79407093D01*
X137492096Y-79462680D01*
X136180804Y-80773972D01*
X136175352Y-80779104D01*
X136130980Y-80818415D01*
X136097298Y-80867212D01*
X136092861Y-80873243D01*
X136056312Y-80919894D01*
X136056312Y-80919895D01*
X136052269Y-80928875D01*
X136041252Y-80948409D01*
X136035656Y-80956515D01*
X136014632Y-81011950D01*
X136011768Y-81018864D01*
X135987441Y-81072917D01*
X135985666Y-81082604D01*
X135979645Y-81104203D01*
X135976153Y-81113413D01*
X135969006Y-81172266D01*
X135967879Y-81179668D01*
X135957195Y-81237971D01*
X135960774Y-81297139D01*
X135961000Y-81304626D01*
X135961000Y-83448058D01*
X135952764Y-83492497D01*
X135929150Y-83531029D01*
X135922002Y-83538967D01*
X135919464Y-83541787D01*
X135824820Y-83705715D01*
X135766326Y-83885742D01*
X135746540Y-84073999D01*
X135766326Y-84262257D01*
X135824820Y-84442284D01*
X135919466Y-84606216D01*
X136046129Y-84746889D01*
X136199269Y-84858151D01*
X136372197Y-84935144D01*
X136557352Y-84974500D01*
X136557354Y-84974500D01*
X136746646Y-84974500D01*
X136746648Y-84974500D01*
X136899651Y-84941978D01*
X136931803Y-84935144D01*
X137104730Y-84858151D01*
X137202854Y-84786860D01*
X137257870Y-84746889D01*
X137384533Y-84606216D01*
X137479179Y-84442284D01*
X137522283Y-84309624D01*
X137537674Y-84262256D01*
X137557460Y-84074000D01*
X137537674Y-83885744D01*
X137479179Y-83705716D01*
X137479179Y-83705715D01*
X137384535Y-83541787D01*
X137384534Y-83541786D01*
X137384533Y-83541784D01*
X137374849Y-83531029D01*
X137351236Y-83492497D01*
X137343000Y-83448058D01*
X137343000Y-81784000D01*
X142433364Y-81784000D01*
X142490569Y-81997492D01*
X142590399Y-82211576D01*
X142725893Y-82405081D01*
X142892918Y-82572106D01*
X143086423Y-82707600D01*
X143300507Y-82807430D01*
X143513999Y-82864635D01*
X143514000Y-82864636D01*
X143514000Y-81784000D01*
X144014000Y-81784000D01*
X144014000Y-82864635D01*
X144227492Y-82807430D01*
X144441576Y-82707600D01*
X144635081Y-82572106D01*
X144802106Y-82405081D01*
X144937600Y-82211576D01*
X145037430Y-81997492D01*
X145094636Y-81784000D01*
X144014000Y-81784000D01*
X143514000Y-81784000D01*
X142433364Y-81784000D01*
X137343000Y-81784000D01*
X137343000Y-81617584D01*
X137352439Y-81570131D01*
X137379319Y-81529903D01*
X139187903Y-79721319D01*
X139228131Y-79694439D01*
X139275584Y-79685000D01*
X142534637Y-79685000D01*
X142591894Y-79699011D01*
X142636211Y-79737876D01*
X142725505Y-79865401D01*
X142892599Y-80032495D01*
X143078597Y-80162732D01*
X143117460Y-80207048D01*
X143131471Y-80264305D01*
X143117461Y-80321561D01*
X143078595Y-80365880D01*
X142892919Y-80495892D01*
X142725890Y-80662921D01*
X142590400Y-80856421D01*
X142490569Y-81070507D01*
X142433364Y-81283999D01*
X142433364Y-81284000D01*
X145094636Y-81284000D01*
X145094635Y-81283999D01*
X145037430Y-81070507D01*
X144937599Y-80856421D01*
X144802109Y-80662921D01*
X144635081Y-80495893D01*
X144449404Y-80365880D01*
X144410539Y-80321562D01*
X144396528Y-80264305D01*
X144410539Y-80207048D01*
X144449402Y-80162732D01*
X144635401Y-80032495D01*
X144802495Y-79865401D01*
X144938035Y-79671830D01*
X145037903Y-79457663D01*
X145099063Y-79229408D01*
X145119659Y-78994000D01*
X145099063Y-78758592D01*
X145037903Y-78530337D01*
X144938035Y-78316171D01*
X144802495Y-78122599D01*
X144635401Y-77955505D01*
X144449839Y-77825573D01*
X144410976Y-77781257D01*
X144396965Y-77724000D01*
X144410976Y-77666743D01*
X144449839Y-77622426D01*
X144635401Y-77492495D01*
X144802495Y-77325401D01*
X144938035Y-77131830D01*
X145037903Y-76917663D01*
X145099063Y-76689408D01*
X145119659Y-76454000D01*
X145117973Y-76434735D01*
X145099063Y-76218592D01*
X145095577Y-76205583D01*
X145037903Y-75990337D01*
X144938035Y-75776171D01*
X144802495Y-75582599D01*
X144635401Y-75415505D01*
X144449839Y-75285573D01*
X144410975Y-75241257D01*
X144396964Y-75184000D01*
X144410975Y-75126743D01*
X144449839Y-75082426D01*
X144635401Y-74952495D01*
X144802495Y-74785401D01*
X144938035Y-74591830D01*
X145037903Y-74377663D01*
X145099063Y-74149408D01*
X145119659Y-73914000D01*
X145099063Y-73678592D01*
X145037903Y-73450337D01*
X144938035Y-73236171D01*
X144802495Y-73042599D01*
X144635401Y-72875505D01*
X144449839Y-72745573D01*
X144410975Y-72701257D01*
X144396964Y-72644000D01*
X144410975Y-72586743D01*
X144449839Y-72542426D01*
X144635401Y-72412495D01*
X144802495Y-72245401D01*
X144938035Y-72051830D01*
X145037903Y-71837663D01*
X145099063Y-71609408D01*
X145119659Y-71374000D01*
X145099063Y-71138592D01*
X145037903Y-70910337D01*
X144938035Y-70696171D01*
X144802495Y-70502599D01*
X144680569Y-70380673D01*
X144649273Y-70327927D01*
X144647084Y-70266634D01*
X144674537Y-70211789D01*
X144724916Y-70176810D01*
X144856331Y-70127796D01*
X144971546Y-70041546D01*
X145057796Y-69926331D01*
X145108091Y-69791483D01*
X145114500Y-69731873D01*
X145114499Y-67936128D01*
X145108091Y-67876517D01*
X145057796Y-67741669D01*
X144971546Y-67626454D01*
X144856331Y-67540204D01*
X144721483Y-67489909D01*
X144661873Y-67483500D01*
X144661869Y-67483500D01*
X142866130Y-67483500D01*
X142806515Y-67489909D01*
X142671670Y-67540203D01*
X142671668Y-67540204D01*
X142671669Y-67540204D01*
X142578074Y-67610268D01*
X142542927Y-67628654D01*
X142503767Y-67635000D01*
X141180584Y-67635000D01*
X141133131Y-67625561D01*
X141092903Y-67598681D01*
X136709403Y-63215181D01*
X136679153Y-63165818D01*
X136674611Y-63108102D01*
X136696766Y-63054615D01*
X136740789Y-63017015D01*
X136797084Y-63003500D01*
X136873648Y-63003500D01*
X136997083Y-62977262D01*
X137058803Y-62964144D01*
X137231730Y-62887151D01*
X137231730Y-62887150D01*
X137384870Y-62775889D01*
X137511533Y-62635216D01*
X137606179Y-62471284D01*
X137664674Y-62291257D01*
X137665898Y-62279602D01*
X137671441Y-62226858D01*
X137682841Y-62186438D01*
X137707078Y-62152142D01*
X139187902Y-60671319D01*
X139228131Y-60644439D01*
X139275584Y-60635000D01*
X142534637Y-60635000D01*
X142591894Y-60649011D01*
X142636211Y-60687876D01*
X142725505Y-60815401D01*
X142892599Y-60982495D01*
X143078160Y-61112426D01*
X143117024Y-61156743D01*
X143131035Y-61214000D01*
X143117024Y-61271257D01*
X143078158Y-61315575D01*
X142992319Y-61375681D01*
X142892595Y-61445508D01*
X142725505Y-61612598D01*
X142589965Y-61806170D01*
X142490097Y-62020336D01*
X142428936Y-62248592D01*
X142408340Y-62483999D01*
X142428936Y-62719407D01*
X142467584Y-62863642D01*
X142490097Y-62947663D01*
X142589965Y-63161830D01*
X142725505Y-63355401D01*
X142725507Y-63355403D01*
X142725508Y-63355404D01*
X142847430Y-63477326D01*
X142878726Y-63530072D01*
X142880915Y-63591365D01*
X142853462Y-63646209D01*
X142803083Y-63681189D01*
X142671669Y-63730204D01*
X142556454Y-63816454D01*
X142470204Y-63931668D01*
X142419909Y-64066516D01*
X142413500Y-64126130D01*
X142413500Y-65921869D01*
X142419909Y-65981483D01*
X142470204Y-66116331D01*
X142556454Y-66231546D01*
X142671669Y-66317796D01*
X142806517Y-66368091D01*
X142866127Y-66374500D01*
X144661872Y-66374499D01*
X144721483Y-66368091D01*
X144856331Y-66317796D01*
X144971546Y-66231546D01*
X145057796Y-66116331D01*
X145108091Y-65981483D01*
X145114500Y-65921873D01*
X145114499Y-64126128D01*
X145108091Y-64066517D01*
X145057796Y-63931669D01*
X144971546Y-63816454D01*
X144856331Y-63730204D01*
X144794898Y-63707291D01*
X144724916Y-63681189D01*
X144674537Y-63646209D01*
X144647084Y-63591365D01*
X144649273Y-63530072D01*
X144680566Y-63477329D01*
X144802495Y-63355401D01*
X144938035Y-63161830D01*
X145037903Y-62947663D01*
X145099063Y-62719408D01*
X145119659Y-62484000D01*
X145118546Y-62471284D01*
X145099063Y-62248592D01*
X145073219Y-62152139D01*
X145037903Y-62020337D01*
X144938035Y-61806171D01*
X144802495Y-61612599D01*
X144635401Y-61445505D01*
X144449839Y-61315573D01*
X144410976Y-61271257D01*
X144396965Y-61214000D01*
X144410976Y-61156743D01*
X144449839Y-61112426D01*
X144635401Y-60982495D01*
X144802495Y-60815401D01*
X144938035Y-60621830D01*
X145037903Y-60407663D01*
X145099063Y-60179408D01*
X145119659Y-59944000D01*
X145099063Y-59708592D01*
X145037903Y-59480337D01*
X144938035Y-59266171D01*
X144802495Y-59072599D01*
X144635401Y-58905505D01*
X144449402Y-58775267D01*
X144410539Y-58730951D01*
X144396528Y-58673694D01*
X144410539Y-58616437D01*
X144449405Y-58572119D01*
X144635078Y-58442109D01*
X144802106Y-58275081D01*
X144937600Y-58081576D01*
X145037430Y-57867492D01*
X145094636Y-57654000D01*
X142433364Y-57654000D01*
X142490569Y-57867492D01*
X142590399Y-58081576D01*
X142725893Y-58275081D01*
X142892918Y-58442106D01*
X143078595Y-58572119D01*
X143117460Y-58616437D01*
X143131471Y-58673694D01*
X143117460Y-58730951D01*
X143078595Y-58775269D01*
X142892595Y-58905508D01*
X142725505Y-59072598D01*
X142636212Y-59200123D01*
X142591894Y-59238989D01*
X142534637Y-59253000D01*
X138962626Y-59253000D01*
X138955139Y-59252774D01*
X138947103Y-59252287D01*
X138895972Y-59249195D01*
X138895971Y-59249195D01*
X138837668Y-59259879D01*
X138830266Y-59261005D01*
X138771418Y-59268152D01*
X138771416Y-59268152D01*
X138771413Y-59268153D01*
X138762203Y-59271645D01*
X138740604Y-59277666D01*
X138730917Y-59279441D01*
X138676864Y-59303768D01*
X138669950Y-59306632D01*
X138614515Y-59327656D01*
X138606409Y-59333252D01*
X138586875Y-59344269D01*
X138581695Y-59346601D01*
X138577894Y-59348312D01*
X138531243Y-59384861D01*
X138525212Y-59389298D01*
X138476415Y-59422980D01*
X138437104Y-59467352D01*
X138431972Y-59472804D01*
X136733089Y-61171688D01*
X136704576Y-61192980D01*
X136671189Y-61205297D01*
X136499197Y-61241855D01*
X136326272Y-61318847D01*
X136230654Y-61388318D01*
X136196086Y-61405931D01*
X136157768Y-61412000D01*
X133560583Y-61412000D01*
X133513130Y-61402561D01*
X133472902Y-61375681D01*
X132500081Y-60402860D01*
X132475841Y-60368561D01*
X132464441Y-60328138D01*
X132457674Y-60263742D01*
X132399179Y-60083715D01*
X132304533Y-59919783D01*
X132286694Y-59899971D01*
X132258527Y-59846997D01*
X132258528Y-59787000D01*
X132286694Y-59734027D01*
X132304533Y-59714216D01*
X132399179Y-59550284D01*
X132457674Y-59370256D01*
X132477460Y-59182000D01*
X132457674Y-58993744D01*
X132399179Y-58813716D01*
X132399179Y-58813715D01*
X132304533Y-58649783D01*
X132177870Y-58509110D01*
X132024730Y-58397848D01*
X131851802Y-58320855D01*
X131666648Y-58281500D01*
X131666646Y-58281500D01*
X131477354Y-58281500D01*
X131477352Y-58281500D01*
X131292197Y-58320855D01*
X131119272Y-58397847D01*
X131023654Y-58467318D01*
X130989086Y-58484931D01*
X130950768Y-58491000D01*
X130834637Y-58491000D01*
X130827149Y-58490774D01*
X130767972Y-58487194D01*
X130767971Y-58487194D01*
X130709650Y-58497881D01*
X130702248Y-58499008D01*
X130643415Y-58506152D01*
X130634219Y-58509640D01*
X130612607Y-58515665D01*
X130602918Y-58517440D01*
X130548854Y-58541772D01*
X130541939Y-58544636D01*
X130486515Y-58565656D01*
X130478409Y-58571252D01*
X130458875Y-58582269D01*
X130449895Y-58586312D01*
X130449893Y-58586313D01*
X130449894Y-58586313D01*
X130403239Y-58622864D01*
X130397208Y-58627301D01*
X130348417Y-58660979D01*
X130309098Y-58705360D01*
X130303965Y-58710812D01*
X129703804Y-59310972D01*
X129698352Y-59316104D01*
X129653980Y-59355415D01*
X129620298Y-59404212D01*
X129615861Y-59410243D01*
X129579312Y-59456894D01*
X129579312Y-59456895D01*
X129575269Y-59465875D01*
X129564252Y-59485409D01*
X129558656Y-59493515D01*
X129537632Y-59548950D01*
X129534768Y-59555864D01*
X129510441Y-59609917D01*
X129508666Y-59619604D01*
X129502645Y-59641203D01*
X129499153Y-59650413D01*
X129492006Y-59709266D01*
X129490879Y-59716668D01*
X129480195Y-59774971D01*
X129483774Y-59834139D01*
X129484000Y-59841626D01*
X129484000Y-60681374D01*
X129483774Y-60688861D01*
X129480195Y-60748029D01*
X129490879Y-60806332D01*
X129492006Y-60813735D01*
X129499152Y-60872583D01*
X129502643Y-60881788D01*
X129508668Y-60903400D01*
X129510442Y-60913083D01*
X129534772Y-60967143D01*
X129537630Y-60974044D01*
X129540834Y-60982491D01*
X129558656Y-61029482D01*
X129564249Y-61037585D01*
X129575273Y-61057132D01*
X129579311Y-61066104D01*
X129615863Y-61112759D01*
X129620303Y-61118793D01*
X129653979Y-61167582D01*
X129698352Y-61206893D01*
X129703805Y-61212027D01*
X132617908Y-64126130D01*
X135451598Y-66959819D01*
X135481848Y-67009182D01*
X135486390Y-67066898D01*
X135464235Y-67120385D01*
X135420212Y-67157985D01*
X135363917Y-67171500D01*
X135287352Y-67171500D01*
X135102197Y-67210855D01*
X134929269Y-67287848D01*
X134776129Y-67399110D01*
X134649466Y-67539783D01*
X134554820Y-67703715D01*
X134496326Y-67883742D01*
X134476540Y-68072000D01*
X134496326Y-68260257D01*
X134554820Y-68440284D01*
X134649466Y-68604216D01*
X134776129Y-68744889D01*
X134929269Y-68856151D01*
X135102197Y-68933144D01*
X135287352Y-68972500D01*
X135287354Y-68972500D01*
X135476646Y-68972500D01*
X135476648Y-68972500D01*
X135668649Y-68931689D01*
X135709789Y-68922565D01*
X135758409Y-68931574D01*
X135799643Y-68958865D01*
X137566097Y-70725319D01*
X137596347Y-70774682D01*
X137600889Y-70832398D01*
X137578734Y-70885885D01*
X137534711Y-70923485D01*
X137478416Y-70937000D01*
X134390626Y-70937000D01*
X134383139Y-70936774D01*
X134375103Y-70936287D01*
X134323972Y-70933195D01*
X134323971Y-70933195D01*
X134265668Y-70943879D01*
X134258266Y-70945005D01*
X134199418Y-70952152D01*
X134199416Y-70952152D01*
X134199413Y-70952153D01*
X134190206Y-70955644D01*
X134168603Y-70961667D01*
X134158915Y-70963442D01*
X134143066Y-70970576D01*
X134092175Y-70981500D01*
X134017352Y-70981500D01*
X133832197Y-71020855D01*
X133659269Y-71097848D01*
X133506129Y-71209110D01*
X133379466Y-71349783D01*
X133284820Y-71513715D01*
X133226326Y-71693742D01*
X133206540Y-71882000D01*
X133226326Y-72070257D01*
X133284820Y-72250284D01*
X133379466Y-72414216D01*
X133506129Y-72554889D01*
X133659269Y-72666151D01*
X133832197Y-72743144D01*
X134017352Y-72782500D01*
X134017354Y-72782500D01*
X134206646Y-72782500D01*
X134206648Y-72782500D01*
X134330083Y-72756262D01*
X134391803Y-72743144D01*
X134564730Y-72666151D01*
X134717871Y-72554888D01*
X134844533Y-72414216D01*
X134853017Y-72399519D01*
X134863711Y-72381000D01*
X134909098Y-72335613D01*
X134971098Y-72319000D01*
X138405374Y-72319000D01*
X138412861Y-72319226D01*
X138472028Y-72322805D01*
X138472028Y-72322804D01*
X138472030Y-72322805D01*
X138530336Y-72312119D01*
X138537725Y-72310994D01*
X138596582Y-72303848D01*
X138605790Y-72300355D01*
X138627395Y-72294332D01*
X138637085Y-72292557D01*
X138652933Y-72285424D01*
X138703824Y-72274500D01*
X138778648Y-72274500D01*
X138859219Y-72257374D01*
X138913947Y-72258090D01*
X138963036Y-72282298D01*
X138996921Y-72325281D01*
X139009000Y-72378664D01*
X139009000Y-73061032D01*
X139008774Y-73068519D01*
X139005195Y-73127687D01*
X139015879Y-73185990D01*
X139017006Y-73193393D01*
X139024152Y-73252241D01*
X139027643Y-73261446D01*
X139033668Y-73283058D01*
X139035442Y-73292741D01*
X139059772Y-73346801D01*
X139062630Y-73353702D01*
X139083656Y-73409140D01*
X139089249Y-73417243D01*
X139100273Y-73436790D01*
X139104311Y-73445762D01*
X139140863Y-73492417D01*
X139145303Y-73498451D01*
X139178979Y-73547240D01*
X139223352Y-73586551D01*
X139228805Y-73591685D01*
X142442925Y-76805804D01*
X142475019Y-76861391D01*
X142490097Y-76917664D01*
X142512853Y-76966464D01*
X142589965Y-77131830D01*
X142725505Y-77325401D01*
X142892599Y-77492495D01*
X143078160Y-77622426D01*
X143117024Y-77666743D01*
X143131035Y-77724000D01*
X143117024Y-77781257D01*
X143078158Y-77825575D01*
X142908385Y-77944452D01*
X142892595Y-77955508D01*
X142725505Y-78122598D01*
X142694936Y-78166256D01*
X142647249Y-78234361D01*
X142636212Y-78250123D01*
X142591894Y-78288989D01*
X142534637Y-78303000D01*
X138979796Y-78303000D01*
X138962626Y-78303000D01*
X138955139Y-78302774D01*
X138925299Y-78300969D01*
X138895972Y-78299195D01*
X138895971Y-78299195D01*
X138886292Y-78300969D01*
X138863940Y-78303000D01*
X138513584Y-78303000D01*
X138466131Y-78293561D01*
X138425903Y-78266681D01*
X135634027Y-75474805D01*
X135628893Y-75469352D01*
X135589582Y-75424979D01*
X135540793Y-75391303D01*
X135534759Y-75386863D01*
X135488104Y-75350311D01*
X135479132Y-75346273D01*
X135459585Y-75335249D01*
X135451482Y-75329656D01*
X135435817Y-75323715D01*
X135396044Y-75308630D01*
X135389143Y-75305772D01*
X135389134Y-75305768D01*
X135335085Y-75281443D01*
X135335083Y-75281442D01*
X135327021Y-75279965D01*
X135325398Y-75279667D01*
X135303788Y-75273643D01*
X135294583Y-75270152D01*
X135235735Y-75263006D01*
X135228332Y-75261879D01*
X135170029Y-75251195D01*
X135170028Y-75251195D01*
X135118896Y-75254287D01*
X135110861Y-75254774D01*
X135103374Y-75255000D01*
X122452626Y-75255000D01*
X122445139Y-75254774D01*
X122437103Y-75254287D01*
X122385972Y-75251195D01*
X122385971Y-75251195D01*
X122327668Y-75261879D01*
X122320266Y-75263005D01*
X122261418Y-75270152D01*
X122261416Y-75270152D01*
X122261413Y-75270153D01*
X122252203Y-75273645D01*
X122230604Y-75279666D01*
X122220917Y-75281441D01*
X122166864Y-75305768D01*
X122159950Y-75308632D01*
X122104515Y-75329656D01*
X122096409Y-75335252D01*
X122076875Y-75346269D01*
X122067895Y-75350312D01*
X122067893Y-75350313D01*
X122067894Y-75350313D01*
X122021239Y-75386864D01*
X122015208Y-75391301D01*
X121966417Y-75424979D01*
X121927098Y-75469360D01*
X121921965Y-75474812D01*
X120674304Y-76722472D01*
X120668852Y-76727604D01*
X120624480Y-76766915D01*
X120590803Y-76815705D01*
X120586364Y-76821739D01*
X120574076Y-76837423D01*
X120564147Y-76848629D01*
X120301596Y-77111181D01*
X120261368Y-77138061D01*
X120213915Y-77147500D01*
X119959083Y-77147500D01*
X119911630Y-77138061D01*
X119871402Y-77111181D01*
X119063130Y-76302909D01*
X118240144Y-75479922D01*
X118209894Y-75430558D01*
X118175179Y-75323716D01*
X118080533Y-75159783D01*
X117953870Y-75019110D01*
X117800730Y-74907848D01*
X117627802Y-74830855D01*
X117442648Y-74791500D01*
X117442646Y-74791500D01*
X117253354Y-74791500D01*
X117253352Y-74791500D01*
X117068197Y-74830855D01*
X116895269Y-74907848D01*
X116742129Y-75019110D01*
X116615466Y-75159783D01*
X116520820Y-75323715D01*
X116462326Y-75503742D01*
X116442540Y-75692000D01*
X116462326Y-75880257D01*
X116520820Y-76060284D01*
X116549813Y-76110500D01*
X116566426Y-76172499D01*
X116549814Y-76234498D01*
X116504428Y-76279886D01*
X116442429Y-76296500D01*
X116412131Y-76296500D01*
X116352515Y-76302909D01*
X116217669Y-76353204D01*
X116102454Y-76439454D01*
X116016204Y-76554668D01*
X115965909Y-76689516D01*
X115961951Y-76726332D01*
X115935903Y-76790018D01*
X115879914Y-76830014D01*
X115811223Y-76834003D01*
X115750980Y-76800758D01*
X115027319Y-76077097D01*
X115000439Y-76036869D01*
X114991000Y-75989416D01*
X114991000Y-70094942D01*
X114999236Y-70050503D01*
X115022849Y-70011970D01*
X115032533Y-70001216D01*
X115127179Y-69837284D01*
X115185674Y-69657256D01*
X115205460Y-69469000D01*
X115185674Y-69280744D01*
X115127179Y-69100716D01*
X115116746Y-69082645D01*
X115100210Y-69016318D01*
X115121334Y-68951306D01*
X115173697Y-68907367D01*
X115288730Y-68856151D01*
X115288730Y-68856150D01*
X115288732Y-68856150D01*
X115441870Y-68744889D01*
X115443666Y-68742895D01*
X115568533Y-68604216D01*
X115663179Y-68440284D01*
X115721674Y-68260256D01*
X115741460Y-68072000D01*
X115721674Y-67883744D01*
X115663179Y-67703716D01*
X115663179Y-67703715D01*
X115568533Y-67539783D01*
X115441870Y-67399110D01*
X115288730Y-67287848D01*
X115115802Y-67210855D01*
X114930648Y-67171500D01*
X114930646Y-67171500D01*
X114741354Y-67171500D01*
X114741352Y-67171500D01*
X114556197Y-67210855D01*
X114383272Y-67287847D01*
X114287654Y-67357318D01*
X114253086Y-67374931D01*
X114214768Y-67381000D01*
X109244626Y-67381000D01*
X109237139Y-67380774D01*
X109229103Y-67380287D01*
X109177972Y-67377195D01*
X109177971Y-67377195D01*
X109119668Y-67387879D01*
X109112266Y-67389005D01*
X109053418Y-67396152D01*
X109053416Y-67396152D01*
X109053413Y-67396153D01*
X109044203Y-67399645D01*
X109022604Y-67405666D01*
X109012916Y-67407441D01*
X108958865Y-67431768D01*
X108951956Y-67434630D01*
X108912914Y-67449437D01*
X108896515Y-67455657D01*
X108888415Y-67461248D01*
X108868876Y-67472268D01*
X108859897Y-67476309D01*
X108813237Y-67512863D01*
X108807211Y-67517297D01*
X108758418Y-67550979D01*
X108719105Y-67595352D01*
X108713973Y-67600803D01*
X107717804Y-68596972D01*
X107712352Y-68602104D01*
X107667980Y-68641415D01*
X107634298Y-68690212D01*
X107629861Y-68696243D01*
X107593312Y-68742894D01*
X107591601Y-68746695D01*
X107589269Y-68751875D01*
X107578252Y-68771409D01*
X107572656Y-68779515D01*
X107551632Y-68834950D01*
X107548768Y-68841864D01*
X107524441Y-68895917D01*
X107522666Y-68905604D01*
X107516645Y-68927203D01*
X107513153Y-68936413D01*
X107506006Y-68995266D01*
X107504879Y-69002669D01*
X107495044Y-69056336D01*
X107477432Y-69100959D01*
X107444200Y-69135557D01*
X107401486Y-69165466D01*
X107250468Y-69316483D01*
X107127979Y-69491417D01*
X107037724Y-69684968D01*
X106982450Y-69891255D01*
X106963837Y-70104000D01*
X102743500Y-70104000D01*
X102743500Y-66183660D01*
X123289391Y-66183660D01*
X123303196Y-66192335D01*
X123473359Y-66251877D01*
X123652500Y-66272062D01*
X123831640Y-66251877D01*
X124001803Y-66192335D01*
X124015607Y-66183661D01*
X124015607Y-66183660D01*
X124814391Y-66183660D01*
X124828196Y-66192335D01*
X124998359Y-66251877D01*
X125177500Y-66272062D01*
X125356640Y-66251877D01*
X125526803Y-66192335D01*
X125540607Y-66183661D01*
X125540607Y-66183660D01*
X125177501Y-65820553D01*
X125177500Y-65820553D01*
X124814391Y-66183660D01*
X124015607Y-66183660D01*
X123652501Y-65820553D01*
X123652500Y-65820553D01*
X123289391Y-66183660D01*
X102743500Y-66183660D01*
X102743500Y-65421160D01*
X122526891Y-65421160D01*
X122540696Y-65429835D01*
X122710855Y-65489376D01*
X122753480Y-65494178D01*
X122805569Y-65512404D01*
X122844592Y-65551425D01*
X122862819Y-65603514D01*
X122867622Y-65646140D01*
X122927165Y-65816304D01*
X122935838Y-65830108D01*
X123298947Y-65467001D01*
X123298947Y-65467000D01*
X124006053Y-65467000D01*
X124369160Y-65830107D01*
X124401121Y-65826507D01*
X124428887Y-65826508D01*
X124460838Y-65830108D01*
X124823947Y-65467001D01*
X124823947Y-65467000D01*
X125531053Y-65467000D01*
X125894160Y-65830107D01*
X125894161Y-65830107D01*
X125902835Y-65816303D01*
X125962376Y-65646144D01*
X125967178Y-65603518D01*
X125985405Y-65551428D01*
X126024428Y-65512405D01*
X126076518Y-65494178D01*
X126119144Y-65489376D01*
X126289303Y-65429835D01*
X126303107Y-65421161D01*
X126303107Y-65421160D01*
X125940000Y-65058053D01*
X125531053Y-65467000D01*
X124823947Y-65467000D01*
X124415000Y-65058053D01*
X124006053Y-65467000D01*
X123298947Y-65467000D01*
X122890001Y-65058053D01*
X122890000Y-65058053D01*
X122526891Y-65421160D01*
X102743500Y-65421160D01*
X102743500Y-64704500D01*
X122084937Y-64704500D01*
X122105122Y-64883640D01*
X122164665Y-65053804D01*
X122173338Y-65067608D01*
X122536447Y-64704501D01*
X122536447Y-64704500D01*
X123243553Y-64704500D01*
X123652500Y-65113447D01*
X124061447Y-64704500D01*
X124768553Y-64704500D01*
X125177500Y-65113447D01*
X125586446Y-64704501D01*
X126293553Y-64704501D01*
X126656660Y-65067607D01*
X126656661Y-65067607D01*
X126665335Y-65053803D01*
X126724877Y-64883640D01*
X126745062Y-64704500D01*
X126724877Y-64525359D01*
X126665335Y-64355196D01*
X126656660Y-64341391D01*
X126293553Y-64704500D01*
X126293553Y-64704501D01*
X125586446Y-64704501D01*
X125586447Y-64704500D01*
X125177500Y-64295553D01*
X124768553Y-64704500D01*
X124061447Y-64704500D01*
X123652500Y-64295553D01*
X123243553Y-64704500D01*
X122536447Y-64704500D01*
X122173338Y-64341390D01*
X122173338Y-64341391D01*
X122164664Y-64355196D01*
X122105122Y-64525359D01*
X122084937Y-64704500D01*
X102743500Y-64704500D01*
X102743500Y-63987838D01*
X122526890Y-63987838D01*
X122889999Y-64350947D01*
X123298947Y-63942000D01*
X124006053Y-63942000D01*
X124415000Y-64350947D01*
X124823947Y-63942000D01*
X125531053Y-63942000D01*
X125940000Y-64350947D01*
X125940001Y-64350947D01*
X126303108Y-63987838D01*
X126299508Y-63955884D01*
X126299507Y-63928119D01*
X126303107Y-63896160D01*
X125940000Y-63533053D01*
X125531053Y-63942000D01*
X124823947Y-63942000D01*
X124415000Y-63533053D01*
X124006053Y-63942000D01*
X123298947Y-63942000D01*
X122890001Y-63533053D01*
X122890000Y-63533053D01*
X122526890Y-63896161D01*
X122530491Y-63928123D01*
X122530491Y-63955892D01*
X122526890Y-63987838D01*
X102743500Y-63987838D01*
X102743500Y-63179500D01*
X122084937Y-63179500D01*
X122105122Y-63358640D01*
X122164665Y-63528804D01*
X122173338Y-63542608D01*
X122536447Y-63179501D01*
X122536447Y-63179500D01*
X123243553Y-63179500D01*
X123652500Y-63588447D01*
X124061447Y-63179500D01*
X124768553Y-63179500D01*
X125177500Y-63588447D01*
X125586446Y-63179501D01*
X126293553Y-63179501D01*
X126656660Y-63542607D01*
X126656661Y-63542607D01*
X126665335Y-63528803D01*
X126724877Y-63358640D01*
X126745062Y-63179500D01*
X126724877Y-63000359D01*
X126665335Y-62830196D01*
X126656660Y-62816391D01*
X126293553Y-63179500D01*
X126293553Y-63179501D01*
X125586446Y-63179501D01*
X125586447Y-63179500D01*
X125177500Y-62770553D01*
X124768553Y-63179500D01*
X124061447Y-63179500D01*
X123652500Y-62770553D01*
X123243553Y-63179500D01*
X122536447Y-63179500D01*
X122173338Y-62816390D01*
X122173338Y-62816391D01*
X122164664Y-62830196D01*
X122105122Y-63000359D01*
X122084937Y-63179500D01*
X102743500Y-63179500D01*
X102743500Y-62462838D01*
X122526890Y-62462838D01*
X122889999Y-62825947D01*
X123298946Y-62417001D01*
X124006053Y-62417001D01*
X124414999Y-62825947D01*
X124823947Y-62417000D01*
X125531053Y-62417000D01*
X125940000Y-62825947D01*
X125940001Y-62825947D01*
X126303108Y-62462838D01*
X126289304Y-62454165D01*
X126119140Y-62394622D01*
X126076514Y-62389819D01*
X126024425Y-62371592D01*
X125985404Y-62332569D01*
X125967178Y-62280480D01*
X125962376Y-62237855D01*
X125902835Y-62067696D01*
X125894160Y-62053891D01*
X125531053Y-62417000D01*
X124823947Y-62417000D01*
X124460838Y-62053890D01*
X124428892Y-62057491D01*
X124401123Y-62057491D01*
X124369161Y-62053890D01*
X124006053Y-62417000D01*
X124006053Y-62417001D01*
X123298946Y-62417001D01*
X123298947Y-62417000D01*
X122935838Y-62053890D01*
X122935838Y-62053891D01*
X122927164Y-62067696D01*
X122867622Y-62237859D01*
X122862819Y-62280485D01*
X122844592Y-62332572D01*
X122805572Y-62371592D01*
X122753485Y-62389819D01*
X122710859Y-62394622D01*
X122540696Y-62454164D01*
X122526891Y-62462838D01*
X122526890Y-62462838D01*
X102743500Y-62462838D01*
X102743500Y-61700338D01*
X123289390Y-61700338D01*
X123652500Y-62063447D01*
X123652501Y-62063447D01*
X124015608Y-61700338D01*
X124814390Y-61700338D01*
X125177500Y-62063447D01*
X125177501Y-62063447D01*
X125540608Y-61700338D01*
X125526804Y-61691665D01*
X125356640Y-61632122D01*
X125177500Y-61611937D01*
X124998359Y-61632122D01*
X124828196Y-61691664D01*
X124814391Y-61700338D01*
X124814390Y-61700338D01*
X124015608Y-61700338D01*
X124001804Y-61691665D01*
X123831640Y-61632122D01*
X123652500Y-61611937D01*
X123473359Y-61632122D01*
X123303196Y-61691664D01*
X123289391Y-61700338D01*
X123289390Y-61700338D01*
X102743500Y-61700338D01*
X102743500Y-57154000D01*
X142433364Y-57154000D01*
X143514000Y-57154000D01*
X143514000Y-56073364D01*
X144014000Y-56073364D01*
X144014000Y-57154000D01*
X145094636Y-57154000D01*
X145094635Y-57153999D01*
X145037430Y-56940507D01*
X144937599Y-56726421D01*
X144802109Y-56532921D01*
X144635081Y-56365893D01*
X144441576Y-56230399D01*
X144227492Y-56130569D01*
X144014000Y-56073364D01*
X143514000Y-56073364D01*
X143513999Y-56073364D01*
X143300507Y-56130569D01*
X143086421Y-56230400D01*
X142892921Y-56365890D01*
X142725890Y-56532921D01*
X142590400Y-56726421D01*
X142490569Y-56940507D01*
X142433364Y-57153999D01*
X142433364Y-57154000D01*
X102743500Y-57154000D01*
X102743500Y-55176000D01*
X102760113Y-55114000D01*
X102805500Y-55068613D01*
X102867500Y-55052000D01*
X148846500Y-55052000D01*
X148908500Y-55068613D01*
G37*
%TD.AperFunction*%
%TD*%
M02*
