%TF.GenerationSoftware,KiCad,Pcbnew,7.0.1*%
%TF.CreationDate,2023-04-21T09:55:58+02:00*%
%TF.ProjectId,hond,686f6e64-2e6b-4696-9361-645f70636258,rev?*%
%TF.SameCoordinates,Original*%
%TF.FileFunction,Copper,L1,Top*%
%TF.FilePolarity,Positive*%
%FSLAX46Y46*%
G04 Gerber Fmt 4.6, Leading zero omitted, Abs format (unit mm)*
G04 Created by KiCad (PCBNEW 7.0.1) date 2023-04-21 09:55:58*
%MOMM*%
%LPD*%
G01*
G04 APERTURE LIST*
G04 Aperture macros list*
%AMRoundRect*
0 Rectangle with rounded corners*
0 $1 Rounding radius*
0 $2 $3 $4 $5 $6 $7 $8 $9 X,Y pos of 4 corners*
0 Add a 4 corners polygon primitive as box body*
4,1,4,$2,$3,$4,$5,$6,$7,$8,$9,$2,$3,0*
0 Add four circle primitives for the rounded corners*
1,1,$1+$1,$2,$3*
1,1,$1+$1,$4,$5*
1,1,$1+$1,$6,$7*
1,1,$1+$1,$8,$9*
0 Add four rect primitives between the rounded corners*
20,1,$1+$1,$2,$3,$4,$5,0*
20,1,$1+$1,$4,$5,$6,$7,0*
20,1,$1+$1,$6,$7,$8,$9,0*
20,1,$1+$1,$8,$9,$2,$3,0*%
G04 Aperture macros list end*
%TA.AperFunction,SMDPad,CuDef*%
%ADD10RoundRect,0.250000X0.475000X-0.337500X0.475000X0.337500X-0.475000X0.337500X-0.475000X-0.337500X0*%
%TD*%
%TA.AperFunction,ComponentPad*%
%ADD11R,1.700000X1.700000*%
%TD*%
%TA.AperFunction,ComponentPad*%
%ADD12O,1.700000X1.700000*%
%TD*%
%TA.AperFunction,SMDPad,CuDef*%
%ADD13R,1.500000X0.900000*%
%TD*%
%TA.AperFunction,SMDPad,CuDef*%
%ADD14R,0.900000X1.500000*%
%TD*%
%TA.AperFunction,SMDPad,CuDef*%
%ADD15R,1.050000X1.050000*%
%TD*%
%TA.AperFunction,HeatsinkPad*%
%ADD16C,0.600000*%
%TD*%
%TA.AperFunction,SMDPad,CuDef*%
%ADD17R,4.200000X4.200000*%
%TD*%
%TA.AperFunction,SMDPad,CuDef*%
%ADD18RoundRect,0.250000X0.337500X0.475000X-0.337500X0.475000X-0.337500X-0.475000X0.337500X-0.475000X0*%
%TD*%
%TA.AperFunction,SMDPad,CuDef*%
%ADD19R,1.500000X2.000000*%
%TD*%
%TA.AperFunction,SMDPad,CuDef*%
%ADD20R,3.800000X2.000000*%
%TD*%
%TA.AperFunction,SMDPad,CuDef*%
%ADD21RoundRect,0.250000X-0.337500X-0.475000X0.337500X-0.475000X0.337500X0.475000X-0.337500X0.475000X0*%
%TD*%
%TA.AperFunction,SMDPad,CuDef*%
%ADD22RoundRect,0.250000X-0.350000X-0.450000X0.350000X-0.450000X0.350000X0.450000X-0.350000X0.450000X0*%
%TD*%
%TA.AperFunction,SMDPad,CuDef*%
%ADD23RoundRect,0.125000X-0.600000X-0.125000X0.600000X-0.125000X0.600000X0.125000X-0.600000X0.125000X0*%
%TD*%
%TA.AperFunction,SMDPad,CuDef*%
%ADD24R,1.570000X1.890000*%
%TD*%
%TA.AperFunction,SMDPad,CuDef*%
%ADD25RoundRect,0.250000X0.350000X0.450000X-0.350000X0.450000X-0.350000X-0.450000X0.350000X-0.450000X0*%
%TD*%
%TA.AperFunction,SMDPad,CuDef*%
%ADD26RoundRect,0.250000X0.450000X-0.350000X0.450000X0.350000X-0.450000X0.350000X-0.450000X-0.350000X0*%
%TD*%
%TA.AperFunction,ComponentPad*%
%ADD27R,3.000000X3.000000*%
%TD*%
%TA.AperFunction,ComponentPad*%
%ADD28C,3.000000*%
%TD*%
%TA.AperFunction,SMDPad,CuDef*%
%ADD29RoundRect,0.250000X-0.475000X0.337500X-0.475000X-0.337500X0.475000X-0.337500X0.475000X0.337500X0*%
%TD*%
%TA.AperFunction,ComponentPad*%
%ADD30C,1.440000*%
%TD*%
%TA.AperFunction,ViaPad*%
%ADD31C,0.800000*%
%TD*%
%TA.AperFunction,Conductor*%
%ADD32C,0.381000*%
%TD*%
G04 APERTURE END LIST*
D10*
%TO.P,C1,1*%
%TO.N,+3.3V*%
X108966000Y-58441500D03*
%TO.P,C1,2*%
%TO.N,GND*%
X108966000Y-56366500D03*
%TD*%
D11*
%TO.P,J4,1,Pin_1*%
%TO.N,Net-(J4-Pin_1)*%
X143251000Y-85852000D03*
D12*
%TO.P,J4,2,Pin_2*%
%TO.N,GND*%
X145791000Y-85852000D03*
%TD*%
D11*
%TO.P,J3,1,Pin_1*%
%TO.N,GPIO21*%
X143764000Y-68834000D03*
D12*
%TO.P,J3,2,Pin_2*%
%TO.N,GPIO22*%
X143764000Y-71374000D03*
%TO.P,J3,3,Pin_3*%
%TO.N,GPIO4*%
X143764000Y-73914000D03*
%TO.P,J3,4,Pin_4*%
%TO.N,GPIO5*%
X143764000Y-76454000D03*
%TO.P,J3,5,Pin_5*%
%TO.N,+3.3V*%
X143764000Y-78994000D03*
%TO.P,J3,6,Pin_6*%
%TO.N,GND*%
X143764000Y-81534000D03*
%TD*%
D11*
%TO.P,J1,1,Pin_1*%
%TO.N,+3.3V*%
X143764000Y-65024000D03*
D12*
%TO.P,J1,2,Pin_2*%
%TO.N,RX0*%
X143764000Y-62484000D03*
%TO.P,J1,3,Pin_3*%
%TO.N,TX0*%
X143764000Y-59944000D03*
%TO.P,J1,4,Pin_4*%
%TO.N,GND*%
X143764000Y-57404000D03*
%TD*%
D13*
%TO.P,U1,1,GND*%
%TO.N,GND*%
X116345000Y-56602000D03*
%TO.P,U1,2,VDD*%
%TO.N,+3.3V*%
X116345000Y-57872000D03*
%TO.P,U1,3,EN*%
%TO.N,/EN*%
X116345000Y-59142000D03*
%TO.P,U1,4,SENSOR_VP*%
%TO.N,unconnected-(U1-SENSOR_VP-Pad4)*%
X116345000Y-60412000D03*
%TO.P,U1,5,SENSOR_VN*%
%TO.N,unconnected-(U1-SENSOR_VN-Pad5)*%
X116345000Y-61682000D03*
%TO.P,U1,6,IO34*%
%TO.N,unconnected-(U1-IO34-Pad6)*%
X116345000Y-62952000D03*
%TO.P,U1,7,IO35*%
%TO.N,unconnected-(U1-IO35-Pad7)*%
X116345000Y-64222000D03*
%TO.P,U1,8,IO32*%
%TO.N,unconnected-(U1-IO32-Pad8)*%
X116345000Y-65492000D03*
%TO.P,U1,9,IO33*%
%TO.N,unconnected-(U1-IO33-Pad9)*%
X116345000Y-66762000D03*
%TO.P,U1,10,IO25*%
%TO.N,A8*%
X116345000Y-68032000D03*
%TO.P,U1,11,IO26*%
%TO.N,unconnected-(U1-IO26-Pad11)*%
X116345000Y-69302000D03*
%TO.P,U1,12,IO27*%
%TO.N,unconnected-(U1-IO27-Pad12)*%
X116345000Y-70572000D03*
%TO.P,U1,13,IO14*%
%TO.N,unconnected-(U1-IO14-Pad13)*%
X116345000Y-71842000D03*
%TO.P,U1,14,IO12*%
%TO.N,unconnected-(U1-IO12-Pad14)*%
X116345000Y-73112000D03*
D14*
%TO.P,U1,15,GND*%
%TO.N,GND*%
X119385000Y-74362000D03*
%TO.P,U1,16,IO13*%
%TO.N,unconnected-(U1-IO13-Pad16)*%
X120655000Y-74362000D03*
%TO.P,U1,17,SHD/SD2*%
%TO.N,unconnected-(U1-SHD{slash}SD2-Pad17)*%
X121925000Y-74362000D03*
%TO.P,U1,18,SWP/SD3*%
%TO.N,unconnected-(U1-SWP{slash}SD3-Pad18)*%
X123195000Y-74362000D03*
%TO.P,U1,19,SCS/CMD*%
%TO.N,unconnected-(U1-SCS{slash}CMD-Pad19)*%
X124465000Y-74362000D03*
%TO.P,U1,20,SCK/CLK*%
%TO.N,unconnected-(U1-SCK{slash}CLK-Pad20)*%
X125735000Y-74362000D03*
%TO.P,U1,21,SDO/SD0*%
%TO.N,unconnected-(U1-SDO{slash}SD0-Pad21)*%
X127005000Y-74362000D03*
%TO.P,U1,22,SDI/SD1*%
%TO.N,unconnected-(U1-SDI{slash}SD1-Pad22)*%
X128275000Y-74362000D03*
%TO.P,U1,23,IO15*%
%TO.N,unconnected-(U1-IO15-Pad23)*%
X129545000Y-74362000D03*
%TO.P,U1,24,IO2*%
%TO.N,GPIO2*%
X130815000Y-74362000D03*
D13*
%TO.P,U1,25,IO0*%
%TO.N,GPIO0*%
X133845000Y-73112000D03*
%TO.P,U1,26,IO4*%
%TO.N,GPIO4*%
X133845000Y-71842000D03*
%TO.P,U1,27,IO16*%
%TO.N,unconnected-(U1-IO16-Pad27)*%
X133845000Y-70572000D03*
%TO.P,U1,28,IO17*%
%TO.N,unconnected-(U1-IO17-Pad28)*%
X133845000Y-69302000D03*
%TO.P,U1,29,IO5*%
%TO.N,GPIO5*%
X133845000Y-68032000D03*
%TO.P,U1,30,IO18*%
%TO.N,unconnected-(U1-IO18-Pad30)*%
X133845000Y-66762000D03*
%TO.P,U1,31,IO19*%
%TO.N,unconnected-(U1-IO19-Pad31)*%
X133845000Y-65492000D03*
%TO.P,U1,32,NC*%
%TO.N,unconnected-(U1-NC-Pad32)*%
X133845000Y-64222000D03*
%TO.P,U1,33,IO21*%
%TO.N,GPIO21*%
X133845000Y-62952000D03*
%TO.P,U1,34,RXD0/IO3*%
%TO.N,RX0*%
X133845000Y-61682000D03*
%TO.P,U1,35,TXD0/IO1*%
%TO.N,TX0*%
X133845000Y-60412000D03*
%TO.P,U1,36,IO22*%
%TO.N,GPIO22*%
X133845000Y-59142000D03*
%TO.P,U1,37,IO23*%
%TO.N,unconnected-(U1-IO23-Pad37)*%
X133845000Y-57872000D03*
%TO.P,U1,38,GND*%
%TO.N,GND*%
X133845000Y-56602000D03*
D15*
%TO.P,U1,39,GND*%
X122890000Y-62417000D03*
D16*
X122890000Y-63179500D03*
D15*
X122890000Y-63942000D03*
D16*
X122890000Y-64704500D03*
D15*
X122890000Y-65467000D03*
D16*
X123652500Y-62417000D03*
X123652500Y-63942000D03*
X123652500Y-65467000D03*
D15*
X124415000Y-62417000D03*
D16*
X124415000Y-63179500D03*
D15*
X124415000Y-63942000D03*
D17*
X124415000Y-63942000D03*
D16*
X124415000Y-64704500D03*
D15*
X124415000Y-65467000D03*
D16*
X125177500Y-62417000D03*
X125177500Y-63942000D03*
X125177500Y-65467000D03*
D15*
X125940000Y-62417000D03*
D16*
X125940000Y-63179500D03*
D15*
X125940000Y-63942000D03*
D16*
X125940000Y-64704500D03*
D15*
X125940000Y-65467000D03*
%TD*%
D18*
%TO.P,C2,1*%
%TO.N,VDD*%
X121179500Y-84836000D03*
%TO.P,C2,2*%
%TO.N,GND*%
X119104500Y-84836000D03*
%TD*%
D19*
%TO.P,U3,1,GND*%
%TO.N,GND*%
X134352000Y-84176000D03*
%TO.P,U3,2,VO*%
%TO.N,+3.3V*%
X136652000Y-84176000D03*
D20*
X136652000Y-77876000D03*
D19*
%TO.P,U3,3,VI*%
%TO.N,VDD*%
X138952000Y-84176000D03*
%TD*%
D21*
%TO.P,C6,1*%
%TO.N,Net-(C5-Pad1)*%
X125835500Y-81788000D03*
%TO.P,C6,2*%
%TO.N,Net-(C6-Pad2)*%
X127910500Y-81788000D03*
%TD*%
D22*
%TO.P,R1,1*%
%TO.N,+3.3V*%
X110760000Y-63627000D03*
%TO.P,R1,2*%
%TO.N,/EN*%
X112760000Y-63627000D03*
%TD*%
D23*
%TO.P,U4,1,GAIN*%
%TO.N,Net-(C7-Pad1)*%
X117620000Y-80772000D03*
%TO.P,U4,2,-*%
%TO.N,GND*%
X117620000Y-81422000D03*
%TO.P,U4,3,+*%
%TO.N,Net-(U4-+)*%
X117620000Y-82072000D03*
%TO.P,U4,4,GND*%
%TO.N,GND*%
X117620000Y-82722000D03*
%TO.P,U4,5*%
%TO.N,Net-(C5-Pad1)*%
X121920000Y-82722000D03*
%TO.P,U4,6,V+*%
%TO.N,VDD*%
X121920000Y-82072000D03*
%TO.P,U4,7,BYPASS*%
%TO.N,Net-(U4-BYPASS)*%
X121920000Y-81422000D03*
%TO.P,U4,8,GAIN*%
%TO.N,Net-(C7-Pad2)*%
X121920000Y-80772000D03*
D24*
%TO.P,U4,9*%
%TO.N,N/C*%
X119770000Y-81747000D03*
%TD*%
D25*
%TO.P,R2,1*%
%TO.N,+3.3V*%
X138795000Y-73152000D03*
%TO.P,R2,2*%
%TO.N,GPIO0*%
X136795000Y-73152000D03*
%TD*%
%TO.P,R5,1*%
%TO.N,+3.3V*%
X138795000Y-60452000D03*
%TO.P,R5,2*%
%TO.N,TX0*%
X136795000Y-60452000D03*
%TD*%
D26*
%TO.P,R10,1*%
%TO.N,GND*%
X130302000Y-84820000D03*
%TO.P,R10,2*%
%TO.N,Net-(C6-Pad2)*%
X130302000Y-82820000D03*
%TD*%
D25*
%TO.P,R6,1*%
%TO.N,+3.3V*%
X138795000Y-68072000D03*
%TO.P,R6,2*%
%TO.N,GPIO5*%
X136795000Y-68072000D03*
%TD*%
D27*
%TO.P,J5,1,Pin_1*%
%TO.N,VDD*%
X110998000Y-82296000D03*
D28*
%TO.P,J5,2,Pin_2*%
%TO.N,GND*%
X105918000Y-82296000D03*
%TD*%
D21*
%TO.P,C8,1*%
%TO.N,Net-(U4-BYPASS)*%
X125835500Y-78867000D03*
%TO.P,C8,2*%
%TO.N,GND*%
X127910500Y-78867000D03*
%TD*%
%TO.P,C7,1*%
%TO.N,Net-(C7-Pad1)*%
X119739500Y-77470000D03*
%TO.P,C7,2*%
%TO.N,Net-(C7-Pad2)*%
X121814500Y-77470000D03*
%TD*%
%TO.P,C5,1*%
%TO.N,Net-(C5-Pad1)*%
X125835500Y-84709000D03*
%TO.P,C5,2*%
%TO.N,Net-(J4-Pin_1)*%
X127910500Y-84709000D03*
%TD*%
D10*
%TO.P,C4,1*%
%TO.N,+3.3V*%
X111252000Y-58441500D03*
%TO.P,C4,2*%
%TO.N,GND*%
X111252000Y-56366500D03*
%TD*%
D29*
%TO.P,C3,1*%
%TO.N,GND*%
X113538000Y-56366500D03*
%TO.P,C3,2*%
%TO.N,+3.3V*%
X113538000Y-58441500D03*
%TD*%
D30*
%TO.P,P1,1,1*%
%TO.N,A8*%
X108189000Y-70104000D03*
%TO.P,P1,2,2*%
%TO.N,Net-(U4-+)*%
X105649000Y-72644000D03*
%TO.P,P1,3,3*%
%TO.N,GND*%
X108189000Y-75184000D03*
%TD*%
D31*
%TO.N,+3.3V*%
X117348000Y-75692000D03*
X136652000Y-84074000D03*
%TO.N,GND*%
X114554000Y-84328000D03*
X132842000Y-82042000D03*
X140970000Y-56896000D03*
X123952000Y-76962000D03*
X122936000Y-58420000D03*
X127254000Y-70104000D03*
X106426000Y-62738000D03*
X140081000Y-80137000D03*
%TO.N,GPIO2*%
X132080000Y-77978000D03*
%TO.N,TX0*%
X131572000Y-60452000D03*
X136779000Y-62103000D03*
%TO.N,/EN*%
X114300000Y-69469000D03*
%TO.N,GPIO0*%
X133096000Y-77132150D03*
%TO.N,GPIO5*%
X135382000Y-68072000D03*
%TO.N,Net-(J4-Pin_1)*%
X128016000Y-84836000D03*
%TO.N,A8*%
X114836000Y-68072000D03*
%TO.N,GPIO4*%
X134112000Y-71882000D03*
X138684000Y-71374000D03*
%TO.N,GPIO21*%
X135509000Y-62992000D03*
%TO.N,GPIO22*%
X131572000Y-59182000D03*
%TD*%
D32*
%TO.N,+3.3V*%
X142646000Y-77876000D02*
X143764000Y-78994000D01*
X136652000Y-77876000D02*
X142646000Y-77876000D01*
%TO.N,RX0*%
X135890000Y-58674000D02*
X139954000Y-58674000D01*
X135382000Y-59182000D02*
X135890000Y-58674000D01*
X139954000Y-58674000D02*
X143764000Y-62484000D01*
X135382000Y-61276000D02*
X135382000Y-59182000D01*
X134976000Y-61682000D02*
X135382000Y-61276000D01*
X133845000Y-61682000D02*
X134976000Y-61682000D01*
%TO.N,+3.3V*%
X138954000Y-65405000D02*
X139065000Y-65405000D01*
X139446000Y-65024000D02*
X139017000Y-65024000D01*
X143764000Y-65024000D02*
X139446000Y-65024000D01*
X139065000Y-65405000D02*
X139446000Y-65024000D01*
X139017000Y-65024000D02*
X138795000Y-65246000D01*
%TO.N,GPIO4*%
X139128000Y-71818000D02*
X138684000Y-71374000D01*
X140398000Y-71818000D02*
X139128000Y-71818000D01*
X142494000Y-73914000D02*
X140398000Y-71818000D01*
X143764000Y-73914000D02*
X142494000Y-73914000D01*
%TO.N,+3.3V*%
X111252000Y-58441500D02*
X110744000Y-58949500D01*
X138795000Y-65246000D02*
X138954000Y-65405000D01*
X138795000Y-68072000D02*
X138954000Y-67913000D01*
X137414000Y-71231000D02*
X137414000Y-69453000D01*
X138684000Y-73263000D02*
X138795000Y-73152000D01*
X138684000Y-75184000D02*
X138684000Y-73263000D01*
X116586000Y-75692000D02*
X113157000Y-72263000D01*
X136652000Y-77876000D02*
X136652000Y-77216000D01*
X115083500Y-58441500D02*
X115653000Y-57872000D01*
X110760000Y-64024000D02*
X110760000Y-63627000D01*
X115653000Y-57872000D02*
X116345000Y-57872000D01*
X138954000Y-67913000D02*
X138954000Y-65405000D01*
X138795000Y-72612000D02*
X137414000Y-71231000D01*
X117348000Y-75692000D02*
X116586000Y-75692000D01*
X110744000Y-63611000D02*
X110760000Y-63627000D01*
X113157000Y-72263000D02*
X113157000Y-66421000D01*
X137414000Y-69453000D02*
X138795000Y-68072000D01*
X110744000Y-58949500D02*
X110744000Y-63611000D01*
X113157000Y-66421000D02*
X110760000Y-64024000D01*
X138795000Y-73152000D02*
X138795000Y-72612000D01*
X108966000Y-58441500D02*
X115083500Y-58441500D01*
X138795000Y-60452000D02*
X138795000Y-65246000D01*
X136652000Y-77216000D02*
X138684000Y-75184000D01*
%TO.N,GND*%
X117856000Y-82958000D02*
X117856000Y-83587500D01*
X117620000Y-81422000D02*
X116474000Y-81422000D01*
X108966000Y-56366500D02*
X109201500Y-56602000D01*
X130302000Y-84820000D02*
X130572000Y-84820000D01*
X109201500Y-56602000D02*
X116345000Y-56602000D01*
X122890000Y-62417000D02*
X125940000Y-62417000D01*
X125940000Y-64704500D02*
X125177500Y-65467000D01*
X116160000Y-82722000D02*
X114554000Y-84328000D01*
X117620000Y-82722000D02*
X117856000Y-82958000D01*
X117620000Y-82722000D02*
X116160000Y-82722000D01*
X116474000Y-81422000D02*
X115824000Y-80772000D01*
X117856000Y-83587500D02*
X119104500Y-84836000D01*
X125940000Y-65467000D02*
X122890000Y-65467000D01*
X140970000Y-56896000D02*
X141066000Y-56992000D01*
X125940000Y-62417000D02*
X125940000Y-65467000D01*
X122890000Y-62417000D02*
X122890000Y-65467000D01*
X130572000Y-84820000D02*
X132842000Y-82550000D01*
X123652500Y-65467000D02*
X124415000Y-64704500D01*
X132842000Y-82550000D02*
X132842000Y-82042000D01*
X125940000Y-63179500D02*
X125177500Y-62417000D01*
X123652500Y-62417000D02*
X125940000Y-62417000D01*
X123652500Y-65467000D02*
X125177500Y-65467000D01*
%TO.N,VDD*%
X135290000Y-80264000D02*
X138952000Y-83926000D01*
X121920000Y-82072000D02*
X123623598Y-82072000D01*
X137272000Y-86106000D02*
X138952000Y-84426000D01*
X138952000Y-84426000D02*
X138952000Y-84176000D01*
X120142000Y-86360000D02*
X115062000Y-86360000D01*
X122449500Y-86106000D02*
X137272000Y-86106000D01*
X123623598Y-82072000D02*
X125431598Y-80264000D01*
X120142000Y-86360000D02*
X121179500Y-85322500D01*
X121179500Y-85322500D02*
X121179500Y-84836000D01*
X115062000Y-86360000D02*
X110998000Y-82296000D01*
X121179500Y-84836000D02*
X122449500Y-86106000D01*
X138952000Y-83926000D02*
X138952000Y-84176000D01*
X125431598Y-80264000D02*
X135290000Y-80264000D01*
%TO.N,GPIO2*%
X132080000Y-77978000D02*
X130815000Y-76713000D01*
X130815000Y-76713000D02*
X130815000Y-74362000D01*
%TO.N,TX0*%
X136795000Y-61960000D02*
X136779000Y-62103000D01*
X131739000Y-60412000D02*
X131572000Y-60452000D01*
X136795000Y-60452000D02*
X136795000Y-61960000D01*
X133845000Y-60412000D02*
X131739000Y-60412000D01*
X131572000Y-60452000D02*
X131699000Y-60452000D01*
X136779000Y-62103000D02*
X136779000Y-61976000D01*
%TO.N,/EN*%
X112903000Y-63627000D02*
X114046000Y-64770000D01*
X114046000Y-64770000D02*
X114046000Y-69215000D01*
X112760000Y-61738000D02*
X115356000Y-59142000D01*
X114046000Y-69215000D02*
X114300000Y-69469000D01*
X112760000Y-63627000D02*
X112903000Y-63627000D01*
X112760000Y-63627000D02*
X112760000Y-61738000D01*
X115356000Y-59142000D02*
X116345000Y-59142000D01*
%TO.N,GPIO0*%
X136795000Y-73152000D02*
X136755000Y-73112000D01*
X133096000Y-76200000D02*
X133858000Y-75438000D01*
X133858000Y-75438000D02*
X133845000Y-75425000D01*
X133845000Y-75425000D02*
X133845000Y-73112000D01*
X133096000Y-77132150D02*
X133096000Y-76200000D01*
X136755000Y-73112000D02*
X133845000Y-73112000D01*
%TO.N,GPIO5*%
X133845000Y-68032000D02*
X135342000Y-68032000D01*
X135342000Y-68032000D02*
X135382000Y-68072000D01*
X136755000Y-68032000D02*
X136795000Y-68072000D01*
X135382000Y-68072000D02*
X135422000Y-68032000D01*
X135422000Y-68032000D02*
X136755000Y-68032000D01*
%TO.N,Net-(C5-Pad1)*%
X121920000Y-82722000D02*
X121920000Y-83566000D01*
X125708500Y-84582000D02*
X125835500Y-84709000D01*
X121920000Y-83566000D02*
X122936000Y-84582000D01*
X125835500Y-81788000D02*
X125835500Y-84709000D01*
X122936000Y-84582000D02*
X125708500Y-84582000D01*
%TO.N,Net-(C6-Pad2)*%
X127910500Y-81788000D02*
X129270000Y-81788000D01*
X129270000Y-81788000D02*
X130302000Y-82820000D01*
%TO.N,Net-(C7-Pad1)*%
X119739500Y-77470000D02*
X119739500Y-78652500D01*
X119739500Y-78652500D02*
X117620000Y-80772000D01*
%TO.N,Net-(C7-Pad2)*%
X121920000Y-80772000D02*
X121920000Y-77575500D01*
X121920000Y-77575500D02*
X121814500Y-77470000D01*
%TO.N,Net-(U4-BYPASS)*%
X121920000Y-81422000D02*
X123280500Y-81422000D01*
X123280500Y-81422000D02*
X125835500Y-78867000D01*
%TO.N,A8*%
X116345000Y-68032000D02*
X114876000Y-68032000D01*
X114876000Y-68032000D02*
X114836000Y-68072000D01*
%TO.N,Net-(U4-+)*%
X109093000Y-78359000D02*
X105649000Y-74915000D01*
X110871000Y-78359000D02*
X109093000Y-78359000D01*
X117620000Y-82072000D02*
X114584000Y-82072000D01*
X105649000Y-74915000D02*
X105649000Y-72644000D01*
X110871000Y-78359000D02*
X114584000Y-82072000D01*
%TO.N,GPIO21*%
X133845000Y-62952000D02*
X135469000Y-62952000D01*
X135469000Y-62952000D02*
X135509000Y-62992000D01*
%TO.N,GPIO22*%
X131612000Y-59142000D02*
X131572000Y-59182000D01*
X133845000Y-59142000D02*
X131612000Y-59142000D01*
%TD*%
%TA.AperFunction,Conductor*%
%TO.N,GND*%
G36*
X120837432Y-78367640D02*
G01*
X120882539Y-78410821D01*
X120884288Y-78413657D01*
X121008342Y-78537711D01*
X121071131Y-78576439D01*
X121156346Y-78629000D01*
X121170001Y-78637422D01*
X121168617Y-78639665D01*
X121188050Y-78650912D01*
X121218301Y-78692604D01*
X121229000Y-78742992D01*
X121229000Y-80370318D01*
X121214358Y-80428772D01*
X121173891Y-80473418D01*
X121157426Y-80484421D01*
X121157422Y-80484424D01*
X121107583Y-80559013D01*
X121094500Y-80624791D01*
X121094500Y-80919209D01*
X121101619Y-80955000D01*
X121107583Y-80984986D01*
X121136397Y-81028109D01*
X121154911Y-81072808D01*
X121154912Y-81121189D01*
X121136397Y-81165888D01*
X121107583Y-81209011D01*
X121106998Y-81211954D01*
X121096054Y-81266980D01*
X121094500Y-81274791D01*
X121094500Y-81569209D01*
X121104980Y-81621902D01*
X121107583Y-81634986D01*
X121134588Y-81675402D01*
X121136397Y-81678109D01*
X121154911Y-81722808D01*
X121154912Y-81771189D01*
X121136397Y-81815888D01*
X121107583Y-81859011D01*
X121094500Y-81924791D01*
X121094500Y-82219209D01*
X121104980Y-82271903D01*
X121107583Y-82284986D01*
X121126307Y-82313008D01*
X121136397Y-82328109D01*
X121154911Y-82372808D01*
X121154912Y-82421189D01*
X121136397Y-82465888D01*
X121107583Y-82509011D01*
X121094500Y-82574791D01*
X121094500Y-82869209D01*
X121107583Y-82934987D01*
X121157421Y-83009575D01*
X121157422Y-83009575D01*
X121157423Y-83009577D01*
X121173891Y-83020581D01*
X121214358Y-83065228D01*
X121229000Y-83123682D01*
X121229000Y-83486500D01*
X121212387Y-83548500D01*
X121167000Y-83593887D01*
X121105000Y-83610500D01*
X120791991Y-83610500D01*
X120689203Y-83621000D01*
X120522665Y-83676186D01*
X120373342Y-83768288D01*
X120249286Y-83892344D01*
X120247242Y-83895659D01*
X120202135Y-83938837D01*
X120141704Y-83954558D01*
X120081274Y-83938835D01*
X120036168Y-83895656D01*
X120034316Y-83892654D01*
X119910345Y-83768683D01*
X119761122Y-83676642D01*
X119594696Y-83621493D01*
X119491979Y-83611000D01*
X119354500Y-83611000D01*
X119354500Y-84962000D01*
X119337887Y-85024000D01*
X119292500Y-85069387D01*
X119230500Y-85086000D01*
X118017001Y-85086000D01*
X118017001Y-85360979D01*
X118027493Y-85463695D01*
X118041511Y-85505996D01*
X118046362Y-85563863D01*
X118024335Y-85617593D01*
X117980261Y-85655403D01*
X117923805Y-85669000D01*
X115399583Y-85669000D01*
X115352130Y-85659561D01*
X115311902Y-85632681D01*
X113034818Y-83355597D01*
X113007938Y-83315369D01*
X112998499Y-83267916D01*
X112998499Y-81763083D01*
X113012014Y-81706788D01*
X113049614Y-81662765D01*
X113103101Y-81640610D01*
X113160817Y-81645152D01*
X113210180Y-81675402D01*
X114077979Y-82543201D01*
X114083114Y-82548656D01*
X114122416Y-82593020D01*
X114171206Y-82626696D01*
X114177219Y-82631119D01*
X114223895Y-82667688D01*
X114232859Y-82671722D01*
X114252417Y-82682752D01*
X114260519Y-82688345D01*
X114302370Y-82704216D01*
X114315943Y-82709364D01*
X114322842Y-82712221D01*
X114376915Y-82736557D01*
X114386602Y-82738332D01*
X114408208Y-82744355D01*
X114417418Y-82747848D01*
X114476268Y-82754993D01*
X114483641Y-82756115D01*
X114541972Y-82766805D01*
X114601138Y-82763226D01*
X114608626Y-82763000D01*
X116271000Y-82763000D01*
X116333000Y-82779613D01*
X116378387Y-82825000D01*
X116395000Y-82887000D01*
X116395000Y-82910109D01*
X116397789Y-82945552D01*
X116441844Y-83097189D01*
X116522228Y-83233111D01*
X116633888Y-83344771D01*
X116769810Y-83425155D01*
X116921447Y-83469210D01*
X116956891Y-83472000D01*
X117370000Y-83472000D01*
X117370000Y-82887000D01*
X117386613Y-82825000D01*
X117432000Y-82779613D01*
X117494000Y-82763000D01*
X117661795Y-82763000D01*
X117661796Y-82763000D01*
X117731054Y-82754590D01*
X117799157Y-82765658D01*
X117850803Y-82811412D01*
X117870000Y-82877686D01*
X117870000Y-83472000D01*
X118283109Y-83472000D01*
X118318546Y-83469210D01*
X118321906Y-83468235D01*
X118380634Y-83465681D01*
X118433939Y-83490461D01*
X118469842Y-83537006D01*
X118480274Y-83594856D01*
X118462892Y-83651011D01*
X118421601Y-83692850D01*
X118298653Y-83768684D01*
X118174683Y-83892654D01*
X118082642Y-84041877D01*
X118027493Y-84208303D01*
X118017000Y-84311021D01*
X118017000Y-84586000D01*
X118854500Y-84586000D01*
X118854500Y-83611001D01*
X118717021Y-83611001D01*
X118600793Y-83622874D01*
X118600434Y-83619359D01*
X118566852Y-83621831D01*
X118512060Y-83597756D01*
X118474926Y-83550822D01*
X118464100Y-83491962D01*
X118482104Y-83434887D01*
X118524743Y-83392891D01*
X118606112Y-83344770D01*
X118717771Y-83233111D01*
X118798155Y-83097189D01*
X118842210Y-82945552D01*
X118845262Y-82906772D01*
X118864884Y-82848965D01*
X118909712Y-82807526D01*
X118968880Y-82792499D01*
X118975096Y-82792499D01*
X118975101Y-82792500D01*
X120564898Y-82792499D01*
X120564899Y-82792499D01*
X120579555Y-82789583D01*
X120594213Y-82786669D01*
X120627457Y-82764457D01*
X120649669Y-82731213D01*
X120655500Y-82701899D01*
X120655499Y-80792102D01*
X120649669Y-80762787D01*
X120627457Y-80729543D01*
X120610498Y-80718212D01*
X120594212Y-80707330D01*
X120564901Y-80701500D01*
X118967080Y-80701500D01*
X118910785Y-80687985D01*
X118866762Y-80650385D01*
X118844607Y-80596898D01*
X118849149Y-80539182D01*
X118879395Y-80489824D01*
X120210709Y-79158510D01*
X120216128Y-79153408D01*
X120260520Y-79114083D01*
X120294214Y-79065265D01*
X120298608Y-79059293D01*
X120335188Y-79012605D01*
X120339223Y-79003637D01*
X120350251Y-78984084D01*
X120350666Y-78983483D01*
X120355844Y-78975982D01*
X120376878Y-78920519D01*
X120379717Y-78913665D01*
X120404058Y-78859584D01*
X120405831Y-78849904D01*
X120411859Y-78828280D01*
X120415348Y-78819082D01*
X120422494Y-78760224D01*
X120423613Y-78752872D01*
X120434305Y-78694528D01*
X120433645Y-78683632D01*
X120447365Y-78619013D01*
X120492321Y-78570608D01*
X120545656Y-78537712D01*
X120669712Y-78413656D01*
X120671460Y-78410821D01*
X120716568Y-78367640D01*
X120777000Y-78351917D01*
X120837432Y-78367640D01*
G37*
%TD.AperFunction*%
%TA.AperFunction,Conductor*%
G36*
X134999869Y-80964439D02*
G01*
X135040097Y-80991319D01*
X136512597Y-82463819D01*
X136542847Y-82513182D01*
X136547389Y-82570898D01*
X136525234Y-82624385D01*
X136481211Y-82661985D01*
X136424916Y-82675500D01*
X135854130Y-82675500D01*
X135794515Y-82681909D01*
X135659667Y-82732204D01*
X135575892Y-82794918D01*
X135527940Y-82816817D01*
X135475223Y-82816817D01*
X135427271Y-82794918D01*
X135344088Y-82732647D01*
X135209375Y-82682402D01*
X135149824Y-82676000D01*
X134602000Y-82676000D01*
X134602000Y-84302000D01*
X134585387Y-84364000D01*
X134540000Y-84409387D01*
X134478000Y-84426000D01*
X133102000Y-84426000D01*
X133102000Y-85223823D01*
X133107797Y-85277745D01*
X133096043Y-85345181D01*
X133050300Y-85396106D01*
X132984507Y-85415000D01*
X131619390Y-85415000D01*
X131553782Y-85396222D01*
X131508045Y-85345574D01*
X131496032Y-85278398D01*
X131502000Y-85219979D01*
X131502000Y-85070000D01*
X130176000Y-85070000D01*
X130114000Y-85053387D01*
X130068613Y-85008000D01*
X130052000Y-84946000D01*
X130052000Y-84694000D01*
X130068613Y-84632000D01*
X130114000Y-84586613D01*
X130176000Y-84570000D01*
X131501999Y-84570000D01*
X131501999Y-84420021D01*
X131491506Y-84317304D01*
X131436357Y-84150877D01*
X131344316Y-84001654D01*
X131268662Y-83926000D01*
X133102000Y-83926000D01*
X134102000Y-83926000D01*
X134102000Y-82676000D01*
X133554176Y-82676000D01*
X133494624Y-82682402D01*
X133359910Y-82732647D01*
X133244811Y-82818811D01*
X133158647Y-82933910D01*
X133108402Y-83068624D01*
X133102000Y-83128176D01*
X133102000Y-83926000D01*
X131268662Y-83926000D01*
X131250696Y-83908034D01*
X131218602Y-83852446D01*
X131218602Y-83788259D01*
X131250694Y-83732673D01*
X131344712Y-83638656D01*
X131436814Y-83489334D01*
X131491999Y-83322797D01*
X131502500Y-83220009D01*
X131502499Y-82419992D01*
X131502070Y-82415797D01*
X131491999Y-82317203D01*
X131481323Y-82284985D01*
X131436814Y-82150666D01*
X131344712Y-82001344D01*
X131344711Y-82001342D01*
X131220657Y-81877288D01*
X131071334Y-81785186D01*
X130904797Y-81730000D01*
X130802009Y-81719500D01*
X130230084Y-81719500D01*
X130182631Y-81710061D01*
X130142403Y-81683181D01*
X129776027Y-81316805D01*
X129770893Y-81311352D01*
X129731582Y-81266979D01*
X129682793Y-81233303D01*
X129676759Y-81228863D01*
X129630105Y-81192312D01*
X129629581Y-81192076D01*
X129626074Y-81189154D01*
X129618253Y-81183026D01*
X129618438Y-81182789D01*
X129578421Y-81149441D01*
X129556697Y-81086487D01*
X129570674Y-81021375D01*
X129616321Y-80972883D01*
X129680471Y-80955000D01*
X134952416Y-80955000D01*
X134999869Y-80964439D01*
G37*
%TD.AperFunction*%
%TA.AperFunction,Conductor*%
G36*
X108352910Y-55071226D02*
G01*
X108398664Y-55122942D01*
X108409665Y-55191111D01*
X108382500Y-55254595D01*
X108325593Y-55293706D01*
X108171877Y-55344642D01*
X108022654Y-55436683D01*
X107898683Y-55560654D01*
X107806642Y-55709877D01*
X107751493Y-55876303D01*
X107741000Y-55979021D01*
X107741000Y-56116500D01*
X114762999Y-56116500D01*
X114762999Y-55979021D01*
X114752506Y-55876304D01*
X114697357Y-55709877D01*
X114605316Y-55560654D01*
X114481345Y-55436683D01*
X114332122Y-55344642D01*
X114178408Y-55293706D01*
X114121501Y-55254595D01*
X114094336Y-55191111D01*
X114105337Y-55122942D01*
X114151091Y-55071226D01*
X114217412Y-55052000D01*
X148846500Y-55052000D01*
X148908500Y-55068613D01*
X148953887Y-55114000D01*
X148970500Y-55176000D01*
X148970500Y-88521500D01*
X148953887Y-88583500D01*
X148908500Y-88628887D01*
X148846500Y-88645500D01*
X102867500Y-88645500D01*
X102805500Y-88628887D01*
X102760113Y-88583500D01*
X102743500Y-88521500D01*
X102743500Y-83876115D01*
X104691436Y-83876115D01*
X104833958Y-83982806D01*
X105085047Y-84119911D01*
X105353097Y-84219888D01*
X105632642Y-84280699D01*
X105918000Y-84301109D01*
X106203357Y-84280699D01*
X106482902Y-84219888D01*
X106750952Y-84119911D01*
X107002041Y-83982806D01*
X107144562Y-83876115D01*
X105918001Y-82649553D01*
X105918000Y-82649553D01*
X104691436Y-83876115D01*
X102743500Y-83876115D01*
X102743500Y-82295999D01*
X103912890Y-82295999D01*
X103933300Y-82581357D01*
X103994111Y-82860902D01*
X104094088Y-83128952D01*
X104231193Y-83380042D01*
X104337883Y-83522562D01*
X105564446Y-82296001D01*
X106271553Y-82296001D01*
X107498115Y-83522562D01*
X107604806Y-83380041D01*
X107741911Y-83128952D01*
X107841888Y-82860902D01*
X107902699Y-82581357D01*
X107923109Y-82295999D01*
X107902699Y-82010642D01*
X107841888Y-81731097D01*
X107741911Y-81463047D01*
X107604806Y-81211958D01*
X107498115Y-81069436D01*
X106271553Y-82296000D01*
X106271553Y-82296001D01*
X105564446Y-82296001D01*
X105564446Y-82296000D01*
X104337883Y-81069436D01*
X104337882Y-81069437D01*
X104231195Y-81211954D01*
X104094088Y-81463047D01*
X103994111Y-81731097D01*
X103933300Y-82010642D01*
X103912890Y-82295999D01*
X102743500Y-82295999D01*
X102743500Y-80715883D01*
X104691436Y-80715883D01*
X105918000Y-81942446D01*
X105918001Y-81942446D01*
X107144562Y-80715883D01*
X107002042Y-80609193D01*
X106750952Y-80472088D01*
X106482902Y-80372111D01*
X106203357Y-80311300D01*
X105918000Y-80290890D01*
X105632642Y-80311300D01*
X105353097Y-80372111D01*
X105085047Y-80472088D01*
X104833954Y-80609195D01*
X104691437Y-80715882D01*
X104691436Y-80715883D01*
X102743500Y-80715883D01*
X102743500Y-72643999D01*
X104423837Y-72643999D01*
X104442450Y-72856744D01*
X104497724Y-73063031D01*
X104587979Y-73256582D01*
X104710468Y-73431516D01*
X104710470Y-73431518D01*
X104710471Y-73431519D01*
X104861481Y-73582529D01*
X104905123Y-73613087D01*
X104943989Y-73657405D01*
X104958000Y-73714662D01*
X104958000Y-74890374D01*
X104957774Y-74897861D01*
X104954195Y-74957029D01*
X104964879Y-75015332D01*
X104966006Y-75022735D01*
X104973152Y-75081583D01*
X104976643Y-75090788D01*
X104982668Y-75112400D01*
X104984442Y-75122083D01*
X104984443Y-75122085D01*
X105004594Y-75166861D01*
X105008772Y-75176143D01*
X105011630Y-75183044D01*
X105032655Y-75238481D01*
X105032656Y-75238482D01*
X105038249Y-75246585D01*
X105049273Y-75266132D01*
X105053311Y-75275104D01*
X105089863Y-75321759D01*
X105094303Y-75327793D01*
X105123657Y-75370320D01*
X105127980Y-75376583D01*
X105149865Y-75395971D01*
X105172352Y-75415893D01*
X105177805Y-75421027D01*
X108586964Y-78830186D01*
X108592097Y-78835638D01*
X108631417Y-78880020D01*
X108680211Y-78913700D01*
X108686245Y-78918140D01*
X108732895Y-78954688D01*
X108741862Y-78958724D01*
X108761416Y-78969751D01*
X108769518Y-78975344D01*
X108824938Y-78996362D01*
X108831848Y-78999224D01*
X108885916Y-79023558D01*
X108895595Y-79025331D01*
X108917225Y-79031361D01*
X108926418Y-79034848D01*
X108985244Y-79041990D01*
X108992636Y-79043114D01*
X109050972Y-79053806D01*
X109107518Y-79050385D01*
X109110150Y-79050226D01*
X109117637Y-79050000D01*
X110533416Y-79050000D01*
X110580869Y-79059439D01*
X110621097Y-79086319D01*
X111618597Y-80083819D01*
X111648847Y-80133182D01*
X111653389Y-80190898D01*
X111631234Y-80244385D01*
X111587211Y-80281985D01*
X111530916Y-80295500D01*
X109450130Y-80295500D01*
X109390515Y-80301909D01*
X109255669Y-80352204D01*
X109140454Y-80438454D01*
X109054204Y-80553668D01*
X109006158Y-80682485D01*
X109003909Y-80688517D01*
X108999342Y-80731000D01*
X108997500Y-80748130D01*
X108997500Y-83843869D01*
X109003909Y-83903484D01*
X109010256Y-83920500D01*
X109054204Y-84038331D01*
X109140454Y-84153546D01*
X109255669Y-84239796D01*
X109390517Y-84290091D01*
X109450127Y-84296500D01*
X111969915Y-84296499D01*
X112017368Y-84305938D01*
X112057596Y-84332818D01*
X114555971Y-86831192D01*
X114561091Y-86836630D01*
X114600417Y-86881020D01*
X114613581Y-86890106D01*
X114649211Y-86914700D01*
X114655245Y-86919140D01*
X114701893Y-86955687D01*
X114701894Y-86955687D01*
X114701895Y-86955688D01*
X114710856Y-86959721D01*
X114710859Y-86959722D01*
X114730417Y-86970752D01*
X114738519Y-86976345D01*
X114780370Y-86992216D01*
X114793943Y-86997364D01*
X114800842Y-87000221D01*
X114854915Y-87024557D01*
X114864602Y-87026332D01*
X114886208Y-87032355D01*
X114895418Y-87035848D01*
X114954268Y-87042993D01*
X114961641Y-87044115D01*
X115019972Y-87054805D01*
X115079138Y-87051226D01*
X115086626Y-87051000D01*
X120117374Y-87051000D01*
X120124861Y-87051226D01*
X120184028Y-87054805D01*
X120184028Y-87054804D01*
X120184030Y-87054805D01*
X120242336Y-87044119D01*
X120249725Y-87042994D01*
X120308582Y-87035848D01*
X120317790Y-87032355D01*
X120339398Y-87026332D01*
X120349085Y-87024557D01*
X120403161Y-87000218D01*
X120410045Y-86997368D01*
X120465482Y-86976344D01*
X120473585Y-86970750D01*
X120493137Y-86959723D01*
X120502105Y-86955688D01*
X120548776Y-86919122D01*
X120554769Y-86914711D01*
X120603583Y-86881020D01*
X120642902Y-86836635D01*
X120648003Y-86831217D01*
X121335070Y-86144150D01*
X121390655Y-86112058D01*
X121454843Y-86112058D01*
X121510430Y-86144152D01*
X121943479Y-86577201D01*
X121948599Y-86582639D01*
X121987917Y-86627020D01*
X122018629Y-86648219D01*
X122036714Y-86660703D01*
X122042733Y-86665132D01*
X122065390Y-86682882D01*
X122089392Y-86701687D01*
X122089393Y-86701687D01*
X122089394Y-86701688D01*
X122098370Y-86705727D01*
X122117917Y-86716752D01*
X122126018Y-86722344D01*
X122181442Y-86743363D01*
X122188351Y-86746225D01*
X122242415Y-86770557D01*
X122252102Y-86772332D01*
X122273708Y-86778355D01*
X122282918Y-86781848D01*
X122341768Y-86788993D01*
X122349141Y-86790115D01*
X122407472Y-86800805D01*
X122466638Y-86797226D01*
X122474126Y-86797000D01*
X137247374Y-86797000D01*
X137254861Y-86797226D01*
X137314028Y-86800805D01*
X137314028Y-86800804D01*
X137314030Y-86800805D01*
X137372336Y-86790119D01*
X137379725Y-86788994D01*
X137438582Y-86781848D01*
X137447790Y-86778355D01*
X137469398Y-86772332D01*
X137479085Y-86770557D01*
X137525049Y-86749869D01*
X141900500Y-86749869D01*
X141906909Y-86809484D01*
X141917040Y-86836646D01*
X141957204Y-86944331D01*
X142043454Y-87059546D01*
X142158669Y-87145796D01*
X142293517Y-87196091D01*
X142353127Y-87202500D01*
X144148872Y-87202499D01*
X144208483Y-87196091D01*
X144343331Y-87145796D01*
X144458546Y-87059546D01*
X144544796Y-86944331D01*
X144594003Y-86812398D01*
X144628981Y-86762021D01*
X144683826Y-86734568D01*
X144745119Y-86736757D01*
X144797865Y-86768053D01*
X144919918Y-86890106D01*
X145113423Y-87025600D01*
X145327507Y-87125430D01*
X145540999Y-87182635D01*
X145541000Y-87182636D01*
X145541000Y-86102000D01*
X146041000Y-86102000D01*
X146041000Y-87182635D01*
X146254492Y-87125430D01*
X146468576Y-87025600D01*
X146662081Y-86890106D01*
X146829106Y-86723081D01*
X146964600Y-86529576D01*
X147064430Y-86315492D01*
X147121636Y-86102000D01*
X146041000Y-86102000D01*
X145541000Y-86102000D01*
X145541000Y-84521364D01*
X146041000Y-84521364D01*
X146041000Y-85602000D01*
X147121636Y-85602000D01*
X147121635Y-85601999D01*
X147064430Y-85388507D01*
X146964599Y-85174421D01*
X146829109Y-84980921D01*
X146662081Y-84813893D01*
X146468576Y-84678399D01*
X146254492Y-84578569D01*
X146041000Y-84521364D01*
X145541000Y-84521364D01*
X145540999Y-84521364D01*
X145327507Y-84578569D01*
X145113421Y-84678400D01*
X144919924Y-84813888D01*
X144797865Y-84935947D01*
X144745118Y-84967242D01*
X144683825Y-84969431D01*
X144628981Y-84941978D01*
X144594002Y-84891598D01*
X144565018Y-84813888D01*
X144544796Y-84759669D01*
X144458546Y-84644454D01*
X144343331Y-84558204D01*
X144208483Y-84507909D01*
X144148873Y-84501500D01*
X144148869Y-84501500D01*
X142353130Y-84501500D01*
X142293515Y-84507909D01*
X142158669Y-84558204D01*
X142043454Y-84644454D01*
X141957204Y-84759668D01*
X141907997Y-84891598D01*
X141906909Y-84894517D01*
X141901291Y-84946777D01*
X141900500Y-84954130D01*
X141900500Y-86749869D01*
X137525049Y-86749869D01*
X137533161Y-86746218D01*
X137540045Y-86743368D01*
X137595482Y-86722344D01*
X137603585Y-86716750D01*
X137623137Y-86705723D01*
X137632105Y-86701688D01*
X137678776Y-86665122D01*
X137684782Y-86660703D01*
X137733583Y-86627020D01*
X137772902Y-86582635D01*
X137778003Y-86577217D01*
X138642402Y-85712817D01*
X138682630Y-85685938D01*
X138730083Y-85676499D01*
X139749870Y-85676499D01*
X139749872Y-85676499D01*
X139809483Y-85670091D01*
X139944331Y-85619796D01*
X140059546Y-85533546D01*
X140145796Y-85418331D01*
X140196091Y-85283483D01*
X140202500Y-85223873D01*
X140202499Y-83128128D01*
X140196091Y-83068517D01*
X140145796Y-82933669D01*
X140059546Y-82818454D01*
X139944331Y-82732204D01*
X139809483Y-82681909D01*
X139749873Y-82675500D01*
X139749869Y-82675500D01*
X138730084Y-82675500D01*
X138682631Y-82666061D01*
X138642403Y-82639181D01*
X137787222Y-81784000D01*
X142433364Y-81784000D01*
X142490569Y-81997492D01*
X142590399Y-82211576D01*
X142725893Y-82405081D01*
X142892918Y-82572106D01*
X143086423Y-82707600D01*
X143300507Y-82807430D01*
X143513999Y-82864635D01*
X143514000Y-82864636D01*
X143514000Y-81784000D01*
X144014000Y-81784000D01*
X144014000Y-82864635D01*
X144227492Y-82807430D01*
X144441576Y-82707600D01*
X144635081Y-82572106D01*
X144802106Y-82405081D01*
X144937600Y-82211576D01*
X145037430Y-81997492D01*
X145094636Y-81784000D01*
X144014000Y-81784000D01*
X143514000Y-81784000D01*
X142433364Y-81784000D01*
X137787222Y-81784000D01*
X135796027Y-79792805D01*
X135790893Y-79787352D01*
X135751582Y-79742979D01*
X135702793Y-79709303D01*
X135696759Y-79704863D01*
X135650104Y-79668311D01*
X135641132Y-79664273D01*
X135621585Y-79653249D01*
X135613482Y-79647656D01*
X135613481Y-79647655D01*
X135558044Y-79626630D01*
X135551142Y-79623771D01*
X135528487Y-79613575D01*
X135477327Y-79570940D01*
X135455603Y-79507986D01*
X135469580Y-79442874D01*
X135515227Y-79394382D01*
X135579374Y-79376499D01*
X138599872Y-79376499D01*
X138659483Y-79370091D01*
X138794331Y-79319796D01*
X138909546Y-79233546D01*
X138995796Y-79118331D01*
X139046091Y-78983483D01*
X139052500Y-78923873D01*
X139052500Y-78691000D01*
X139069113Y-78629000D01*
X139114500Y-78583613D01*
X139176500Y-78567000D01*
X142308416Y-78567000D01*
X142355869Y-78576439D01*
X142396097Y-78603319D01*
X142404186Y-78611408D01*
X142436279Y-78666993D01*
X142436281Y-78731179D01*
X142428936Y-78758592D01*
X142408340Y-78994000D01*
X142428936Y-79229407D01*
X142453156Y-79319796D01*
X142490097Y-79457663D01*
X142589965Y-79671830D01*
X142725505Y-79865401D01*
X142892599Y-80032495D01*
X143078597Y-80162732D01*
X143117460Y-80207048D01*
X143131471Y-80264305D01*
X143117461Y-80321561D01*
X143078595Y-80365880D01*
X142892919Y-80495892D01*
X142725890Y-80662921D01*
X142590400Y-80856421D01*
X142490569Y-81070507D01*
X142433364Y-81283999D01*
X142433364Y-81284000D01*
X145094636Y-81284000D01*
X145094635Y-81283999D01*
X145037430Y-81070507D01*
X144937599Y-80856421D01*
X144802109Y-80662921D01*
X144635081Y-80495893D01*
X144449404Y-80365880D01*
X144410539Y-80321562D01*
X144396528Y-80264305D01*
X144410539Y-80207048D01*
X144449402Y-80162732D01*
X144635401Y-80032495D01*
X144802495Y-79865401D01*
X144938035Y-79671830D01*
X145037903Y-79457663D01*
X145099063Y-79229408D01*
X145119659Y-78994000D01*
X145099063Y-78758592D01*
X145037903Y-78530337D01*
X144938035Y-78316171D01*
X144802495Y-78122599D01*
X144635401Y-77955505D01*
X144449839Y-77825573D01*
X144410976Y-77781257D01*
X144396965Y-77724000D01*
X144410976Y-77666743D01*
X144449839Y-77622426D01*
X144635401Y-77492495D01*
X144802495Y-77325401D01*
X144938035Y-77131830D01*
X145037903Y-76917663D01*
X145099063Y-76689408D01*
X145119659Y-76454000D01*
X145114588Y-76396045D01*
X145099063Y-76218592D01*
X145095577Y-76205583D01*
X145037903Y-75990337D01*
X144938035Y-75776171D01*
X144802495Y-75582599D01*
X144635401Y-75415505D01*
X144449839Y-75285573D01*
X144410975Y-75241257D01*
X144396964Y-75184000D01*
X144410975Y-75126743D01*
X144449839Y-75082426D01*
X144635401Y-74952495D01*
X144802495Y-74785401D01*
X144938035Y-74591830D01*
X145037903Y-74377663D01*
X145099063Y-74149408D01*
X145119659Y-73914000D01*
X145099063Y-73678592D01*
X145037903Y-73450337D01*
X144938035Y-73236171D01*
X144802495Y-73042599D01*
X144635401Y-72875505D01*
X144449839Y-72745573D01*
X144410975Y-72701257D01*
X144396964Y-72644000D01*
X144410975Y-72586743D01*
X144449839Y-72542426D01*
X144635401Y-72412495D01*
X144802495Y-72245401D01*
X144938035Y-72051830D01*
X145037903Y-71837663D01*
X145099063Y-71609408D01*
X145119659Y-71374000D01*
X145117045Y-71344128D01*
X145099063Y-71138592D01*
X145063459Y-71005715D01*
X145037903Y-70910337D01*
X144938035Y-70696171D01*
X144802495Y-70502599D01*
X144680569Y-70380673D01*
X144649273Y-70327927D01*
X144647084Y-70266634D01*
X144674537Y-70211789D01*
X144724916Y-70176810D01*
X144856331Y-70127796D01*
X144971546Y-70041546D01*
X145057796Y-69926331D01*
X145108091Y-69791483D01*
X145114500Y-69731873D01*
X145114499Y-67936128D01*
X145108091Y-67876517D01*
X145057796Y-67741669D01*
X144971546Y-67626454D01*
X144856331Y-67540204D01*
X144721483Y-67489909D01*
X144661873Y-67483500D01*
X144661869Y-67483500D01*
X142866130Y-67483500D01*
X142806515Y-67489909D01*
X142671669Y-67540204D01*
X142556454Y-67626454D01*
X142470204Y-67741668D01*
X142419909Y-67876516D01*
X142413500Y-67936130D01*
X142413500Y-69731869D01*
X142419909Y-69791484D01*
X142423038Y-69799872D01*
X142470204Y-69926331D01*
X142556454Y-70041546D01*
X142671669Y-70127796D01*
X142783907Y-70169658D01*
X142803082Y-70176810D01*
X142853462Y-70211789D01*
X142880915Y-70266634D01*
X142878726Y-70327926D01*
X142847431Y-70380673D01*
X142725503Y-70502601D01*
X142589965Y-70696170D01*
X142490097Y-70910336D01*
X142428936Y-71138592D01*
X142408340Y-71373999D01*
X142428936Y-71609407D01*
X142461756Y-71731893D01*
X142490097Y-71837663D01*
X142589965Y-72051830D01*
X142725505Y-72245401D01*
X142892599Y-72412495D01*
X143078160Y-72542426D01*
X143117024Y-72586743D01*
X143131035Y-72644000D01*
X143117024Y-72701257D01*
X143078159Y-72745575D01*
X142892599Y-72875505D01*
X142750343Y-73017761D01*
X142694755Y-73049854D01*
X142630568Y-73049854D01*
X142574981Y-73017760D01*
X141782191Y-72224970D01*
X140904027Y-71346805D01*
X140898893Y-71341352D01*
X140859582Y-71296979D01*
X140810793Y-71263303D01*
X140804759Y-71258863D01*
X140758104Y-71222311D01*
X140749132Y-71218273D01*
X140729585Y-71207249D01*
X140721482Y-71201656D01*
X140666044Y-71180630D01*
X140659143Y-71177772D01*
X140605083Y-71153442D01*
X140597311Y-71152018D01*
X140595398Y-71151667D01*
X140573788Y-71145643D01*
X140564583Y-71142152D01*
X140505735Y-71135006D01*
X140498332Y-71133879D01*
X140440029Y-71123195D01*
X140440028Y-71123195D01*
X140388896Y-71126287D01*
X140380861Y-71126774D01*
X140373374Y-71127000D01*
X139640678Y-71127000D01*
X139590243Y-71116280D01*
X139548528Y-71085972D01*
X139522747Y-71041318D01*
X139511179Y-71005715D01*
X139416533Y-70841783D01*
X139289870Y-70701110D01*
X139136730Y-70589848D01*
X138963802Y-70512855D01*
X138778648Y-70473500D01*
X138778646Y-70473500D01*
X138589354Y-70473500D01*
X138589352Y-70473500D01*
X138404197Y-70512855D01*
X138279436Y-70568403D01*
X138219271Y-70578742D01*
X138161465Y-70559119D01*
X138120027Y-70514292D01*
X138105000Y-70455124D01*
X138105000Y-69790584D01*
X138114439Y-69743131D01*
X138141319Y-69702903D01*
X138535403Y-69308818D01*
X138575631Y-69281938D01*
X138623084Y-69272499D01*
X139195009Y-69272499D01*
X139246402Y-69267248D01*
X139297797Y-69261999D01*
X139464334Y-69206814D01*
X139613656Y-69114712D01*
X139737712Y-68990656D01*
X139829814Y-68841334D01*
X139884999Y-68674797D01*
X139895500Y-68572009D01*
X139895499Y-67571992D01*
X139884999Y-67469203D01*
X139829814Y-67302666D01*
X139775024Y-67213837D01*
X139737713Y-67153345D01*
X139733935Y-67149567D01*
X139681316Y-67096948D01*
X139654439Y-67056723D01*
X139645000Y-67009270D01*
X139645000Y-65853584D01*
X139654439Y-65806131D01*
X139681319Y-65765903D01*
X139695903Y-65751319D01*
X139736131Y-65724439D01*
X139783584Y-65715000D01*
X142289501Y-65715000D01*
X142351501Y-65731613D01*
X142396888Y-65777000D01*
X142413501Y-65839000D01*
X142413501Y-65921870D01*
X142419909Y-65981484D01*
X142423038Y-65989872D01*
X142470204Y-66116331D01*
X142556454Y-66231546D01*
X142671669Y-66317796D01*
X142806517Y-66368091D01*
X142866127Y-66374500D01*
X144661872Y-66374499D01*
X144721483Y-66368091D01*
X144856331Y-66317796D01*
X144971546Y-66231546D01*
X145057796Y-66116331D01*
X145108091Y-65981483D01*
X145114500Y-65921873D01*
X145114499Y-64126128D01*
X145108091Y-64066517D01*
X145057796Y-63931669D01*
X144971546Y-63816454D01*
X144856331Y-63730204D01*
X144753901Y-63692000D01*
X144724916Y-63681189D01*
X144674537Y-63646209D01*
X144647084Y-63591365D01*
X144649273Y-63530072D01*
X144680566Y-63477329D01*
X144802495Y-63355401D01*
X144938035Y-63161830D01*
X145037903Y-62947663D01*
X145099063Y-62719408D01*
X145119659Y-62484000D01*
X145118546Y-62471284D01*
X145099063Y-62248592D01*
X145080649Y-62179869D01*
X145037903Y-62020337D01*
X144938035Y-61806171D01*
X144802495Y-61612599D01*
X144635401Y-61445505D01*
X144449839Y-61315573D01*
X144410976Y-61271257D01*
X144396965Y-61214000D01*
X144410976Y-61156743D01*
X144449839Y-61112426D01*
X144635401Y-60982495D01*
X144802495Y-60815401D01*
X144938035Y-60621830D01*
X145037903Y-60407663D01*
X145099063Y-60179408D01*
X145119659Y-59944000D01*
X145099063Y-59708592D01*
X145037903Y-59480337D01*
X144938035Y-59266171D01*
X144802495Y-59072599D01*
X144635401Y-58905505D01*
X144449402Y-58775267D01*
X144410539Y-58730951D01*
X144396528Y-58673694D01*
X144410539Y-58616437D01*
X144449405Y-58572119D01*
X144635078Y-58442109D01*
X144802106Y-58275081D01*
X144937600Y-58081576D01*
X145037430Y-57867492D01*
X145094636Y-57654000D01*
X142433364Y-57654000D01*
X142490569Y-57867492D01*
X142590399Y-58081576D01*
X142725893Y-58275081D01*
X142892918Y-58442106D01*
X143078595Y-58572119D01*
X143117460Y-58616437D01*
X143131471Y-58673694D01*
X143117460Y-58730951D01*
X143078595Y-58775269D01*
X142892595Y-58905508D01*
X142725505Y-59072598D01*
X142589965Y-59266170D01*
X142490097Y-59480336D01*
X142428936Y-59708592D01*
X142414854Y-59869550D01*
X142389702Y-59934229D01*
X142333736Y-59975264D01*
X142264487Y-59979803D01*
X142203645Y-59946423D01*
X140460027Y-58202805D01*
X140454893Y-58197352D01*
X140415582Y-58152979D01*
X140366793Y-58119303D01*
X140360759Y-58114863D01*
X140314104Y-58078311D01*
X140305132Y-58074273D01*
X140285585Y-58063249D01*
X140277482Y-58057656D01*
X140222044Y-58036630D01*
X140215143Y-58033772D01*
X140215134Y-58033768D01*
X140161085Y-58009443D01*
X140161083Y-58009442D01*
X140153311Y-58008018D01*
X140151398Y-58007667D01*
X140129788Y-58001643D01*
X140120583Y-57998152D01*
X140061735Y-57991006D01*
X140054332Y-57989879D01*
X139996029Y-57979195D01*
X139996028Y-57979195D01*
X139944896Y-57982287D01*
X139936861Y-57982774D01*
X139929374Y-57983000D01*
X135914625Y-57983000D01*
X135907138Y-57982774D01*
X135847969Y-57979194D01*
X135789668Y-57989878D01*
X135782268Y-57991004D01*
X135723417Y-57998151D01*
X135714203Y-58001645D01*
X135692604Y-58007666D01*
X135682916Y-58009441D01*
X135628865Y-58033768D01*
X135621956Y-58036630D01*
X135582914Y-58051437D01*
X135566515Y-58057657D01*
X135558415Y-58063248D01*
X135538876Y-58074268D01*
X135529897Y-58078309D01*
X135483237Y-58114863D01*
X135477211Y-58119297D01*
X135428418Y-58152979D01*
X135389105Y-58197352D01*
X135383973Y-58202803D01*
X135307180Y-58279596D01*
X135257817Y-58309846D01*
X135200101Y-58314388D01*
X135146614Y-58292233D01*
X135109014Y-58248210D01*
X135095499Y-58191918D01*
X135095499Y-57374128D01*
X135089091Y-57314517D01*
X135082302Y-57296316D01*
X135076075Y-57279619D01*
X135068256Y-57236284D01*
X135076075Y-57192949D01*
X135088597Y-57159376D01*
X135089175Y-57154000D01*
X142433364Y-57154000D01*
X143514000Y-57154000D01*
X143514000Y-56073364D01*
X144014000Y-56073364D01*
X144014000Y-57154000D01*
X145094636Y-57154000D01*
X145094635Y-57153999D01*
X145037430Y-56940507D01*
X144937599Y-56726421D01*
X144802109Y-56532921D01*
X144635081Y-56365893D01*
X144441576Y-56230399D01*
X144227492Y-56130569D01*
X144014000Y-56073364D01*
X143514000Y-56073364D01*
X143513999Y-56073364D01*
X143300507Y-56130569D01*
X143086421Y-56230400D01*
X142892921Y-56365890D01*
X142725890Y-56532921D01*
X142590400Y-56726421D01*
X142490569Y-56940507D01*
X142433364Y-57153999D01*
X142433364Y-57154000D01*
X135089175Y-57154000D01*
X135095000Y-57099824D01*
X135095000Y-56852000D01*
X132595000Y-56852000D01*
X132595000Y-57099824D01*
X132601402Y-57159377D01*
X132613925Y-57192952D01*
X132621743Y-57236285D01*
X132613925Y-57279617D01*
X132600909Y-57314513D01*
X132600909Y-57314517D01*
X132594500Y-57374127D01*
X132594500Y-57867492D01*
X132594501Y-58327000D01*
X132577888Y-58389000D01*
X132532501Y-58434387D01*
X132470501Y-58451000D01*
X132138176Y-58451000D01*
X132099858Y-58444931D01*
X132065291Y-58427318D01*
X132024730Y-58397849D01*
X131851802Y-58320855D01*
X131666648Y-58281500D01*
X131666646Y-58281500D01*
X131477354Y-58281500D01*
X131477352Y-58281500D01*
X131292197Y-58320855D01*
X131119269Y-58397848D01*
X130966129Y-58509110D01*
X130839466Y-58649783D01*
X130744820Y-58813715D01*
X130686326Y-58993742D01*
X130666540Y-59181999D01*
X130686326Y-59370257D01*
X130744820Y-59550284D01*
X130839466Y-59714215D01*
X130857304Y-59734026D01*
X130885471Y-59786999D01*
X130885472Y-59846995D01*
X130857307Y-59899969D01*
X130839466Y-59919783D01*
X130744820Y-60083715D01*
X130686326Y-60263742D01*
X130666540Y-60451999D01*
X130686326Y-60640257D01*
X130744820Y-60820284D01*
X130839466Y-60984216D01*
X130966129Y-61124889D01*
X131119269Y-61236151D01*
X131292197Y-61313144D01*
X131477352Y-61352500D01*
X131477354Y-61352500D01*
X131666646Y-61352500D01*
X131666648Y-61352500D01*
X131795027Y-61325212D01*
X131851803Y-61313144D01*
X132024730Y-61236151D01*
X132045124Y-61221334D01*
X132175403Y-61126682D01*
X132209970Y-61109069D01*
X132248288Y-61103000D01*
X132470500Y-61103000D01*
X132532500Y-61119613D01*
X132577887Y-61165000D01*
X132594500Y-61227000D01*
X132594500Y-62179869D01*
X132600909Y-62239485D01*
X132613658Y-62273666D01*
X132621476Y-62316997D01*
X132613659Y-62360328D01*
X132600909Y-62394513D01*
X132594500Y-62454130D01*
X132594500Y-63449869D01*
X132600909Y-63509485D01*
X132613658Y-63543667D01*
X132621476Y-63586999D01*
X132613659Y-63630330D01*
X132600909Y-63664515D01*
X132594500Y-63724130D01*
X132594500Y-64719869D01*
X132600909Y-64779485D01*
X132613658Y-64813667D01*
X132621476Y-64856999D01*
X132613659Y-64900330D01*
X132600909Y-64934515D01*
X132600908Y-64934517D01*
X132600909Y-64934517D01*
X132594964Y-64989817D01*
X132594500Y-64994130D01*
X132594500Y-65989869D01*
X132600909Y-66049485D01*
X132613658Y-66083666D01*
X132621476Y-66126997D01*
X132613659Y-66170328D01*
X132600909Y-66204513D01*
X132594500Y-66264130D01*
X132594500Y-67259869D01*
X132600909Y-67319485D01*
X132613658Y-67353666D01*
X132621476Y-67396997D01*
X132613659Y-67440328D01*
X132600909Y-67474513D01*
X132594500Y-67534130D01*
X132594500Y-68529869D01*
X132600909Y-68589485D01*
X132613658Y-68623667D01*
X132621476Y-68666999D01*
X132613659Y-68710330D01*
X132600909Y-68744515D01*
X132594500Y-68804130D01*
X132594500Y-69799869D01*
X132600909Y-69859485D01*
X132613658Y-69893667D01*
X132621476Y-69936999D01*
X132613659Y-69980330D01*
X132600909Y-70014515D01*
X132594500Y-70074130D01*
X132594500Y-71069869D01*
X132600909Y-71129485D01*
X132613658Y-71163666D01*
X132621476Y-71206997D01*
X132613659Y-71250328D01*
X132600909Y-71284513D01*
X132600909Y-71284516D01*
X132600909Y-71284517D01*
X132594799Y-71341352D01*
X132594500Y-71344130D01*
X132594500Y-72339869D01*
X132600909Y-72399485D01*
X132613658Y-72433666D01*
X132621476Y-72476997D01*
X132613659Y-72520328D01*
X132600909Y-72554513D01*
X132594500Y-72614130D01*
X132594500Y-73609869D01*
X132600909Y-73669483D01*
X132651204Y-73804331D01*
X132737454Y-73919546D01*
X132852669Y-74005796D01*
X132987517Y-74056091D01*
X133043256Y-74062083D01*
X133099503Y-74082682D01*
X133139532Y-74127245D01*
X133154000Y-74185373D01*
X133154000Y-75113417D01*
X133144561Y-75160870D01*
X133117683Y-75201095D01*
X132706777Y-75612000D01*
X132624804Y-75693973D01*
X132619352Y-75699104D01*
X132574980Y-75738415D01*
X132541298Y-75787212D01*
X132536861Y-75793243D01*
X132500312Y-75839894D01*
X132500312Y-75839895D01*
X132496269Y-75848875D01*
X132485252Y-75868409D01*
X132479656Y-75876515D01*
X132458632Y-75931950D01*
X132455768Y-75938864D01*
X132431441Y-75992917D01*
X132429666Y-76002604D01*
X132423645Y-76024203D01*
X132420153Y-76033413D01*
X132413006Y-76092266D01*
X132411879Y-76099668D01*
X132401195Y-76157971D01*
X132404774Y-76217139D01*
X132405000Y-76224626D01*
X132405000Y-76506208D01*
X132396764Y-76550647D01*
X132373150Y-76589179D01*
X132370161Y-76592500D01*
X132363464Y-76599937D01*
X132268821Y-76763864D01*
X132226944Y-76892748D01*
X132193184Y-76945485D01*
X132137960Y-76975003D01*
X132075354Y-76973773D01*
X132021332Y-76942110D01*
X131542319Y-76463097D01*
X131515439Y-76422869D01*
X131506000Y-76375416D01*
X131506000Y-75618862D01*
X131519116Y-75563358D01*
X131555689Y-75519595D01*
X131576866Y-75503742D01*
X131622546Y-75469546D01*
X131708796Y-75354331D01*
X131759091Y-75219483D01*
X131765500Y-75159873D01*
X131765499Y-73564128D01*
X131759091Y-73504517D01*
X131708796Y-73369669D01*
X131622546Y-73254454D01*
X131507331Y-73168204D01*
X131372483Y-73117909D01*
X131312873Y-73111500D01*
X131312869Y-73111500D01*
X130317130Y-73111500D01*
X130257516Y-73117909D01*
X130223331Y-73130659D01*
X130180000Y-73138476D01*
X130136668Y-73130658D01*
X130102486Y-73117909D01*
X130076935Y-73115162D01*
X130042873Y-73111500D01*
X130042869Y-73111500D01*
X129047130Y-73111500D01*
X128987516Y-73117909D01*
X128953331Y-73130659D01*
X128910000Y-73138476D01*
X128866668Y-73130658D01*
X128832486Y-73117909D01*
X128806935Y-73115162D01*
X128772873Y-73111500D01*
X128772869Y-73111500D01*
X127777130Y-73111500D01*
X127717516Y-73117909D01*
X127683331Y-73130659D01*
X127640000Y-73138476D01*
X127596668Y-73130658D01*
X127562486Y-73117909D01*
X127536935Y-73115162D01*
X127502873Y-73111500D01*
X127502869Y-73111500D01*
X126507130Y-73111500D01*
X126447516Y-73117909D01*
X126413331Y-73130659D01*
X126370000Y-73138476D01*
X126326668Y-73130658D01*
X126292486Y-73117909D01*
X126266935Y-73115162D01*
X126232873Y-73111500D01*
X126232869Y-73111500D01*
X125237130Y-73111500D01*
X125177516Y-73117909D01*
X125143331Y-73130659D01*
X125100000Y-73138476D01*
X125056668Y-73130658D01*
X125022486Y-73117909D01*
X124996935Y-73115162D01*
X124962873Y-73111500D01*
X124962869Y-73111500D01*
X123967130Y-73111500D01*
X123907516Y-73117909D01*
X123873331Y-73130659D01*
X123830000Y-73138476D01*
X123786668Y-73130658D01*
X123752486Y-73117909D01*
X123726935Y-73115162D01*
X123692873Y-73111500D01*
X123692869Y-73111500D01*
X122697130Y-73111500D01*
X122637516Y-73117909D01*
X122603331Y-73130659D01*
X122560000Y-73138476D01*
X122516668Y-73130658D01*
X122482486Y-73117909D01*
X122456935Y-73115162D01*
X122422873Y-73111500D01*
X122422869Y-73111500D01*
X121427130Y-73111500D01*
X121367516Y-73117909D01*
X121333331Y-73130659D01*
X121290000Y-73138476D01*
X121246668Y-73130658D01*
X121212486Y-73117909D01*
X121186935Y-73115162D01*
X121152873Y-73111500D01*
X121152869Y-73111500D01*
X120157130Y-73111500D01*
X120097514Y-73117909D01*
X120062617Y-73130925D01*
X120019284Y-73138743D01*
X119975952Y-73130925D01*
X119942377Y-73118402D01*
X119882824Y-73112000D01*
X119635000Y-73112000D01*
X119635000Y-75612000D01*
X119882824Y-75612000D01*
X119942376Y-75605597D01*
X119975949Y-75593075D01*
X120019284Y-75585256D01*
X120062618Y-75593074D01*
X120076001Y-75598066D01*
X120096192Y-75605597D01*
X120097517Y-75606091D01*
X120157127Y-75612500D01*
X121152872Y-75612499D01*
X121212483Y-75606091D01*
X121246665Y-75593341D01*
X121289999Y-75585523D01*
X121333332Y-75593340D01*
X121367517Y-75606091D01*
X121427127Y-75612500D01*
X122422872Y-75612499D01*
X122482483Y-75606091D01*
X122516665Y-75593341D01*
X122559999Y-75585523D01*
X122603332Y-75593340D01*
X122637517Y-75606091D01*
X122697127Y-75612500D01*
X123692872Y-75612499D01*
X123752483Y-75606091D01*
X123786665Y-75593341D01*
X123829999Y-75585523D01*
X123873332Y-75593340D01*
X123907517Y-75606091D01*
X123967127Y-75612500D01*
X124962872Y-75612499D01*
X125022483Y-75606091D01*
X125056665Y-75593341D01*
X125099999Y-75585523D01*
X125143332Y-75593340D01*
X125177517Y-75606091D01*
X125237127Y-75612500D01*
X126232872Y-75612499D01*
X126292483Y-75606091D01*
X126326665Y-75593341D01*
X126369999Y-75585523D01*
X126413332Y-75593340D01*
X126447517Y-75606091D01*
X126507127Y-75612500D01*
X127502872Y-75612499D01*
X127562483Y-75606091D01*
X127596665Y-75593341D01*
X127639999Y-75585523D01*
X127683332Y-75593340D01*
X127717517Y-75606091D01*
X127777127Y-75612500D01*
X128772872Y-75612499D01*
X128832483Y-75606091D01*
X128866665Y-75593341D01*
X128909999Y-75585523D01*
X128953332Y-75593340D01*
X128987517Y-75606091D01*
X129047127Y-75612500D01*
X130000000Y-75612499D01*
X130062000Y-75629112D01*
X130107387Y-75674499D01*
X130124000Y-75736499D01*
X130124000Y-76688374D01*
X130123774Y-76695861D01*
X130120195Y-76755029D01*
X130130879Y-76813332D01*
X130132006Y-76820735D01*
X130139152Y-76879583D01*
X130142643Y-76888788D01*
X130148668Y-76910400D01*
X130150442Y-76920083D01*
X130150443Y-76920085D01*
X130161651Y-76944990D01*
X130174772Y-76974143D01*
X130177630Y-76981044D01*
X130198655Y-77036481D01*
X130198656Y-77036482D01*
X130204249Y-77044585D01*
X130215273Y-77064132D01*
X130219311Y-77073104D01*
X130255863Y-77119759D01*
X130260303Y-77125793D01*
X130293980Y-77174583D01*
X130329632Y-77206168D01*
X130338352Y-77213893D01*
X130343805Y-77219027D01*
X131151918Y-78027140D01*
X131176157Y-78061437D01*
X131187557Y-78101857D01*
X131189738Y-78122599D01*
X131194326Y-78166257D01*
X131252820Y-78346284D01*
X131347466Y-78510216D01*
X131474129Y-78650889D01*
X131627269Y-78762151D01*
X131800197Y-78839144D01*
X131985352Y-78878500D01*
X131985354Y-78878500D01*
X132174646Y-78878500D01*
X132174648Y-78878500D01*
X132309171Y-78849906D01*
X132359803Y-78839144D01*
X132532730Y-78762151D01*
X132559100Y-78742992D01*
X132685870Y-78650889D01*
X132703216Y-78631625D01*
X132812533Y-78510216D01*
X132907179Y-78346284D01*
X132965674Y-78166256D01*
X132968046Y-78143685D01*
X132988565Y-78087311D01*
X133033151Y-78047165D01*
X133091366Y-78032650D01*
X133190648Y-78032650D01*
X133367734Y-77995009D01*
X133375803Y-77993294D01*
X133548730Y-77916301D01*
X133656530Y-77837980D01*
X133701870Y-77805039D01*
X133723284Y-77781257D01*
X133828533Y-77664366D01*
X133923179Y-77500434D01*
X133981674Y-77320406D01*
X134001460Y-77132150D01*
X133981674Y-76943894D01*
X133939252Y-76813332D01*
X133923179Y-76763865D01*
X133822017Y-76588647D01*
X133824189Y-76587392D01*
X133805043Y-76550604D01*
X133806670Y-76488535D01*
X133838183Y-76435037D01*
X134287280Y-75985940D01*
X134287283Y-75985939D01*
X134405939Y-75867283D01*
X134423850Y-75837652D01*
X134432342Y-75825349D01*
X134453688Y-75798105D01*
X134467892Y-75766543D01*
X134474848Y-75753292D01*
X134492751Y-75723678D01*
X134503047Y-75690633D01*
X134508353Y-75676645D01*
X134522558Y-75645085D01*
X134528799Y-75611021D01*
X134532377Y-75596510D01*
X134542673Y-75563471D01*
X134544762Y-75528929D01*
X134546567Y-75514066D01*
X134552805Y-75480028D01*
X134550715Y-75445487D01*
X134550715Y-75430512D01*
X134551289Y-75421027D01*
X134552805Y-75395972D01*
X134546566Y-75361932D01*
X134544762Y-75347068D01*
X134543596Y-75327793D01*
X134542673Y-75312529D01*
X134541614Y-75309130D01*
X134536000Y-75272241D01*
X134536000Y-74185372D01*
X134550469Y-74127244D01*
X134590498Y-74082681D01*
X134646745Y-74062082D01*
X134702483Y-74056091D01*
X134837331Y-74005796D01*
X134952546Y-73919546D01*
X135002595Y-73852688D01*
X135046358Y-73816116D01*
X135101862Y-73803000D01*
X135631433Y-73803000D01*
X135681648Y-73813623D01*
X135723260Y-73843671D01*
X135749139Y-73887996D01*
X135760186Y-73921334D01*
X135852288Y-74070657D01*
X135976342Y-74194711D01*
X136025152Y-74224817D01*
X136125666Y-74286814D01*
X136214999Y-74316416D01*
X136292202Y-74341999D01*
X136302702Y-74343071D01*
X136394991Y-74352500D01*
X137195008Y-74352499D01*
X137297797Y-74341999D01*
X137464334Y-74286814D01*
X137613656Y-74194712D01*
X137707320Y-74101047D01*
X137762906Y-74068955D01*
X137827094Y-74068955D01*
X137882679Y-74101047D01*
X137931039Y-74149407D01*
X137956682Y-74175050D01*
X137983561Y-74215279D01*
X137993000Y-74262731D01*
X137993000Y-74846416D01*
X137983561Y-74893869D01*
X137956681Y-74934097D01*
X136551595Y-76339181D01*
X136511367Y-76366061D01*
X136463914Y-76375500D01*
X134704130Y-76375500D01*
X134644515Y-76381909D01*
X134509669Y-76432204D01*
X134394454Y-76518454D01*
X134308204Y-76633668D01*
X134257909Y-76768515D01*
X134257909Y-76768517D01*
X134252695Y-76817019D01*
X134251500Y-76828130D01*
X134251500Y-78923869D01*
X134257909Y-78983484D01*
X134283056Y-79050907D01*
X134308204Y-79118331D01*
X134394454Y-79233546D01*
X134509669Y-79319796D01*
X134544585Y-79332818D01*
X134599446Y-79373280D01*
X134624631Y-79436626D01*
X134612527Y-79503711D01*
X134566793Y-79554262D01*
X134501250Y-79573000D01*
X129116820Y-79573000D01*
X129051212Y-79554222D01*
X129005475Y-79503574D01*
X128993462Y-79436397D01*
X128998000Y-79391978D01*
X128998000Y-79117000D01*
X127784500Y-79117000D01*
X127722500Y-79100387D01*
X127677113Y-79055000D01*
X127660500Y-78993000D01*
X127660500Y-77642001D01*
X127523021Y-77642001D01*
X127420304Y-77652493D01*
X127253877Y-77707642D01*
X127104654Y-77799683D01*
X126980683Y-77923654D01*
X126978830Y-77926659D01*
X126933721Y-77969838D01*
X126873289Y-77985559D01*
X126812857Y-77969834D01*
X126767752Y-77926652D01*
X126765903Y-77923654D01*
X126765712Y-77923344D01*
X126765710Y-77923342D01*
X126765709Y-77923340D01*
X126641657Y-77799288D01*
X126492334Y-77707186D01*
X126325797Y-77652000D01*
X126227904Y-77642000D01*
X128160500Y-77642000D01*
X128160500Y-78617000D01*
X128997999Y-78617000D01*
X128997999Y-78342021D01*
X128987506Y-78239304D01*
X128932357Y-78072877D01*
X128840316Y-77923654D01*
X128716345Y-77799683D01*
X128567122Y-77707642D01*
X128400696Y-77652493D01*
X128297979Y-77642000D01*
X128160500Y-77642000D01*
X126227904Y-77642000D01*
X126223009Y-77641500D01*
X125447991Y-77641500D01*
X125345203Y-77652000D01*
X125178665Y-77707186D01*
X125029342Y-77799288D01*
X124905288Y-77923342D01*
X124813186Y-78072665D01*
X124758000Y-78239202D01*
X124747500Y-78341991D01*
X124747500Y-78926416D01*
X124738061Y-78973869D01*
X124711181Y-79014097D01*
X123030597Y-80694681D01*
X122990369Y-80721561D01*
X122942916Y-80731000D01*
X122868389Y-80731000D01*
X122813544Y-80718212D01*
X122770012Y-80682485D01*
X122746771Y-80631188D01*
X122745499Y-80624790D01*
X122732417Y-80559014D01*
X122690240Y-80495892D01*
X122682578Y-80484424D01*
X122682574Y-80484421D01*
X122666108Y-80473418D01*
X122625642Y-80428772D01*
X122611000Y-80370318D01*
X122611000Y-78598730D01*
X122620439Y-78551277D01*
X122647316Y-78511051D01*
X122744712Y-78413656D01*
X122836814Y-78264334D01*
X122891999Y-78097797D01*
X122902500Y-77995009D01*
X122902499Y-76944992D01*
X122891999Y-76842203D01*
X122836814Y-76675666D01*
X122759676Y-76550604D01*
X122744711Y-76526342D01*
X122620657Y-76402288D01*
X122471334Y-76310186D01*
X122304797Y-76255000D01*
X122202009Y-76244500D01*
X121426991Y-76244500D01*
X121324203Y-76255000D01*
X121157665Y-76310186D01*
X121008342Y-76402288D01*
X120884286Y-76526344D01*
X120882537Y-76529181D01*
X120837431Y-76572360D01*
X120777000Y-76588082D01*
X120716569Y-76572360D01*
X120671463Y-76529181D01*
X120669713Y-76526344D01*
X120545657Y-76402288D01*
X120396334Y-76310186D01*
X120229797Y-76255000D01*
X120127009Y-76244500D01*
X119351991Y-76244500D01*
X119249203Y-76255000D01*
X119082665Y-76310186D01*
X118933342Y-76402288D01*
X118809288Y-76526342D01*
X118717186Y-76675665D01*
X118662000Y-76842202D01*
X118651500Y-76944990D01*
X118651500Y-77995008D01*
X118662000Y-78097796D01*
X118717186Y-78264334D01*
X118809288Y-78413657D01*
X118817523Y-78421892D01*
X118849617Y-78477479D01*
X118849617Y-78541667D01*
X118817523Y-78597254D01*
X117101836Y-80312941D01*
X117048635Y-80380847D01*
X117015973Y-80410003D01*
X116975214Y-80425991D01*
X116932012Y-80434583D01*
X116857423Y-80484421D01*
X116807583Y-80559013D01*
X116794500Y-80624790D01*
X116794500Y-80633515D01*
X116778210Y-80694952D01*
X116733621Y-80740247D01*
X116633888Y-80799228D01*
X116522228Y-80910888D01*
X116441844Y-81046810D01*
X116397789Y-81198447D01*
X116395000Y-81233891D01*
X116395000Y-81257000D01*
X116378387Y-81319000D01*
X116333000Y-81364387D01*
X116271000Y-81381000D01*
X114921584Y-81381000D01*
X114874131Y-81371561D01*
X114833903Y-81344681D01*
X111377027Y-77887805D01*
X111371893Y-77882352D01*
X111332582Y-77837979D01*
X111283793Y-77804303D01*
X111277759Y-77799863D01*
X111231104Y-77763311D01*
X111222132Y-77759273D01*
X111202585Y-77748249D01*
X111194482Y-77742656D01*
X111139044Y-77721630D01*
X111132143Y-77718772D01*
X111078083Y-77694442D01*
X111070311Y-77693018D01*
X111068398Y-77692667D01*
X111046788Y-77686643D01*
X111037583Y-77683152D01*
X110978735Y-77676006D01*
X110971332Y-77674879D01*
X110913029Y-77664195D01*
X110913028Y-77664195D01*
X110870905Y-77666743D01*
X110853861Y-77667774D01*
X110846374Y-77668000D01*
X109430583Y-77668000D01*
X109383130Y-77658561D01*
X109342902Y-77631681D01*
X108313475Y-76602254D01*
X108280095Y-76541411D01*
X108284634Y-76472162D01*
X108325670Y-76416197D01*
X108390350Y-76391045D01*
X108401657Y-76390055D01*
X108607861Y-76334802D01*
X108801325Y-76244589D01*
X108857030Y-76205583D01*
X107835448Y-75184001D01*
X108542553Y-75184001D01*
X109210583Y-75852030D01*
X109249589Y-75796325D01*
X109339802Y-75602861D01*
X109395055Y-75396657D01*
X109413660Y-75184000D01*
X109395055Y-74971342D01*
X109339802Y-74765138D01*
X109249587Y-74571670D01*
X109210583Y-74515967D01*
X108542553Y-75184000D01*
X108542553Y-75184001D01*
X107835448Y-75184001D01*
X107167414Y-74515967D01*
X107128411Y-74571672D01*
X107038197Y-74765138D01*
X106982944Y-74971342D01*
X106981954Y-74982655D01*
X106956799Y-75047332D01*
X106900834Y-75088365D01*
X106831586Y-75092902D01*
X106770745Y-75059523D01*
X106376319Y-74665097D01*
X106349439Y-74624869D01*
X106340000Y-74577416D01*
X106340000Y-74162414D01*
X107520967Y-74162414D01*
X108189000Y-74830447D01*
X108189001Y-74830447D01*
X108857031Y-74162416D01*
X108857030Y-74162415D01*
X108801326Y-74123410D01*
X108607861Y-74033197D01*
X108401657Y-73977944D01*
X108189000Y-73959339D01*
X107976342Y-73977944D01*
X107770138Y-74033197D01*
X107576672Y-74123411D01*
X107520967Y-74162414D01*
X106340000Y-74162414D01*
X106340000Y-73714662D01*
X106354011Y-73657405D01*
X106392877Y-73613087D01*
X106436519Y-73582529D01*
X106587529Y-73431519D01*
X106710021Y-73256581D01*
X106800276Y-73063030D01*
X106855549Y-72856747D01*
X106874162Y-72644000D01*
X106855549Y-72431253D01*
X106800276Y-72224970D01*
X106710021Y-72031419D01*
X106671761Y-71976778D01*
X106587528Y-71856479D01*
X106436520Y-71705471D01*
X106261582Y-71582979D01*
X106068031Y-71492724D01*
X105861744Y-71437450D01*
X105649000Y-71418837D01*
X105436255Y-71437450D01*
X105229968Y-71492724D01*
X105036417Y-71582979D01*
X104861479Y-71705471D01*
X104710471Y-71856479D01*
X104587979Y-72031417D01*
X104497724Y-72224968D01*
X104442450Y-72431255D01*
X104423837Y-72643999D01*
X102743500Y-72643999D01*
X102743500Y-70104000D01*
X106963837Y-70104000D01*
X106982450Y-70316744D01*
X107037724Y-70523031D01*
X107127979Y-70716582D01*
X107250471Y-70891520D01*
X107401479Y-71042528D01*
X107576417Y-71165020D01*
X107576418Y-71165020D01*
X107576419Y-71165021D01*
X107769970Y-71255276D01*
X107976253Y-71310549D01*
X108118084Y-71322957D01*
X108188999Y-71329162D01*
X108188999Y-71329161D01*
X108189000Y-71329162D01*
X108401747Y-71310549D01*
X108608030Y-71255276D01*
X108801581Y-71165021D01*
X108976519Y-71042529D01*
X109127529Y-70891519D01*
X109250021Y-70716581D01*
X109340276Y-70523030D01*
X109395549Y-70316747D01*
X109414162Y-70104000D01*
X109395549Y-69891253D01*
X109340276Y-69684970D01*
X109250021Y-69491419D01*
X109240363Y-69477626D01*
X109127528Y-69316479D01*
X108976520Y-69165471D01*
X108801582Y-69042979D01*
X108608031Y-68952724D01*
X108401744Y-68897450D01*
X108189000Y-68878837D01*
X107976255Y-68897450D01*
X107769968Y-68952724D01*
X107576417Y-69042979D01*
X107401479Y-69165471D01*
X107250471Y-69316479D01*
X107127979Y-69491417D01*
X107037724Y-69684968D01*
X106982450Y-69891255D01*
X106963837Y-70104000D01*
X102743500Y-70104000D01*
X102743500Y-58829008D01*
X107740500Y-58829008D01*
X107751000Y-58931796D01*
X107806186Y-59098334D01*
X107898288Y-59247657D01*
X108022342Y-59371711D01*
X108038213Y-59381500D01*
X108171666Y-59463814D01*
X108283016Y-59500712D01*
X108338202Y-59518999D01*
X108348702Y-59520071D01*
X108440991Y-59529500D01*
X109491008Y-59529499D01*
X109593797Y-59518999D01*
X109760334Y-59463814D01*
X109863903Y-59399932D01*
X109926296Y-59381500D01*
X109989432Y-59397194D01*
X110035934Y-59442692D01*
X110053000Y-59505471D01*
X110053000Y-62446211D01*
X110037277Y-62506643D01*
X109994097Y-62551749D01*
X109979540Y-62560727D01*
X109941341Y-62584289D01*
X109817288Y-62708342D01*
X109725186Y-62857665D01*
X109670000Y-63024202D01*
X109659500Y-63126990D01*
X109659500Y-64127008D01*
X109670000Y-64229796D01*
X109725186Y-64396334D01*
X109817288Y-64545657D01*
X109941342Y-64669711D01*
X109997745Y-64704500D01*
X110090666Y-64761814D01*
X110189686Y-64794626D01*
X110257202Y-64816999D01*
X110266729Y-64817972D01*
X110359991Y-64827500D01*
X110534915Y-64827499D01*
X110582367Y-64836938D01*
X110622596Y-64863818D01*
X112429681Y-66670902D01*
X112456561Y-66711130D01*
X112466000Y-66758583D01*
X112466000Y-72238374D01*
X112465774Y-72245861D01*
X112462195Y-72305029D01*
X112472879Y-72363332D01*
X112474006Y-72370735D01*
X112481152Y-72429583D01*
X112484643Y-72438788D01*
X112490668Y-72460400D01*
X112492442Y-72470083D01*
X112516772Y-72524143D01*
X112519630Y-72531044D01*
X112528533Y-72554517D01*
X112540656Y-72586482D01*
X112546249Y-72594585D01*
X112557273Y-72614132D01*
X112561311Y-72623104D01*
X112597863Y-72669759D01*
X112602303Y-72675793D01*
X112635979Y-72724582D01*
X112680352Y-72763893D01*
X112685805Y-72769027D01*
X116079979Y-76163201D01*
X116085099Y-76168639D01*
X116124417Y-76213020D01*
X116135797Y-76220875D01*
X116173214Y-76246703D01*
X116179233Y-76251132D01*
X116201890Y-76268882D01*
X116225892Y-76287687D01*
X116225893Y-76287687D01*
X116225894Y-76287688D01*
X116234870Y-76291727D01*
X116254417Y-76302752D01*
X116262518Y-76308344D01*
X116317942Y-76329363D01*
X116324851Y-76332225D01*
X116378915Y-76356557D01*
X116388602Y-76358332D01*
X116410208Y-76364355D01*
X116419418Y-76367848D01*
X116478276Y-76374994D01*
X116485630Y-76376113D01*
X116543971Y-76386805D01*
X116603137Y-76383226D01*
X116610625Y-76383000D01*
X116726768Y-76383000D01*
X116765086Y-76389069D01*
X116799652Y-76406681D01*
X116895270Y-76476151D01*
X116895271Y-76476151D01*
X116895272Y-76476152D01*
X117068197Y-76553144D01*
X117253352Y-76592500D01*
X117253354Y-76592500D01*
X117442646Y-76592500D01*
X117442648Y-76592500D01*
X117566083Y-76566262D01*
X117627803Y-76553144D01*
X117800730Y-76476151D01*
X117861218Y-76432204D01*
X117953870Y-76364889D01*
X118080533Y-76224216D01*
X118175179Y-76060284D01*
X118197068Y-75992917D01*
X118233674Y-75880256D01*
X118253460Y-75692000D01*
X118233674Y-75503744D01*
X118187597Y-75361934D01*
X118175179Y-75323715D01*
X118080533Y-75159783D01*
X117953870Y-75019110D01*
X117800730Y-74907848D01*
X117627802Y-74830855D01*
X117442648Y-74791500D01*
X117442646Y-74791500D01*
X117253354Y-74791500D01*
X117253352Y-74791500D01*
X117068201Y-74830854D01*
X116892723Y-74908983D01*
X116844451Y-74919684D01*
X116795836Y-74910674D01*
X116754606Y-74883384D01*
X116483222Y-74612000D01*
X118435000Y-74612000D01*
X118435000Y-75159824D01*
X118441402Y-75219375D01*
X118491647Y-75354089D01*
X118577811Y-75469188D01*
X118692910Y-75555352D01*
X118827624Y-75605597D01*
X118887176Y-75612000D01*
X119135000Y-75612000D01*
X119135000Y-74612000D01*
X118435000Y-74612000D01*
X116483222Y-74612000D01*
X116145402Y-74274180D01*
X116115152Y-74224817D01*
X116110610Y-74167101D01*
X116132765Y-74113614D01*
X116134655Y-74112000D01*
X118435000Y-74112000D01*
X119135000Y-74112000D01*
X119135000Y-73112000D01*
X118887176Y-73112000D01*
X118827624Y-73118402D01*
X118692910Y-73168647D01*
X118577811Y-73254811D01*
X118491647Y-73369910D01*
X118441402Y-73504624D01*
X118435000Y-73564176D01*
X118435000Y-74112000D01*
X116134655Y-74112000D01*
X116176788Y-74076014D01*
X116233083Y-74062499D01*
X117142870Y-74062499D01*
X117142872Y-74062499D01*
X117202483Y-74056091D01*
X117337331Y-74005796D01*
X117452546Y-73919546D01*
X117538796Y-73804331D01*
X117589091Y-73669483D01*
X117595500Y-73609873D01*
X117595499Y-72614128D01*
X117589091Y-72554517D01*
X117576340Y-72520331D01*
X117568523Y-72476999D01*
X117576342Y-72433665D01*
X117589090Y-72399485D01*
X117589089Y-72399485D01*
X117589091Y-72399483D01*
X117595500Y-72339873D01*
X117595499Y-71344128D01*
X117589091Y-71284517D01*
X117576340Y-71250331D01*
X117568523Y-71206999D01*
X117576342Y-71163665D01*
X117584366Y-71142152D01*
X117589091Y-71129483D01*
X117595500Y-71069873D01*
X117595499Y-70074128D01*
X117589091Y-70014517D01*
X117576340Y-69980330D01*
X117568523Y-69937000D01*
X117576342Y-69893665D01*
X117589090Y-69859485D01*
X117589089Y-69859485D01*
X117589091Y-69859483D01*
X117595500Y-69799873D01*
X117595499Y-68804128D01*
X117589091Y-68744517D01*
X117576340Y-68710330D01*
X117568523Y-68667000D01*
X117576342Y-68623665D01*
X117589090Y-68589485D01*
X117589089Y-68589485D01*
X117589091Y-68589483D01*
X117595500Y-68529873D01*
X117595499Y-67534128D01*
X117589091Y-67474517D01*
X117576340Y-67440331D01*
X117568523Y-67396999D01*
X117576342Y-67353665D01*
X117589090Y-67319485D01*
X117589089Y-67319485D01*
X117589091Y-67319483D01*
X117595500Y-67259873D01*
X117595499Y-66264128D01*
X117589091Y-66204517D01*
X117576340Y-66170331D01*
X117568523Y-66127000D01*
X117576342Y-66083665D01*
X117589090Y-66049485D01*
X117589089Y-66049485D01*
X117589091Y-66049483D01*
X117595500Y-65989873D01*
X117595499Y-64994128D01*
X117589091Y-64934517D01*
X117576340Y-64900330D01*
X117568523Y-64857000D01*
X117576342Y-64813665D01*
X117589090Y-64779485D01*
X117589089Y-64779485D01*
X117589091Y-64779483D01*
X117595500Y-64719873D01*
X117595499Y-64192000D01*
X121815000Y-64192000D01*
X121815000Y-66089824D01*
X121821402Y-66149375D01*
X121871647Y-66284089D01*
X121957811Y-66399188D01*
X122072910Y-66485352D01*
X122207624Y-66535597D01*
X122267176Y-66542000D01*
X124165000Y-66542000D01*
X124665000Y-66542000D01*
X126562824Y-66542000D01*
X126622375Y-66535597D01*
X126757089Y-66485352D01*
X126872188Y-66399188D01*
X126958352Y-66284089D01*
X127008597Y-66149375D01*
X127015000Y-66089824D01*
X127015000Y-64192000D01*
X126190000Y-64192000D01*
X126190000Y-64600947D01*
X126205872Y-64616819D01*
X126237966Y-64672406D01*
X126237966Y-64736594D01*
X126205872Y-64792181D01*
X126190000Y-64808052D01*
X126190000Y-65593000D01*
X126173387Y-65655000D01*
X126128000Y-65700387D01*
X126066000Y-65717000D01*
X125281052Y-65717000D01*
X125265181Y-65732872D01*
X125209594Y-65764966D01*
X125145406Y-65764966D01*
X125089819Y-65732872D01*
X125073947Y-65717000D01*
X124665000Y-65717000D01*
X124665000Y-66542000D01*
X124165000Y-66542000D01*
X124165000Y-65717000D01*
X123756052Y-65717000D01*
X123740181Y-65732872D01*
X123684594Y-65764966D01*
X123620406Y-65764966D01*
X123564819Y-65732872D01*
X123548947Y-65717000D01*
X122764000Y-65717000D01*
X122702000Y-65700387D01*
X122656613Y-65655000D01*
X122640000Y-65593000D01*
X122640000Y-64808054D01*
X122639999Y-64808052D01*
X122624128Y-64792181D01*
X122592034Y-64736594D01*
X122592034Y-64704500D01*
X123243553Y-64704500D01*
X123652500Y-65113447D01*
X124061447Y-64704500D01*
X124768553Y-64704500D01*
X125177500Y-65113447D01*
X125586447Y-64704500D01*
X125177500Y-64295553D01*
X124768553Y-64704500D01*
X124061447Y-64704500D01*
X123652500Y-64295553D01*
X123243553Y-64704500D01*
X122592034Y-64704500D01*
X122592034Y-64672406D01*
X122624128Y-64616819D01*
X122639999Y-64600947D01*
X122640000Y-64600947D01*
X122640000Y-64192000D01*
X121815000Y-64192000D01*
X117595499Y-64192000D01*
X117595499Y-63724128D01*
X117592045Y-63692000D01*
X121815000Y-63692000D01*
X122640000Y-63692000D01*
X122640000Y-63283054D01*
X122639999Y-63283052D01*
X122624128Y-63267181D01*
X122592034Y-63211594D01*
X122592034Y-63179500D01*
X123243553Y-63179500D01*
X123652500Y-63588447D01*
X124061447Y-63179500D01*
X124768553Y-63179500D01*
X125177500Y-63588447D01*
X125586447Y-63179500D01*
X125177500Y-62770553D01*
X124768553Y-63179500D01*
X124061447Y-63179500D01*
X123652500Y-62770553D01*
X123243553Y-63179500D01*
X122592034Y-63179500D01*
X122592034Y-63147406D01*
X122624128Y-63091819D01*
X122639999Y-63075947D01*
X122640000Y-63075947D01*
X122640000Y-62291000D01*
X122656613Y-62229000D01*
X122702000Y-62183613D01*
X122764000Y-62167000D01*
X123548947Y-62167000D01*
X123548947Y-62166999D01*
X123564819Y-62151128D01*
X123620406Y-62119034D01*
X123684594Y-62119034D01*
X123740181Y-62151128D01*
X123756053Y-62167000D01*
X124165000Y-62167000D01*
X124165000Y-61342000D01*
X124665000Y-61342000D01*
X124665000Y-62167000D01*
X125073947Y-62167000D01*
X125073947Y-62166999D01*
X125089819Y-62151128D01*
X125145406Y-62119034D01*
X125209594Y-62119034D01*
X125265181Y-62151128D01*
X125281053Y-62167000D01*
X126066000Y-62167000D01*
X126128000Y-62183613D01*
X126173387Y-62229000D01*
X126190000Y-62291000D01*
X126190000Y-63075947D01*
X126205872Y-63091819D01*
X126237966Y-63147406D01*
X126237966Y-63211594D01*
X126205872Y-63267181D01*
X126190000Y-63283052D01*
X126190000Y-63692000D01*
X127015000Y-63692000D01*
X127015000Y-61794176D01*
X127008597Y-61734624D01*
X126958352Y-61599910D01*
X126872188Y-61484811D01*
X126757089Y-61398647D01*
X126622375Y-61348402D01*
X126562824Y-61342000D01*
X124665000Y-61342000D01*
X124165000Y-61342000D01*
X122267176Y-61342000D01*
X122207624Y-61348402D01*
X122072910Y-61398647D01*
X121957811Y-61484811D01*
X121871647Y-61599910D01*
X121821402Y-61734624D01*
X121815000Y-61794176D01*
X121815000Y-63692000D01*
X117592045Y-63692000D01*
X117589091Y-63664517D01*
X117576340Y-63630330D01*
X117568523Y-63587000D01*
X117576342Y-63543665D01*
X117589090Y-63509485D01*
X117589089Y-63509485D01*
X117589091Y-63509483D01*
X117595500Y-63449873D01*
X117595499Y-62454128D01*
X117589091Y-62394517D01*
X117576340Y-62360331D01*
X117568523Y-62316999D01*
X117576342Y-62273665D01*
X117582517Y-62257108D01*
X117589091Y-62239483D01*
X117595500Y-62179873D01*
X117595499Y-61184128D01*
X117589091Y-61124517D01*
X117576340Y-61090330D01*
X117568523Y-61047000D01*
X117576342Y-61003665D01*
X117589090Y-60969485D01*
X117589089Y-60969485D01*
X117589091Y-60969483D01*
X117595500Y-60909873D01*
X117595499Y-59914128D01*
X117589091Y-59854517D01*
X117576340Y-59820331D01*
X117568523Y-59777000D01*
X117576342Y-59733665D01*
X117583596Y-59714215D01*
X117589091Y-59699483D01*
X117595500Y-59639873D01*
X117595499Y-58644128D01*
X117589091Y-58584517D01*
X117576340Y-58550331D01*
X117568523Y-58506999D01*
X117576342Y-58463665D01*
X117589090Y-58429485D01*
X117589089Y-58429485D01*
X117589091Y-58429483D01*
X117595500Y-58369873D01*
X117595499Y-57374128D01*
X117589091Y-57314517D01*
X117582302Y-57296316D01*
X117576075Y-57279619D01*
X117568256Y-57236284D01*
X117576075Y-57192949D01*
X117588597Y-57159376D01*
X117595000Y-57099824D01*
X117595000Y-56852000D01*
X115095000Y-56852000D01*
X115095000Y-57099824D01*
X115101402Y-57159377D01*
X115113925Y-57192952D01*
X115121743Y-57236285D01*
X115113925Y-57279617D01*
X115100909Y-57314513D01*
X115094500Y-57374131D01*
X115094500Y-57401916D01*
X115085061Y-57449369D01*
X115058181Y-57489597D01*
X114833616Y-57714161D01*
X114786646Y-57743606D01*
X114731539Y-57749642D01*
X114679309Y-57731060D01*
X114640396Y-57691577D01*
X114605712Y-57635344D01*
X114481656Y-57511288D01*
X114478344Y-57509245D01*
X114435163Y-57464138D01*
X114419440Y-57403704D01*
X114435164Y-57343271D01*
X114478348Y-57298164D01*
X114481348Y-57296313D01*
X114605316Y-57172345D01*
X114697357Y-57023122D01*
X114752506Y-56856696D01*
X114763000Y-56753979D01*
X114763000Y-56616500D01*
X107741001Y-56616500D01*
X107741001Y-56753979D01*
X107751493Y-56856695D01*
X107806642Y-57023122D01*
X107898683Y-57172345D01*
X108022654Y-57296316D01*
X108025656Y-57298168D01*
X108068835Y-57343274D01*
X108084558Y-57403704D01*
X108068837Y-57464135D01*
X108025659Y-57509242D01*
X108022344Y-57511286D01*
X107898288Y-57635342D01*
X107806186Y-57784665D01*
X107751000Y-57951202D01*
X107740500Y-58053990D01*
X107740500Y-58829008D01*
X102743500Y-58829008D01*
X102743500Y-56352000D01*
X115095000Y-56352000D01*
X116095000Y-56352000D01*
X116095000Y-55652000D01*
X116595000Y-55652000D01*
X116595000Y-56352000D01*
X117595000Y-56352000D01*
X132595000Y-56352000D01*
X133595000Y-56352000D01*
X133595000Y-55652000D01*
X134095000Y-55652000D01*
X134095000Y-56352000D01*
X135095000Y-56352000D01*
X135095000Y-56104176D01*
X135088597Y-56044624D01*
X135038352Y-55909910D01*
X134952188Y-55794811D01*
X134837089Y-55708647D01*
X134702375Y-55658402D01*
X134642824Y-55652000D01*
X134095000Y-55652000D01*
X133595000Y-55652000D01*
X133047176Y-55652000D01*
X132987624Y-55658402D01*
X132852910Y-55708647D01*
X132737811Y-55794811D01*
X132651647Y-55909910D01*
X132601402Y-56044624D01*
X132595000Y-56104176D01*
X132595000Y-56352000D01*
X117595000Y-56352000D01*
X117595000Y-56104176D01*
X117588597Y-56044624D01*
X117538352Y-55909910D01*
X117452188Y-55794811D01*
X117337089Y-55708647D01*
X117202375Y-55658402D01*
X117142824Y-55652000D01*
X116595000Y-55652000D01*
X116095000Y-55652000D01*
X115547176Y-55652000D01*
X115487624Y-55658402D01*
X115352910Y-55708647D01*
X115237811Y-55794811D01*
X115151647Y-55909910D01*
X115101402Y-56044624D01*
X115095000Y-56104176D01*
X115095000Y-56352000D01*
X102743500Y-56352000D01*
X102743500Y-55176000D01*
X102760113Y-55114000D01*
X102805500Y-55068613D01*
X102867500Y-55052000D01*
X108286589Y-55052000D01*
X108352910Y-55071226D01*
G37*
%TD.AperFunction*%
%TD*%
M02*
