M48
; DRILL file {KiCad 7.0.1} date Fri Apr 21 09:55:23 2023
; FORMAT={-:-/ absolute / inch / decimal}
; #@! TF.CreationDate,2023-04-21T09:55:23+02:00
; #@! TF.GenerationSoftware,Kicad,Pcbnew,7.0.1
; #@! TF.FileFunction,MixedPlating,1,2
FMAT,2
INCH
; #@! TA.AperFunction,Plated,PTH,ComponentDrill
T1C0.0118
; #@! TA.AperFunction,Plated,PTH,ViaDrill
T2C0.0157
; #@! TA.AperFunction,Plated,PTH,ComponentDrill
T3C0.0315
; #@! TA.AperFunction,Plated,PTH,ComponentDrill
T4C0.0394
; #@! TA.AperFunction,Plated,PTH,ComponentDrill
T5C0.0598
%
G90
G05
T1
X4.8382Y-2.4874
X4.8382Y-2.5474
X4.8682Y-2.4574
X4.8682Y-2.5174
X4.8682Y-2.5774
X4.8982Y-2.4874
X4.8982Y-2.5474
X4.9282Y-2.4574
X4.9282Y-2.5174
X4.9282Y-2.5774
X4.9583Y-2.4874
X4.9583Y-2.5474
T2
X4.19Y-2.47
X4.5Y-2.735
X4.51Y-3.32
X4.5211Y-2.68
X4.62Y-2.98
X4.84Y-2.3
X4.88Y-3.03
X5.01Y-2.76
X5.04Y-3.34
X5.18Y-2.33
X5.18Y-2.38
X5.2Y-3.07
X5.23Y-3.23
X5.24Y-3.0367
X5.28Y-2.83
X5.33Y-2.68
X5.335Y-2.48
X5.38Y-3.31
X5.385Y-2.445
X5.46Y-2.81
X5.515Y-3.155
X5.55Y-2.24
T3
X4.1594Y-2.86
X4.2594Y-2.76
X4.2594Y-2.96
T4
X5.6398Y-3.38
X5.66Y-2.26
X5.66Y-2.36
X5.66Y-2.46
X5.66Y-2.56
X5.66Y-2.71
X5.66Y-2.81
X5.66Y-2.91
X5.66Y-3.01
X5.66Y-3.11
X5.66Y-3.21
X5.7398Y-3.38
T5
X4.17Y-3.24
X4.37Y-3.24
T0
M30
