%TF.GenerationSoftware,KiCad,Pcbnew,7.0.1*%
%TF.CreationDate,2023-04-21T09:55:58+02:00*%
%TF.ProjectId,hond,686f6e64-2e6b-4696-9361-645f70636258,rev?*%
%TF.SameCoordinates,Original*%
%TF.FileFunction,Soldermask,Top*%
%TF.FilePolarity,Negative*%
%FSLAX46Y46*%
G04 Gerber Fmt 4.6, Leading zero omitted, Abs format (unit mm)*
G04 Created by KiCad (PCBNEW 7.0.1) date 2023-04-21 09:55:58*
%MOMM*%
%LPD*%
G01*
G04 APERTURE LIST*
G04 Aperture macros list*
%AMRoundRect*
0 Rectangle with rounded corners*
0 $1 Rounding radius*
0 $2 $3 $4 $5 $6 $7 $8 $9 X,Y pos of 4 corners*
0 Add a 4 corners polygon primitive as box body*
4,1,4,$2,$3,$4,$5,$6,$7,$8,$9,$2,$3,0*
0 Add four circle primitives for the rounded corners*
1,1,$1+$1,$2,$3*
1,1,$1+$1,$4,$5*
1,1,$1+$1,$6,$7*
1,1,$1+$1,$8,$9*
0 Add four rect primitives between the rounded corners*
20,1,$1+$1,$2,$3,$4,$5,0*
20,1,$1+$1,$4,$5,$6,$7,0*
20,1,$1+$1,$6,$7,$8,$9,0*
20,1,$1+$1,$8,$9,$2,$3,0*%
G04 Aperture macros list end*
%ADD10RoundRect,0.250000X0.475000X-0.337500X0.475000X0.337500X-0.475000X0.337500X-0.475000X-0.337500X0*%
%ADD11R,1.700000X1.700000*%
%ADD12O,1.700000X1.700000*%
%ADD13R,1.500000X0.900000*%
%ADD14R,0.900000X1.500000*%
%ADD15C,0.600000*%
%ADD16R,4.200000X4.200000*%
%ADD17RoundRect,0.250000X0.337500X0.475000X-0.337500X0.475000X-0.337500X-0.475000X0.337500X-0.475000X0*%
%ADD18R,1.500000X2.000000*%
%ADD19R,3.800000X2.000000*%
%ADD20RoundRect,0.250000X-0.337500X-0.475000X0.337500X-0.475000X0.337500X0.475000X-0.337500X0.475000X0*%
%ADD21RoundRect,0.250000X-0.350000X-0.450000X0.350000X-0.450000X0.350000X0.450000X-0.350000X0.450000X0*%
%ADD22RoundRect,0.125000X-0.600000X-0.125000X0.600000X-0.125000X0.600000X0.125000X-0.600000X0.125000X0*%
%ADD23R,1.570000X1.890000*%
%ADD24RoundRect,0.250000X0.350000X0.450000X-0.350000X0.450000X-0.350000X-0.450000X0.350000X-0.450000X0*%
%ADD25RoundRect,0.250000X0.450000X-0.350000X0.450000X0.350000X-0.450000X0.350000X-0.450000X-0.350000X0*%
%ADD26R,3.000000X3.000000*%
%ADD27C,3.000000*%
%ADD28RoundRect,0.250000X-0.475000X0.337500X-0.475000X-0.337500X0.475000X-0.337500X0.475000X0.337500X0*%
%ADD29C,1.440000*%
G04 APERTURE END LIST*
D10*
%TO.C,C1*%
X108966000Y-58441500D03*
X108966000Y-56366500D03*
%TD*%
D11*
%TO.C,J4*%
X143251000Y-85852000D03*
D12*
X145791000Y-85852000D03*
%TD*%
D11*
%TO.C,J3*%
X143764000Y-68834000D03*
D12*
X143764000Y-71374000D03*
X143764000Y-73914000D03*
X143764000Y-76454000D03*
X143764000Y-78994000D03*
X143764000Y-81534000D03*
%TD*%
D11*
%TO.C,J1*%
X143764000Y-65024000D03*
D12*
X143764000Y-62484000D03*
X143764000Y-59944000D03*
X143764000Y-57404000D03*
%TD*%
D13*
%TO.C,U1*%
X116345000Y-56602000D03*
X116345000Y-57872000D03*
X116345000Y-59142000D03*
X116345000Y-60412000D03*
X116345000Y-61682000D03*
X116345000Y-62952000D03*
X116345000Y-64222000D03*
X116345000Y-65492000D03*
X116345000Y-66762000D03*
X116345000Y-68032000D03*
X116345000Y-69302000D03*
X116345000Y-70572000D03*
X116345000Y-71842000D03*
X116345000Y-73112000D03*
D14*
X119385000Y-74362000D03*
X120655000Y-74362000D03*
X121925000Y-74362000D03*
X123195000Y-74362000D03*
X124465000Y-74362000D03*
X125735000Y-74362000D03*
X127005000Y-74362000D03*
X128275000Y-74362000D03*
X129545000Y-74362000D03*
X130815000Y-74362000D03*
D13*
X133845000Y-73112000D03*
X133845000Y-71842000D03*
X133845000Y-70572000D03*
X133845000Y-69302000D03*
X133845000Y-68032000D03*
X133845000Y-66762000D03*
X133845000Y-65492000D03*
X133845000Y-64222000D03*
X133845000Y-62952000D03*
X133845000Y-61682000D03*
X133845000Y-60412000D03*
X133845000Y-59142000D03*
X133845000Y-57872000D03*
X133845000Y-56602000D03*
D15*
X122890000Y-63179500D03*
X122890000Y-64704500D03*
X123652500Y-62417000D03*
X123652500Y-63942000D03*
X123652500Y-65467000D03*
X124415000Y-63179500D03*
D16*
X124415000Y-63942000D03*
D15*
X124415000Y-64704500D03*
X125177500Y-62417000D03*
X125177500Y-63942000D03*
X125177500Y-65467000D03*
X125940000Y-63179500D03*
X125940000Y-64704500D03*
%TD*%
D17*
%TO.C,C2*%
X121179500Y-84836000D03*
X119104500Y-84836000D03*
%TD*%
D18*
%TO.C,U3*%
X134352000Y-84176000D03*
X136652000Y-84176000D03*
D19*
X136652000Y-77876000D03*
D18*
X138952000Y-84176000D03*
%TD*%
D20*
%TO.C,C6*%
X125835500Y-81788000D03*
X127910500Y-81788000D03*
%TD*%
D21*
%TO.C,R1*%
X110760000Y-63627000D03*
X112760000Y-63627000D03*
%TD*%
D22*
%TO.C,U4*%
X117620000Y-80772000D03*
X117620000Y-81422000D03*
X117620000Y-82072000D03*
X117620000Y-82722000D03*
X121920000Y-82722000D03*
X121920000Y-82072000D03*
X121920000Y-81422000D03*
X121920000Y-80772000D03*
D23*
X119770000Y-81747000D03*
%TD*%
D24*
%TO.C,R2*%
X138795000Y-73152000D03*
X136795000Y-73152000D03*
%TD*%
%TO.C,R5*%
X138795000Y-60452000D03*
X136795000Y-60452000D03*
%TD*%
D25*
%TO.C,R10*%
X130302000Y-84820000D03*
X130302000Y-82820000D03*
%TD*%
D24*
%TO.C,R6*%
X138795000Y-68072000D03*
X136795000Y-68072000D03*
%TD*%
D26*
%TO.C,J5*%
X110998000Y-82296000D03*
D27*
X105918000Y-82296000D03*
%TD*%
D20*
%TO.C,C8*%
X125835500Y-78867000D03*
X127910500Y-78867000D03*
%TD*%
%TO.C,C7*%
X119739500Y-77470000D03*
X121814500Y-77470000D03*
%TD*%
%TO.C,C5*%
X125835500Y-84709000D03*
X127910500Y-84709000D03*
%TD*%
D10*
%TO.C,C4*%
X111252000Y-58441500D03*
X111252000Y-56366500D03*
%TD*%
D28*
%TO.C,C3*%
X113538000Y-56366500D03*
X113538000Y-58441500D03*
%TD*%
D29*
%TO.C,P1*%
X108189000Y-70104000D03*
X105649000Y-72644000D03*
X108189000Y-75184000D03*
%TD*%
M02*
